<mxfile host="app.diagrams.net" agent="Mozilla/5.0 (Windows NT 10.0; Win64; x64) AppleWebKit/537.36 (KHTML, like Gecko) Chrome/131.0.0.0 Safari/537.36 Edg/131.0.0.0" version="26.0.9">
  <diagram id="C5RBs43oDa-KdzZeNtuy" name="Page-1">
    <mxGraphModel dx="896" dy="575" grid="1" gridSize="10" guides="1" tooltips="1" connect="1" arrows="1" fold="1" page="1" pageScale="1" pageWidth="827" pageHeight="1169" math="0" shadow="0">
      <root>
        <mxCell id="WIyWlLk6GJQsqaUBKTNV-0" />
        <mxCell id="WIyWlLk6GJQsqaUBKTNV-1" parent="WIyWlLk6GJQsqaUBKTNV-0" />
        <mxCell id="WIyWlLk6GJQsqaUBKTNV-3" value="MÃ³dulo de Entrada" style="rounded=1;whiteSpace=wrap;html=1;fontSize=12;glass=0;strokeWidth=1;shadow=0;" parent="WIyWlLk6GJQsqaUBKTNV-1" vertex="1">
          <mxGeometry x="70" y="200" width="520" height="40" as="geometry" />
        </mxCell>
        <mxCell id="1r8-J4dmMCnumvZf1Gb4-2" value="" style="shape=image;verticalLabelPosition=bottom;labelBackgroundColor=default;verticalAlign=top;aspect=fixed;imageAspect=0;image=data:image/jpeg,/9j/4AAQSkZJRgABAQEASABIAAD/4gIoSUNDX1BST0ZJTEUAAQEAAAIYAAAAAAIQAABtbnRyUkdCIFhZWiAAAAAAAAAAAAAAAABhY3NwAAAAAAAAAAAAAAAAAAAAAAAAAAAAAAAAAAAAAQAA9tYAAQAAAADTLQAAAAAAAAAAAAAAAAAAAAAAAAAAAAAAAAAAAAAAAAAAAAAAAAAAAAAAAAAAAAAAAAAAAAlkZXNjAAAA8AAAAHRyWFlaAAABZAAAABRnWFlaAAABeAAAABRiWFlaAAABjAAAABRyVFJDAAABoAAAAChnVFJDAAABoAAAAChiVFJDAAABoAAAACh3dHB0AAAByAAAABRjcHJ0AAAB3AAAADxtbHVjAAAAAAAAAAEAAAAMZW5VUwAAAFgAAAAcAHMAUgBHAEIAAAAAAAAAAAAAAAAAAAAAAAAAAAAAAAAAAAAAAAAAAAAAAAAAAAAAAAAAAAAAAAAAAAAAAAAAAAAAAAAAAAAAAAAAAAAAAAAAAAAAAAAAAFhZWiAAAAAAAABvogAAOPUAAAOQWFlaIAAAAAAAAGKZAAC3hQAAGNpYWVogAAAAAAAAJKAAAA+EAAC2z3BhcmEAAAAAAAQAAAACZmYAAPKnAAANWQAAE9AAAApbAAAAAAAAAABYWVogAAAAAAAA9tYAAQAAAADTLW1sdWMAAAAAAAAAAQAAAAxlblVTAAAAIAAAABwARwBvAG8AZwBsAGUAIABJAG4AYwAuACAAMgAwADEANv/bAEMABAMDBAMDBAQDBAUEBAUGCgcGBgYGDQkKCAoPDRAQDw0PDhETGBQREhcSDg8VHBUXGRkbGxsQFB0fHRofGBobGv/bAEMBBAUFBgUGDAcHDBoRDxEaGhoaGhoaGhoaGhoaGhoaGhoaGhoaGhoaGhoaGhoaGhoaGhoaGhoaGhoaGhoaGhoaGv/CABEIBQAD3QMBIgACEQEDEQH/xAAcAAEBAAMBAQEBAAAAAAAAAAAACAMGBwUBBAL/xAAUAQEAAAAAAAAAAAAAAAAAAAAA/9oADAMBAAIQAxAAAAGfwAAAAAAAAAAAAAAAAAAAAAAAAAAAAAAAAAAAAAAAAAAAAAAAAAAAAAAAAAAAAAAAAAAAAAAAAAAAAAAAAAAAAAAAAAAAAAAAAAAAAAAAAAAAAAAAAAAAAAAAAAAAAPU8vuRyb+as/KS6qIS6qIS6qIS6qIS6qIS6qIS6qIS6qIS6qIS6qIS6qIS6qIS6qIS6qIS6qIS6qIS6qIS6qIS6qIS6qIS6qIS6qIS6qIS6qIS6qIS6qIS6qIS6qIS6qIS6qIS6qIS6qIS6qIS6qIS6qIS6qIS6qIS6qIS6qIS6qIS6qIS6qIS6qIS6qIS6qIS6qIS6qIS6qIS6qIS6qIS6qIS6qIS6qIS6qIS6qIS6qIS7iqXlRyD+P2fjAAHTOZ9JKy/v+Mh8fR8fR8fR8fR8fR8fR8fR8fR8fR8fR8fR8fR8fR8fR8fR8fR8fR8fR8fR8fR8fR8fR8fR8fR8fR8fR8fR8fR8fR8fR8fR8fR8fR8fR8fR8fR8fR8fR8fR8fR8fR8fR8fR8fR8fR8fR8fR8fR8fR8fR8fR8fR8fR8fR8fR8fRjmel5gOdeT63kgADpPNuklZZMeQAI/wBdLiQ6LiQ6LiQ6LiQ6LiQ6LiQ6LiQ6LiQ6LiQ6LiQ6LiQ6LiRhZ4AAAAAAAAAAAAAAAAAAAAAAAAAAAAAAAAAAAAAAAAABimCn5gOdeT63kgADpPNuklZZMeQAk7wrOEYrOEYrOEYrOEYrOEYrOEYrOEYrOEYrOEYrOEYrOEYrOEgV+AAAAAAAAAAAAAAAAAAAAAAAAAAAAAAAAAAAAAAAAAAGKYKfmA515PreSAAOk826SVlkx5AAnPyCo0uCo0uCo0uCo0uCo0uCo0uCo0uCo0uCo0uCo0uCo0uCo0uCo0uCo0uCo0uCo0uCo0uCo0uCo0uCo0uCo0uCo0uCo0uCo0uCo0uCo0uCo0uCo0uCo0uCo0uCo0uCo0uCo0uCo0uCo0uCo0uCo0uCo0uCo0uCo0uCo0uCo0uCo0uCo0uCo0uCo0uCo0uCo0uCo0uCo0uCo0uCo0uCo0ufSon5P1mKYKfmA515PreSAAOk826SVlkx5ACJdau74Qku0Qku0Qku0Qku0Qku0Qku0Qku0Qku0Qku0Qku0Qku0Qku0Qku0Qku0Qku0Qku0Qku0Qku0Qku0Qku0Qku0Qku0Qku0Qku0Qku0Qku0Qku0Qku0Qku0Qku0Qku0Qku0Qku0Qku0Qku0Qku0Qku0Qku0Qku0Qku0Qku0Qku0Qku0Qku0Qku0Qku0Qku0Qku0Qku0Qku0Qku0Qku0Qku0f16H8/0Ypgp+YDnXk+t5IAA6TzbpJWWTHkAAAAAAAAAAAAAAAAAAAAAAAAAAAAAAAAAAAAAAAAAAAAAAAAAAAAAAAAMUwU/MBzryfW8kAAdJ5t0krLJjyAAAAAAAAAAAAAAAAAAAAAAAAAAAAAAAAAAAAAAAAAAAAAAAAAAAAAAAAGKYKfmA515PreSAAOk826SVlkx5ADhnmcr1o7y4MO8uDDvLgw7y4MO8uDDvLgw7y4MO8uDDvLgw7y4MO8uDDvLgw7y4MO8uDDvLgw7y4MO8uDDvLgw7y4MO8uDDvLgw7y4MO8uDDvLgw7y4MO8uDDvLgw7y4MO8uDDvLgw7y4MO8uDDvLgw7y4MO8uDDvLgw7y4MO8uDDvLgw7y4MO8uDDvLgw7y4MO8uDDvLgw7y4MO8uDDvLgw7y4MO8uDDvLgw7y4MO8uDC9v0/g/eYpgp+YDnXk+t5IAA6TzbpJWWTHkANUw7iNObiNObiNObiNObiNObiNObiNObiNObiNObiNObiNObiNObiNObiNObiNObiNObiNObiNObiNObiNObiNObiNObiNObiNObiNObiNObiNObiNObiNObiNObiNObiNObiNObiNObiNObiNObiNObiNObiNObiNObiNObiNObiNObiNObiNObiNObiNObiNObiNObiNObiNObiNObiNObiMWUMUwU/MBzryfW8kAAdJ5t0krLJjyAAAAAAAAAAAAAAAAAAAAAAAAAAAAAAAAAAAAAAAAAAAAAAAAAAAAAAAAGKYKfmA515PreSAAOk826SVlkx5AAAAAAAAAAAAAAAAAAAAAAAAAAAAAAAAAAAAAAAAAAAAAAAAAAAAAAAADFMFPzAc68n1vJAAHSebdJKyyY8gBwDyeda0dqcVHanFR2pxUdqcVHanFR2pxUdqcVHanFR2pxUdqcVHanFR2pxUdqcVHanFR2pxUdqcVHanFR2pxUdqcVHanFR2pxUdqcVHanFR2pxUdqcVHanFR2pxUdqcVHanFR2pxUdqcVHanFR2pxUdqcVHanFR2pxUdqcVHanFR2pxUdqcVHanFR2pxUdqcVHanFR2pxUdqcVHanFR2pxUdqcVHanFR2pxUdqcVHanFRen6/wfvMUwU/MBzryfW8kAAdJ5t0krLJjyAHg49iGutiGutiGutiGutiGutiGutiGutiGutiGutiGutiGutiGutiGutiGutiGutiGutiGutiGutiGutiGutiGutiGutiGutiGutiGutiGutiGutiGutiGutiGutiGutiGutiGutiGutiGutiGutiGutiGutiGutiGutiGutiGutiGutiGutiGutiGutiGutiGutiGutiGutiGutiGutiGutiGPIGKYKfmA515PreSAAOk826SVlkx5AAAAAAAAAAAAAAAAAAAAAAAAAAAAAAAAAAAAAAAAAAAAAAAAAAAAAAAADFMFPzAc68n1vJAAHSebdJKyyY8gAAAAAAAAAAAAAAAAAAAAAAAAAAAAAAAAAAAAAAAAAAAAAAAAAAAAAAABimCn5gOdeT63kgADpPNuklZZMeQA/GjHWi80GC80GC80GC80GC80GC80GC80GC80GC80GC80GC80GC80GC80GC80GC80GC80GC80GC80GC80GC80GC80GC80GC80GC80GC80GC80GC80GC80GC80GC80GC80GC80GC80GC80GC80GC80GC80GC80GC80GC80GC80GC80GC80GC80GC80GC80GC80GC80GC80GC80GC80GC80GC80GC/f6/B+8xTBT8wHOvJ9byQAB0nm3SSssmPIATd49UiVlUiVlUiVlUiVlUiVlUiVlUiVlUiVlUiVlUiVlUiVlUiVlUiVlUiVlUiVlUiVlUiVlUiVlUiVlUiVlUiVlUiVlUiVlUiVlUiVlUiVlUiVlUiVlUiVlUiVlUiVlUiVlUiVlUiVlUiVlUiVlUiVlUiVlUiVlUiVlUiVlUiVlUiVlUiVlUiVlUiVlUiVlUiVlUiVlUiVlUiVlUiVlUiVlUj8f7AxTBT8wHOvJ9byQAB0nm3SSssmPIAAAAAAAAAAAAAAAAAAAAAAAAAAAAAAAAAAAAAAAAAAAAAAAAAAAAAAAAYpgp+YDnXk+t5IAA6TzbpJWWTHkAAAAAAAAAAAAAAAAAAAAAAAAAAAAAAAAAAAAAAAAAAAAAAAAAAAAAAAAMUwU/MBzryfW8kAAdJ5t0krLJjyABo35zoLnw6C58OgufDoLnw6C58OgufDoLnw6C58OgufDoLnw6C58OgufDoLnw6C58OgufDoLnw6C58OgufDoLnw6C58OgufDoLnw6C58OgufDoLnw6C58OgufDoLnw6C58OgufDoLnw6C58OgufDoLnw6C58OgufDoLnw6C58OgufDoLnw6C58OgufDoLnw6C58OgufDoLnw6C58OgufDoLnw6C58OgufDoLnw6C58OgsOYxTBT8wHOvJ9byQAB0nm3SSssmPIARLrVNeeTqooTqooTqooTqooTqooTqooTqooTqooTqooTqooTqooTqooTqooTqooTqooTqooTqooTqooTqooTqooTqooTqooTqooTqooTqooTqooTqooTqooTqooTqooTqooTqooTqooTqooTqooTqooTqooTqooTqooTqooTqooTqooTqooTqooTqooTqooTqooTqooTqooTqooTqooTqooTqor6dl/f+b9JimCn5gOdeT63kgADpPNuklZZMeQAAAAAAAAAAAAAAAAAAAAAAAAAAAAAAAAAAAAAAAAAAAAAAAAAAAAAAAAxTBT8wHOvJ9byQAB0nm3SSssmPIAAAAAAAAAAAAAAAAAAAAAAAAAAAAAAAAAAAAAAAAAAAAAAAAAAAAAAAAYpgp+YDnXk+t5IAA6TzbpJWWTHkAAAAAAAAAAAAAAAAAAAAAAAAAAAAAAAAAAAAAAAAAAAAAAAAAAAAAAAAMUwU/MBzryfW8kAAdJ5t0krLJjyAAAAAAAAAAAAAAAAAAAAAAAAAAAAAAAAAAAAAAAAAAAAAAAAAAAAAAAAGKYKfmA515PreSAAOk826SVlkx5AAAAAAAAAAAAAAAAAAAAAAAAAAAAAAAAAAAAAAAAAAAAAAAAAAAAAAAADFMFPzAc68n1vJAAHSebdJKyyY8gAfjH7H4x+x+MfsfjH7H4x+x+MfsfjH7H4x+x+MfsfjH7H4x+x+Mfsfj/AGAAAAAAAAAAAAAAAAAAAAAAAAAAAAAAAAAAAAAAAAAAGKYKfmA515PreSAAOk826SVlkx5ACJdb7Z4xyx1McsdTHLHUxyx1McsdTHLHUxyx1McsdTHLHUxyx1McsdTGgXVMNPAAAAAAAAAAAAAAAAAAAAAAAAAAAAAAAAAAAAAAAAAAGKYKfmA515PreSAAOk826SVlkx5AAAAAAAAAAAAAAAAAAAAAAAAAAAAAAAAAAAAAAAAAAAAAAAAAAAAAAAADFMFPzAc68n1vJAAHSebdJKyyY8gAAAAAAAAAAAAAAAAAAAAAAAAAAAAAAAAAAAAAAAAAAAAAAAAAAAAAAABimCn5gOdeT63kgADpPNuklZZMeQAAAAAAAAAAAAAAAAAAAAAAAAAAAAAAAAAAAAAAAAAAAAAAAAAAAAAAAAxTBT8wHOvJ9byQAB0nm3SSssmPIAE3+QVOlgVOlgVOlgVOlgVOlgVOlgVOlgVOlgVOlgVOlgVOlgVOlgVOlgVOlgVOlgVOlgVOlgVOlgVOlgVOlgVOlgVOlgVOlgVOlgVOlgVOlgVOlgVOlgVOlgVOlgVOlgVOlgVOlgVOlgVOlgVOlgVOlgVOlgVOlgVOlgVOlgVOlgVOlgVOlgVOlgVOlgVOlgVOlgVOlgVOlgVOlgVOlgVOlgVO/H+wxTBT8wHOvJ9byQAB0nm3SSssmPIARLrV5CDV5CDV5CDV5CDV5CDV5CDV5CDV5CDV5CDV5CDV5CDV5CDV5CDV5CDV5CDV5CDV5CDV5CDV5CDV5CDV5CDV5CDV5CDV5CDV5CDV5CDV5CDV5CDV5CDV5CDV5CDV5CDV5CDV5CDV5CDV5CDV5CDV5CDV5CDV5CDV5CDV5CDV5CDV5CDV5CDV5CDV5CDV5CDV5CDV5CDV5CDV5CDV5CDV5D+f3/z/AEYpgp+YDnXk+t5IAA6TzbpJWWTHkAAAAAAAAAAAAAAAAAAAAAAAAAAAAAAAAAAAAAAAAAAAAAAAAAAAAAAAAMUwU/MBzryfW8kAAdJ5t0krLJjyAAAAAAAAAAAAAAAAAAAAAAAAAAAAAAAAAAAAAAAAAAAAAAAAAAAAAAAAGKYKfmA515PreSAAOk826SVlkx5AAAAAAAAAAAAAAAAAAAAAAAAAAAAAAAAAAAAAAAAAAAAAAAAAAAAAAAADFMFPzAc68n1vJAAHSebdJKyyY8gAAAAAAAAAAAAAAAAAAAAAAAAAAAAAAAAAAAAAAAAAAAAAAAAAAAAAAABimCn5gOdeT63kgADpPNuklZZMeQAkXwNg8A+Po+Po+Po+Po+Po+Po+Po+Po+Po+Po+Po/fZMcWOAAAAAAAAAAAAAAAAAAAAAAAAAAAAAAAAAAAAAAAAAAYpgp+YDnXk+t5IAA6TzbpJWWTHkAAAAAAAAAAAAAAAAAAAAAAAAAAAAAAAAAAAAAAAAAAAAAAAAAAAAAAAAMUwU/MBzryfW8kAAdJ5t0krLJjyAAAAAAAAAAAAAAAAAAAAAAAAAAAAAAAAAAAAAAAAAAAAAAAAAAAAAAAAGKYKfmA515PreSAAOk826SVlkx5AAAAAAAAAAAAAAAAAAAAAAAAAAAAAAAAAAAAAAAAAAAAAAAAAAAAAAAADFMFPzAc68n1vJAAHSebdJKyyY8gAAAAAAAAAAAAAAAAAAAAAAAAAAAAAAAAAAAAAAAAAAAAAAAAAAAAAAABimCn5gOdeT63kgADpPNuklZZMeQAAAAAAAAAAAAAAAAAAAAAAAAAAAAAAAAAAAAAAAAAAAAAAAAAAAAAAAAxTBT8wHOvJ9byQAB0nm3SSssmPIAAAAAAAAAAAAAAAAAAAAAAAAAAAAAAAAAAAAAAAAAAAAAAAAAAAAAAAAYpgp+YDnXk+t5IAA6TzbpJWWTHkADScBvrQhvrQhvrQhvrQhvrQhvrQhvrQhvrQhvrQhvrQhvrQhvrQhvrQhvrQhvrQhvrQhvrQhvrQhvrQhvrQhvrQhvrQhvrQhvrQhvrQhvrQhvrQhvrQhvrQhvrQhvrQhvrQhvrQhvrQhvrQhvrQhvrQhvrQhvrQhvrQhvrQhvrQhvrQhvrQhvrQhvrQhvrQhvrQhvrQhvrQhvrQhvrQhvrQhvrFlMUwU/MBzryfW8kAAdJ5t0krLJjyAES61S/wCAndRAndRAndRAndRAndRAndRAndRAndRAndRAndRAndRAndRAndRAndRAndRAndRAndRAndRAndRAndRAndRAndRAndRAndRAndRAndRAndRAndRAndRAndRAndRAndRAndRAndRAndRAndRAndRAndRAndRAndRAndRAndRAndRAndRAndRAndRAndRAndRAndRAndRAndRAndRAndRHw7T+/wDN+kxTBT8wHOvJ9byQAB0nm3SSssmPIAAAAAAAAAAAAAAAAAAAAAAAAAAAAAAAAAAAAAAAAAAAAAAAAAAAAAAAAYpgp+YDnXk+t5IAA6TzbpJWWTHkAAAAAAAAAAAAAAAAAAAAAAAAAAAAAAAAAAAAAAAAAAAAAAAAAAAAAAAAMUwU/MBzryfW8kAAdJ5t0krLJjyAAAAAAAAAAAAAAAAAAAAAAAAAAAAAAAAAAAAAAAAAAAAAAAAAAAAAAAAGKYKfmA515PreSAAOk826SVlkx5AAn7yilk0ilk0ilk0ilk0ilk0ilk0ilk0ilk0ilk0ilk0ilk0ilk0ilk0ilk0ilk0ilk0ilk0ilk0ilk0ilk0ilk0ilk0ilk0ilk0ilk0ilk0ilk0ilk0ilk0ilk0ilk0ilk0ilk0ilk0ilk0ilk0ilk0ilk0ilk0ilk0ilk0ilk0ilk0ilk0ilk0ilk0ilk0ilk0ilk0ilk0ilk0ilk0ilk0iln5P1mKYKfmA515PreSAAOk826SVlkx5ACJdauL+CIFviIFviIFviIFviIFviIFviIFviIFviIFviIFviIFviIFviIFviIFviIFviIFviIFviIFviIFviIFviIFviIFviIFviIFviIFviIFviIFviIFviIFviIFviIFviIFviIFviIFviIFviIFviIFviIFviIFviIFviIFviIFviIFviIFviIFviIFviIFviIFviIFviIFviIFviIFviIFvj0f348himCn5gOdeT63kgADpPNuklZZMeQAAAAAAAAAAAAAAAAAAAAAAAAAAAAAAAAAAAAAAAAAAAAAAAAAAAAAAAAxTBT8wHOvJ9byQAB0nm3SSssmPIAAAAAAAAAAAAAAAAAAAAAAAAAAAAAAAAAAAAAAAAAAAAAAAAAAAAAAAAYpgp+YDnXk+t5IAA6TzbpJWWTHkAAAAAAAAAAAAAAAAAAAAAAAAAAAAAAAAAAAAAAAAAAAAAAAAAAAAAAAAMUwU/MBzryfW8kAAdJ5t0krLJjyAAAAAAAAAAAAAAAAAAAAAAAAAAAAAAAAAAAAAAAAAAAAAAAAAAAAAAAAGKYKfmA515PreSAAOk826SVlkx5B+X9WvnkI3FkI3FkI3FkI3FkI3FkI3FkI3FkI3FkI3FkI3FkI3FkI3FkI3FkI3FkI3FkI3FkI3FkI3FkI3FkI3FkI3FkI3FkI3FkI3FkI3FkI3FkI3FkI3FkI3FkI3FkI3FkI3FkI3FkI3FkI3FkI3FkI3FkI3FkI3FkI3FkI3FkI3FkI3FkI3FkI3FkI3FkI3FkI3FkI3FkI3FkI3FkI3FkI3FkfsivfiwQYpgp+YDnXk+t5IAA6TzbpJWWTHkHm+kOAu/DgLvw4C78OAu/DgLvw4C78OAu/DgLvw4C78OAu/DgLvw4C78OAu/DgLvw4C78OAu/DgLvw4C78OAu/DgLvw4C78OAu/DgLvw4C78OAu/DgLvw4C78OAu/DgLvw4C78OAu/DgLvw4C78OAu/DgLvw4C78OAu/DgLvw4C78OAu/DgLvw4C78OAu/DgLvw4C78OAu/DgLvw4C78OAu/DgLvw4C78OAu/DgLvw4D7/XwBimCn5gOdeT63kgADpPNuklZZMeQAAAAAAAAAAAAAAAAAAAAAAAAAAAAAAAAAAAAAAAAAAAAAAAAAAAAAAAAxTBT8wHOvJ9byQAB0nm3SSssmPIAAAAAAAAAAAAAAAAAAAAAAAAAAAAAAAAAAAAAAAAAAAAAAAAAAAAAAAAYpgp+YDnXk+t5IAA6TzbpJWWTHkAAAAAAAAAAAAAAAAAAAAAAAAAAAAAAAAAAAAAAAAAAAAAAAAAAAAAAAAMUwU/MBzryfW8kAAdJ5t0krLJjyAAAAAAAAAAAAAAAAAAAAAAAAAAAAAAAAAAAAAAAAAAAAAAAAAAAAAAAAGKYKfmA515PreSAAOk826SVlkx5AAAAAAAAAAAAAAAAAAAAAAAAAAAAAAAAAAAAAAAAAAAAAAAAAAAAAAAADFMFPzAc68n1vJAAHSebdJKyyY8gAAAAAAAAAAAAAAAAAAAAAAAAAAAAAAAAAAAAAAAAAAAAAAAAAAAAAAABimCn5gOdeT63kgADpPNuklZZMeQfz/WvHsINF5INF5INF5INF5INF5INF5INF5INF5INF5INF5INF5INF5INF5INF5INF5INF5INF5INF5INF5INF5INF5INF5INF5INF5INF5INF5INF5INF5INF5INF5INF5INF5INF5INF5INF5INF5INF5INF5INF5INF5INF5INF5INF5INF5INF5INF5INF5INF5INF5INF5INF5INF5INF5f1Be+FfgxTBT8wHOvJ9byQAB0nm3SSssmPIPH9gSerASerASerASerASerASerASerASerASerASerASerASerASerASerASerASerASerASerASerASerASerASerASerASerASerASerASerASerASerASerASerASerASerASerASerASerASerASerASerASerASerASerASerASerASerASerASerASerASerASerASerASerASerASftdCgDFMFPzAc68n1vJAAHSebdJKyyY8gAAAAAAAAAAAAAAAAAAAAAAAAAAAAAAAAAAAAAAAAAAAAAAAAAAAAAAABimCn5gOdeT63kgADpPNuklZZMeQAAAAAAAAAAAAAAAAAAAAAAAAAAAAAAAAAAAAAAAAAAAAAAAAAAAAAAAAxTBT8wHOvJ9byQAB0nm3SSssmPIAAAAAAAAAAAAAAAAAAAAAAAAAAAAAAAAAAAAAAAAAAAAAAAAAAAAAAAAYpgp+YDnXk+t5IAA6TzbpJWWTHkAAAAAAAAAAAAAAAAAAAAAAAAAAAAAAAAAAAAAAAAAAAAAAAAAAAAAAAAMUwU/MBzryfW8kAAdJ5t0krLJjyAAAAAAAAAAAAAAAAAAAAAAAAAAAAAAAAAAAAAAAAAAAAAAAAAAAAAAAAGKYKfmA515PreSAAOk826SVlkx5ADxvkf60XKhoXKhoXKhoXKhoXKhoXKhoXKhoXKhoXKhoXKhoXKhoXKhoXKhoXKhoXKhoXKhoXKhoXKhoXKhoXKhoXKhoXKhoXKhoXKhoXKhoXKhoXKhoXKhoXKhoXKhoXKhoXKhoXKhoXKhoXKhoXKhoXKhoXKhoXKhoXKhoXKhoXKhoXKhoXKhoXKhoXKhoXKhoXKhoXKhoXKhoXKhoXKhoXKhoX3k/B+8xTBT8wHOvJ9byQAB0nm3SSssmPIAT15VNCZVNCZVNCZVNCZVNCZVNCZVNCZVNCZVNCZVNCZVNCZVNCZVNCZVNCZVNCZVNCZVNCZVNCZVNCZVNCZVNCZVNCZVNCZVNCZVNCZVNCZVNCZVNCZVNCZVNCZVNCZVNCZVNCZVNCZVNCZVNCZVNCZVNCZVNCZVNCZVNCZVNCZVNCZVNCZVNCZVNCZVNCZVNCZVNCZVNCZVNCZVNCZVNCZVND8n6wxTBT8wHOvJ9byQAB0nm3SSssmPIAAAAAAAAAAAAAAAAAAAAAAAAAAAAAAAAAAAAAAAAAAAAAAAAAAAAAAAAYpgp+YDnXk+t5IAA6TzbpJWWTHkAAAAAAAAAAAAAAAAAAAAAAAAAAAAAAAAAAAAAAAAAAAAAAAAAAAAAAAAMUwU/MBzryfW8kAAdJ5tuRZP8AfDfKKHTwKHTwKHTwKHTwKHTwKHTwKHTwKHTwKHTwKHTwKHTwKHTwKHTwKHTwKHTwKHTwKHTwKHTwKHTwKHTwKHTwKHTwKHTwKHTwKHTwKHTwKHTwKHTwKHTwKHTwKHTwKHTwKHTwKHTwKHTwKHTwKHTwKHTwKHTwKHTwKHTwKHTwKHTwKHTwKHTwKHTwKHTwKHTwKHTwKHTwKHTwKHTwKHTwKHTwKHTwKHTwKDmD29QNO8n1vJAAH6vyjZGtjZGtjZGtjZGtjZGtjZGtjZGtjZGtjZGtjZGtjZGtjZGtjZGtjZGtjZGtjZGtjZGtjZGtjZGtjZGtjZGtjZGtjZGtjZGtjZGtjZGtjZGtjZGtjZGtjZGtjZGtjZGtjZGtjZGtjZGtjZGtjZGtjZGtjZGtjZGtjZGtjZGtjZGtjZGtjZGtjZGtjZGtjZGtjZGtjZGtjZGtjZGtjZGtjZGtjZGtjZGtjZGtjZGtj9v4gAAAAAAAAAAAAAAAAAAAAAAAAAAAAAAAAAAAAAAAAAAAAAAAAAAAAAAAAAAAAAAA/8QALRAAAQIFAgcBAQEBAAIDAAAAAAUXAgMEFRYUMgEGEyAzNGASEBE1JYAhMTb/2gAIAQEAAQUC/wDfOSnVdRBxSa/gWuuLXXFrri11xa64tdcWuuLXXFrri11xa64tdcWuuLXXFrri11xa64tdcWuuLXXFrri11xa64tdcWuuLXXFrri11xa64tdcWuuLXXFrri11xa64tdcWuuLXXFrri11xa64tdcWuuLXXFrri11xa64tdcWuuLXXFrri11xa64tdcWuuLXXFrri11xa64tdcWuuLXXFrri11xa64tdcWuuLXXFrri11xa64tdcWuuLXXFrri11xa64tdcWuuLXXFrri11xa64tdcWuuLXXFrri11xa64tdcWuuLXXFrri11xa64tdcWuuLXXFrri11xa64tdcWuuLXXFrri11xa64tdcWuuLXXFrri11xa64tdaRUFVARQ8YOPdynU/mgmUscfDRzTRzTRzTRzTRzTRzTRzTRzTRzTRzTRzTRzTRzTRzTRzTRzTRzTRzTRzTRzTRzTRzTRzTRzTRzTRzTRzTRzTRzTRzTRzTRzTRzTRzTRzTRzTRzTRzTRzTRzTRzTRzTRzTRzTRzTRzTRzTRzTRzTRzTRzTRzTRzTRzTRzTRzTRzTRzTRzTRzTRzTRzTRzTRzTRzTRzTRzTRzTRzTRzTRzTRzTRzTRzTRzTRzTRzTRzTRzTRzTRzTRzTRzTRzTRzTRzTRzTRzTRzTRzTRzTRzTRzTRzTRzTRzTRzTRzTRzTRzTRzTRzTRzTRzTRzTRzTRzTRzTRzTRzTRzTRzTRzTjRzRc4T5cdT/AL1O7lyLjw4wbfsYv/iFbnRza5Q8/dy7ug2/YzNit7yh5+7l3dBt+xmbFb3lDz93Lu6Db/VxXUJSze1MvamXtTL2pl7Uy9qZe1MvamXtTL2pl7Uy9qZe1MvamXtTL2pl7Uy9qZe1MvamXtTL2pl7UygWFGOu+VmbFb3lDz93Lu6Db/VrlxVqFfFVkxVZMVWTFVkxVZMVWTFVkxVZMVWTFVkxVZMVWTFVkxVZMVWTFVkxVZMVWTFVkxVZMVWTFVkxVZKHllXl1vyszYre8oefu5d3QbfsZmxW95Q8/dy7ug2/YzNit7yh5+7l3dBt/qpz0pUSk4qqOKqjiqo4qqOKqjiqo4qqOKqjiqo4qqOKqjiqo4qqOKqjiqo4qqOKqjiqo4qqOKqjiqo4qqOKqjiqo4qqOKqjiqo4qqOKqjiqo4qqOKqjiqo4qqOKqjiqo4qqOKqjiqo4qqOKqjiqo4qqOKqjiqo4qqOKqjiqo4qqOKqjiqo4qqOKqjiqo4qqOKqjiqo4qqOKqjiqo4qqOKqjiqo4qqOKqjiqo4qqOKqjiqo4qqOKqjiqo4qqOKqjiqo4qqOKqjiqo4qqOKqjiqo4qqOKqjiqo4qqOKqjiqo4qqOKqjiqo4qqOKqjiqo4qqOKqjiqo4qqOKqjiqo4qqOKqjiqo4qqOKqjiqo4qqOKqlPM4zacmbFb3lDz93Lu6Db/AHmH/u/V0XpkzYre8oefu5d3Qbf7FRU0cVvpC30hb6Qt9IW+kLfSFvpC30hb6Qt9IW+kLfSFvpC30hb6Qt9IW+kLfSFvpC30hb6Qt9IW+kLfSFvpC30hb6Qt9IW+kLfSFvpC30hb6Qt9IW+kLfSFvpC30hb6Qt9IW+kLfSFvpC30hb6Qt9IW+kLfSFvpC30hb6Qt9IW+kLfSFvpC30hb6Qt9IW+kLfSFvpC30hb6Qt9IW+kLfSFvpC30hb6Qt9IW+kLfSFvpC30hb6Qt9IW+kLfSFvpC30hb6Qt9IW+kLfSFvpC30hb6Qt9IW+kLfSFvpC30hb6Qt9IW+kLfSFvpC30hb6Qt9IW+kLfSFvpC30hb6Qt9IW+kOHD/ADgTNit7yh5+7l3dBt+xmbFb3lDz93Lu6Db9jM2K3vKHn7uXd0G37GZsVveUPP3cu7oNv2MzYre8oefu5d3Qbf6oc/x0Ne5cY5cY5cY5cY5cY5cY5cY5cY5cY5cY5cY5cY5cY5cY5cY5cY5cY5cY5cY5cY5cY5cY5cY5cY5cY5cY5cY5cY5cY5cY5cY5cY5cY5cY5cY5cY5cY5cY5cY5cY5cY5cY5cY5cY5cY5cY5cY5cY5cY5cY5cY5cY5cY5cY5cY5cY5cY5cY5cY5cY5cY5cY5cY5cY5cY5cY5cY5cY5cY5cY5cY5cY5cY5cY5cY5cY5cY5cY5cY5cY5cY5cY5cY5cY5cY5cY5cY5cY5cY5cY5cY5cY5cY5cY5cY5cY5cY5cY5cY5cY5cY5cY5cY5cY5cY5cY5cZImdaSTNit7yh5+7l3dBt/vMP/AHfq6L0yZsVveUPP3cu7oNv9ncuJU+biqMYqjGKoxiqMYqjGKoxiqMYqjGKoxiqMYqjGKoxiqMYqjGKoxiqMYqjGKoxiqMYqjGKoxiqMYqjGKoxiqMYqjGKoxiqMYqjGKoxiqMYqjGKoxiqMYqjGKoxiqMYqjGKoxiqMYqjGKoxiqMYqjGKoxiqMYqjGKoxiqMYqjGKoxiqMYqjGKoxiqMYqjGKoxiqMYqjGKoxiqMYqjGKoxiqMYqjGKoxiqMYqjGKoxiqMYqjGKoxiqMYqjGKoxiqMYqjGKoxiqMYqjGKoxiqMYqjGKoxiqMYqjGKoxiqMYqjGKoxiqMYqjGKoxiqMYqjGKoxiqMYqjGKoxiqMYqjGKoxiqMYqjGKoxiqMYqjEMPCCEmbFb3lDz93Lu6Db9jM2K3vKHn7uXd0G37GZsVveUPP3cu7oNv2MzYre8oefu5d3QbfsZmxW95Q8/dy7ug2/YzNit7yh5+7l3dBt/qnz7V0Sg5NcOTXDk1w5NcOTXDk1w5NcOTXDk1w5NcOTXDk1w5NcOTXDk1w5NcOTXDk1w5NcOTXDk1w5NcOTXDk1w5NcOTXDk1w5NcOTXDk1w5NcOTXDk1w5NcOTXDk1w5NcOTXDk1w5NcOTXDk1w5NcOTXDk1w5NcOTXDk1w5NcOTXDk1w5NcOTXDk1w5NcOTXDk1w5NcOTXDk1w5NcOTXDk1w5NcOTXDk1w5NcOTXDk1w5NcOTXDk1w5NcOTXDk1w5NcOTXDk1w5NcOTXDk1w5NcOTXDk1w5NcOTXDk1w5NcOTXDk1w5NcOTXDk1w5NcOTXDk1w5NcOTXDk1w5NcOTXDk1w5NcOTXDk1w5NcORWlPM6sgmbFb3lDz93Lu6Db/eYf8Au/V0XpkzYre8oefu5d3Qbf7MRk+bHYkwsSYWJMLEmFiTCxJhYkwsSYWJMLEmFiTCxJhYkwsSYWJMLEmFiTCxJhYkwsSYWJMLEmFiTCxJhYkwsSYWJMLEmFiTCxJhYkwsSYWJMLEmFiTCxJhYkwsSYWJMLEmFiTCxJhYkwsSYWJMLEmFiTCxJhYkwsSYWJMLEmFiTCxJhYkwsSYWJMLEmFiTCxJhYkwsSYWJMLEmFiTCxJhYkwsSYWJMLEmFiTCxJhYkwsSYWJMLEmFiTCxJhYkwsSYWJMLEmFiTCxJhYkwsSYWJMLEmFiTCxJhYkwsSYWJMLEmFiTCxJhYkwsSYWJMLEmFiTCxJhYkwsSYWJMLEmFiTDhDwh4EzYre8oefu5d3QbfsZmxW95Q8/dy7ug2/YzNit7yh5+7l3dBt+xmbFb3lDz93Lu6Db9jM2K3vKHn7uXd0G37GZsVveUPP3cu7oNv941Mnhx1cg1cg1cg1cg1cg1cg1cg1cg1cg1cg1cg1cg1cg1cg1cg1cg1cg1cg1cg1cg1cg1cg1cg1cg1cg1cg1cg1cg1cg1cg1cg1cg1cg1cg1cg1cg1cg1cg1cg1cg1cg1cg1cg1cg1cg1cg1cg1cg1cg1cg1cg1cg1cg1cg1cg1cg1cg1cg1cg1cg1cg1cg1cg1cg1cg1cg1cg1cg1cg1cg1cg1cg1cg1cg1cg1cg1cg1cg1cg1cg1cg1cg1cg1cg1cg1cg1cg1cg1cg1cg1cg1cg1cg1cg1cg1cg1cg1cg1cg1cg1cg1cg1cg1cg1cg1cg1cg/3/AH+TNit7yh5+7l3dBt/vMP8A3fq6L0yZsVveUPP3cu7oNv8AVXkhTrFNvlYb5WG+VhvlYb5WG+VhvlYb5WG+VhvlYb5WG+VhvlYb5WG+VhvlYb5WG+VhvlYb5WG+VhvlYb5WG+VhvlYb5WG+VhvlYb5WG+VhvlYb5WG+VhvlYb5WG+VhvlYb5WG+VhvlYb5WG+VhvlYb5WG+VhvlYb5WG+VhvlYb5WG+VhvlYb5WG+VhvlYb5WG+VhvlYb5WG+VhvlYb5WG+VhvlYb5WG+VhvlYb5WG+VhvlYb5WG+VhvlYb5WG+VhvlYb5WG+VhvlYb5WG+VhvlYb5WG+VhvlYb5WG+VhvlYb5WG+VhvlYb5WG+VhvlYb5WG+VhvlYb5WG+VhvlYb5WG+VhvlYb5WG+VhvlYb5WKaDjKpyZsVveUPP3cu7oNv2MzYre8oefu5d3QbfsZmxW95Q8/dy7ug2/YzNit7yh5+7l3dBt+xmbFb3lDz93Lu6Db9jM2K3vKHn7uXd0G37GZsVveUPP3cu7oNv9n83JFLPzZDM2QzNkMzZDM2QzNkMzZDM2QzNkMzZDM2QzNkMzZDM2QzNkMzZDM2QzNkMzZDM2QzNkMzZDM2QzNkMzZDM2QzNkMzZDM2QzNkMzZDM2QzNkMzZDM2QzNkMzZDM2QzNkMzZDM2QzNkMzZDM2QzNkMzZDM2QzNkMzZDM2QzNkMzZDM2QzNkMzZDM2QzNkMzZDM2QzNkMzZDM2QzNkMzZDM2QzNkMzZDM2QzNkMzZDM2QzNkMzZDM2QzNkMzZDM2QzNkMzZDM2QzNkMzZDM2QzNkMzZDM2QzNkMzZDM2QzNkMzZDM2QzNkMzZDM2QzNkMzZDM2QzNkMzZDM2QzNkMzZDM2QzNkMzZDM2QyCPhMgJmxW95Q8/dy7ug2/wB5h/7v1dF6ZM2K3vKHn7uXd0G3+13IEmurW1kDayBtZA2sgbWQNrIG1kDayBtZA2sgbWQNrIG1kDayBtZA2sgbWQNrIG1kDayBtZA2sgbWQNrIG1kDayBtZA2sgbWQNrIG1kDayBtZA2sgbWQNrIG1kDayBtZA2sgbWQNrIG1kDayBtZA2sgbWQNrIG1kDayBtZA2sgbWQNrIG1kDayBtZA2sgbWQNrIG1kDayBtZA2sgbWQNrIG1kDayBtZA2sgbWQNrIG1kDayBtZA2sgbWQNrIG1kDayBtZA2sgbWQNrIG1kDayBtZA2sgbWQNrIG1kDayBtZA2sgbWQNrIG1kDayBtZA2sgbWQNrIG1kDayBtZA2sgbWQSZfSkkzYre8oefu5d3QbfsZmxW95Q8/dy7ug2/YzNit7yh5+7l3dBt+xmbFb3lDz93Lu6Db9jM2K3vKHn7uXd0G37GZsVveUPP3cu7oNv2MzYre8oefu5d3QbfsZmxW95Q8/dy7ug2/YzNit7yh5+7l3dBt+xmbFb3lDz93Lu6Db9jM2K3vKHn7uXd0G37GZsVveUPP3cu7oNv941Mnhx1Ug1Ug1Ug1Ug1Ug1Ug1Ug1Ug1Ug1Ug1Ug1Ug1Ug1Ug1Ug1Ug1Ug1Ug1Ug1Ug1Ug1Ug1Ug1Ujj8tM2K3vKHn7uXd0G3+8wcf/ADv+n+n+n+n+n+n+n+n+n+n+n+n+n+n+n+n+n+n+n+n+n+n+idx/8h8rM2K3vKHn7uXd0G3+qvJCpWKbfK43yuN8rjfK43yuN8rjfK43yuN8rjfK43yuN8rjfK43yuN8rjfK43yuN8rjfK43yuN8rjfK43yuUnIirJqvlZmxW95Q8/dy7ug2/YzNit7yh5+7l3dBt+xmbFb3lDz93Lu6Db9jM2K3vKHn7uXd0G37GZsVveUPP3cu7oNv2MzYre8oefu5d3QbfsZmxW95Q8/dy7ug2/YzNit7yh5+7l3dBt/qpzwp0Sk4SsOErDhKw4SsOErDhKw4SsOErDhKw4SsOErDhKw4SsOErDhKw4SsOErDhKw4SsOErDhKw4SsOErDhKw4SsOErDhKw4SsOErDhKw4SsOErDhKw4SsOErDhKw4SsOErDhKw4SsOErDhKw4SsOErDhKw4SsOErDhKw4SsOErDhKw4SsOErDhKw4SsOErDhKw4SsOErDhKw4SsOErDhKw4SsOErDhKw4SsOErDhKw4SsOErDhKw4SsOErDhKw4SsOErDhKw4SsOErDhKw4SsOErDhKw4SsOErDhKw4SsOErDhKw4SsOErDhKw4SsOErDhKw4SsOErDhKw4SsOErDhKw4SsOErDhKw4SsOErFNHxm05M2K3vKHn7uXd0G3+8w/wDd+rovTJmxW95Q8/dy7ug2/wB40siLjo6c0dOaOnNHTmjpzR05o6c0dOaOnNHTmjpzR05o6c0dOaOnNHTmjpzR05o6c0dOaOnNHTmjpzR05o6c0dOaOnNHTmjpzR05o6c0dOaOnNHTmjpzR05o6c0dOaOnNHTmjpzR05o6c0dOaOnNHTmjpzR05o6c0dOaOnNHTmjpzR05o6c0dOaOnNHTmjpzR05o6c0dOaOnNHTmjpzR05o6c0dOaOnNHTmjpzR05o6c0dOaOnNHTmjpzR05o6c0dOaOnNHTmjpzR05o6c0dOaOnNHTmjpzR05o6c0dOaOnNHTmjpzR05o6c0dOaOnNHTmjpzR05o6c0dOaOnNHTmjpz/wCv5M2K3vKHn7uXd0G37GZsVveUPP3cu7oNv2MzYre8oefu5d3QbfsZmxW95Q8/dy7ug2/YzNit7yh5+7l3dBt+xmbFb3lDz93Lu6Db9jM2K3vKHn7uXd0G37GZsVveUPP3cu7oNv2MzYre8oefu5d3Qbf6tralJWMhVTIVUyFVMhVTIVUyFVMhVTIVUyFVMhVTIVUyFVMhVTIVUyFVMhVTIVUyFVMhVTIVUyFVMhVTIVUoF5TjrvlZmxW95Q8/dy7ug2/1bQlOcsY6rGOqxjqsY6rGOqxjqsY6rGOqxjqsY6rGOqxjqsY6rGOqxjqsY6rGOqxjqsY6rGOqxjqsY6rGOqxQoCpBW/KzNit7yh5+7l3dBt+xmbFb3lDz93Lu6Db9jM2K3vKHn7uXd0G37GZsVveUPP3cu7oNv2MzYre8oefu5d3QbfsZmxW95Q8/dy7ug2/YzNit7yh5+7l3dBt+xmbFb3lDz93Lu6Db9jM2K3vKHn7uXd0G37GZsVveUPP3cu7oNv2MzYre8oefu5d3QbfsZmxW95Q8/dy7ug2/YzNit7yh5+7l3dBt+xmbFb3lDz93Lu6Db/Z/NaTTT8yRTMkUzJFMyRTMkUzJFMyRTMkUzJFMyRTMkUzJFMyRTMkUzJFMyRTMkUzJFMyRTMkUzJFMyRTMkUzJFMyRTMkUzJFMyRTMkUzJFMyRTMkUzJFMyRTMkUzJFMyRTMkUzJFMyRTMkUzJFMyRTMkUzJFMyRTMkUzJFMyRTMkUzJFMyRTMkUzJFMyRTMkUzJFMyRTMkUzJFMyRTMkUzJFMyRTMkUzJFMyRTMkUzJFMyRTMkUzJFMyRTMkUzJFMyRTMkUzJFMyRTMkUzJFMyRTMkUzJFMyRTMkUzJFMyRTMkUzJFMyRTMkUzJFMyRTMkUzJFMyRTMkUzJFMyRTMkUzJFMyRTMkUzJFMyRTMkUgj4TICZsVveUPP3cu7oNv95h/7v1dF6ZM2K3vKHn7uXd0G3+13IEuurW1lDayhtZQ2sobWUNrKG1lDayhtZQ2sobWUNrKG1lDayhtZQ2sobWUNrKG1lDayhtZQ2sobWUNrKG1lDayhtZQ2sobWUNrKG1lDayhtZQ2sobWUNrKG1lDayhtZQ2sobWUNrKG1lDayhtZQ2sobWUNrKG1lDayhtZQ2sobWUNrKG1lDayhtZQ2sobWUNrKG1lDayhtZQ2sobWUNrKG1lDayhtZQ2sobWUNrKG1lDayhtZQ2sobWUNrKG1lDayhtZQ2sobWUNrKG1lDayhtZQ2sobWUNrKG1lDayhtZQ2sobWUNrKG1lDayhtZQ2sobWUNrKG1lDayhtZQ2sobWUSZfRkkzYre8oefu5d3QbfsZmxW95Q8/dy7ug2/YzNit7yh5+7l3dBt+xmbFb3lDz93Lu6Db9jM2K3vKHn7uXd0G37GZsVveUPP3cu7oNv2MzYre8oefu5d3QbfsZmxW95Q8/dy7ug2/1S59rKFQciuHIrhyK4ciuHIrhyK4ciuHIrhyK4ciuHIrhyK4ciuHIrhyK4ciuHIrhyK4ciuHIrhyK4ciuHIrhyK4ciuHIrhyK4ciuHIrhyK4ciuHIrhyK4ciuHIrhyK4ciuHIrhyK4ciuHIrhyK4ciuHIrhyK4ciuHIrhyK4ciuHIrhyK4ciuHIrhyK4ciuHIrhyK4ciuHIrhyK4ciuHIrhyK4ciuHIrhyK4ciuHIrhyK4ciuHIrhyK4ciuHIrhyK4ciuHIrhyK4ciuHIrhyK4ciuHIrhyK4ciuHIrhyK4ciuHIrhyK4ciuHIrhyK4ciuHIrhyK4ciuHIrhyK4ciuHIrhyK4ciuHIrhyK4ciuHIrinmdWQTNit7yh5+7l3dBt/vMP/d+rovTJmxW95Q8/dy7ug2/2YkUE2OxppY00saaWNNLGmljTSxppY00saaWNNLGmljTSxppY00saaWNNLGmljTSxppY00saaWNNLGmljTSxppY00saaWNNLGmljTSxppY00saaWNNLGmljTSxppY00saaWNNLGmljTSxppY00saaWNNLGmljTSxppY00saaWNNLGmljTSxppY00saaWNNLGmljTSxppY00saaWNNLGmljTSxppY00saaWNNLGmljTSxppY00saaWNNLGmljTSxppY00saaWNNLGmljTSxppY00saaWNNLGmljTSxppY00saaWNNLGmljTSxppY00saaWNNLGmljTSxppY00saaWNNLImnCHhDwJmxW95Q8/dy7ug2/YzNit7yh5+7l3dBt+xmbFb3lDz93Lu6Db9jM2K3vKHn7uXd0G37GZsVveUPP3cu7oNv2MzYre8oefu5d3QbfsZmxW95Q8/dy7ug2/YzNit7yh5+7l3dBt+xmbFb3lDz93Lu6Db/J02Cnk5eimXopl6KZeimXopl6KZeimXopl6KZeimXopl6KZeimXopl6KZeimXopl6KZeimXopl6KZeimXopl6KZeimXopl6KZeimXopl6KZeimXopl6KZeimXopl6KZeimXopl6KZeimXopl6KZeimXopl6KZeimXopl6KZeimXopl6KZeimXopl6KZeimXopl6KZeimXopl6KZeimXopl6KZeimXopl6KZeimXopl6KZeimXopl6KZeimXopl6KZeimXopl6KZeimXopl6KZeimXopl6KZeimXopl6KZeimXopl6KZeimXopl6KZeimXopl6KZeimXopl6KZeimXopl6KZeimXopl6KZeimXopScxpddP/AJM2K3vKHn7uXd0G3+Lv/F+r5L//AEn8mbFb3lDz93Lu6Db/ACuptbRNnwGz4DZ8Bs+A2fAbPgNnwGz4DZ8Bs+A2fAbPgNnwGz4DZ8Bs+A2fAbPgNnwGz4DZ8Bs+A2fAbPgNnwGz4DZ8Bs+A2fAbPgNnwGz4DZ8Bs+A2fAbPgNnwGz4DZ8Bs+A2fAbPgNnwGz4DZ8Bs+A2fAbPgNnwGz4DZ8Bs+A2fAbPgNnwGz4DZ8Bs+A2fAbPgNnwGz4DZ8Bs+A2fAbPgNnwGz4DZ8Bs+A2fAbPgNnwGz4DZ8Bs+A2fAbPgNnwGz4DZ8Bs+A2fAbPgNnwGz4DZ8Bs+A2fAbPgNnwGz4DZ8Bs+A2fAbPgNnwGz4DZ8Bs+A2fAbPgNnwGz4DZ8Bs+A2fARuRuCSo/yZsVveUPP3cu7oNv2MzYre8oefu5d3QbfsZmxW95Q8/dy7ug2/YzNit7yh5+7l3dBt+xmbFb3lDz93Lu6Db9jM2K3vKHn7uXd0G37GZsVveUPP3cu7oNv2MzYre8oefu5d3QbfsZmxW95Q8/dy7ug2/YzNit7yh5+7l3dBt+xmbFb3lDz93Lu6Db9jM2K3vKHn7uXd0G37GZsVveUPP3cu7oNv2MzYre8oefu5d3Qbf5x4/wCcOvKOvKOvKOvKOvKOvKOvKOvKOvKOvKOvKOvKOvKOvKOvKOvKOvKOvKOvKOvKOvKOvKOvKOvKOvKOvKOvKOvKOvKOvKOvKOvKOvKOvKOvKOvKOvKOvKOvKOvKOvKOvKOvKOvKOvKOvKOvKOvKOvKOvKOvKOvKOvKOvKOvKOvKOvKOvKOvKOvKOvKOvKOvKOvKOvKOvKOvKOvKOvKOvKOvKOvKOvKOvKOvKOvKOvKOvKOvKOvKOvKOvKOvKOvKOvKOvKOvKOvKOvKOvKOvKOvKOvKOvKOvKOvKOvKOvKOvKOvKOvKOvKOvKOvKOvKOvKOvKOE2CLj/ACZsVveUPP3cu7oNv8Xf+L+4j9xH7iP3EfuI/cR+4j9xH7iP3EfuI/cR+4j9xH7iP3EfuI/cR+4j9xH7iP3EfuI/cR+4j9xH7iP3EfuI/cR+4j9xH7iP3EfuI/cR+4j9xH7iP3EfuI/cR+4j9xH7iP3EfuI/cR+4j9xH7iP3EfuI/cR+4j9xH7iP3EfuI/cR+4j9xH7iP3EfuI/cR+4j9xH7iP3EfuI/cR+4j9xH7iP3EfuI/cR+4j9xH7iP3EfuI/cR+4j9xH7iP3EfuI/cR+4j9xH7iP3EfuI/cR+4j9xH7iP3EfuI/cR+4j9xH7iP3EfuI5Mi45H/ACZsVveUPP3cu7oNv8VJEdUm4CsmArJgKyYCsmArJgKyYCsmArJgKyYCsmArJgKyYCsmArJgKyYCsmArJgKyYCsmArJgKyYCsmArJgKyYCsmArJgKyYCsmArJgKyYCsmArJgKyYCsmArJgKyYCsmArJgKyYCsmArJgKyYCsmArJgKyYCsmArJgKyYCsmArJgKyYCsmArJgKyYCsmArJgKyYCsmArJgKyYCsmArJgKyYCsmArJgKyYCsmArJgKyYCsmArJgKyYCsmArJgKyYCsmArJgKyYCsmArJgKyYCsmArJgKyYCsmArJgKyYCsmArJgKyYCsmArJgKyYCsmArJgKyYCsmArJgKyYCsmArJgKyYCsmArJgKyYCsmArJy5ygppqx/JmxW95Q8/dy7ug2/YzNit7yh5+7l3dBt+xmbFb3lDz93Lu6Db9jM2K3vKHn7uXd0G37GZsVveUPP3cu7oNv2MzYre8oefu5d3QbfsZmxW95Q8/dy7ug2/YzNit7yh5+7l3dBt+xmbFb3lDz93Lu6Db9jM2K3vKHn7uXd0G37GZsVveUPP3cu7oNv2MzYre8oefu5d3Qbf7GqUMuO7p5d08u6eXdPLunl3Ty7p5d08u6eXdPLunl3Ty7p5d08u6eXdPLunl3Ty7p5d08u6eXdPLunl3Ty7p5d08u6eXdPLunl3Ty7p5d08u6eXdPLunl3Ty7p5d08u6eXdPLunl3Ty7p5d08u6eXdPLunl3Ty7p5d08u6eXdPLunl3Ty7p5d08u6eXdPLunl3Ty7p5d08u6eXdPLunl3Ty7p5d08u6eXdPLunl3Ty7p5d08u6eXdPLunl3Ty7p5d08u6eXdPLunl3Ty7p5d08u6eXdPLunl3Ty7p5d08u6eXdPLunl3Ty7p5d08u6eXdPLunl3Ty7p5d08u6eXdPLunnDjwi4EzYre8oefu5d3Qbf7zD/3fq6L0yZsVveUPP3cu7oNv9U+Q62tUW4UBuFAbhQG4UBuFAbhQG4UBuFAbhQG4UBuFAbhQG4UBuFAbhQG4UBuFAbhQG4UBuFAbhQG4UBuFAbhQG4UBuFAbhQG4UBuFAbhQG4UBuFAbhQG4UBuFAbhQG4UBuFAbhQG4UBuFAbhQG4UBuFAbhQG4UBuFAbhQG4UBuFAbhQG4UBuFAbhQG4UBuFAbhQG4UBuFAbhQG4UBuFAbhQG4UBuFAbhQG4UBuFAbhQG4UBuFAbhQG4UBuFAbhQG4UBuFAbhQG4UBuFAbhQG4UBuFAbhQG4UBuFAbhQG4UBuFAbhQG4UBuFAbhQG4UBuFAbhQG4UBuFAbhQG4UBuFAbhQG4UBuFAbhQG4UBuVAp5fGVIJmxW95Q8/dy7ug2/YzNit7yh5+7l3dBt+xmbFb3lDz93Lu6Db9jM2K3vKHn7uXd0G37GZsVveUPP3cu7oNv2MzYre8oefu5d3QbfsZmxW95Q8/ck1WnKnm6fFwyisMorDKKwyisMorDKKwyisMorDKKwyisMorDKKwyisMorDKKwyisMorDKKwyisMorDKKwyisMorDKKwyisMorDKKwyisMorDKKwyisMorDKKwyisMorDKKwyisMorDKKwyisMorDKKwyisMorDKKwyisMorDKKwyisMorDKKwyisMorDKKwyisMorDKKwyisMorDKKwyisMorDKKwyisMorDKKwyisMorDKKwyisMorDKKwyisMorDKKwyisMorDKKwyisMorDKKwyisMorDKKwyisMorDKKwyisMorDKKwyisMorDKKwyisMorDKKwyisMorDKKwyisMorDKKwyisMorDKKwyisMorDKKwyisMorDKKwyisMorDjzPWceE6bFOmKHn7pc38FyhLlCXKEuUJcoS5QlyhLlCXKEuUJcoS5QlyhLlCXKEuUJcoS5QlyhLlCXKEuUJcoS5QlyhLlCXKEuUJcoS5QlyhLlCXKEuUJcoS5QlyhLlCXKEuUJcoS5QlyhLlCXKEuUJcoS5QlyhLlCXKEuUJcoS5QlyhLlCXKEuUJcoS5QlyhLlCXKEuUJcoS5QlyhLlCXKEuUJcoS5QlyhLlCXKEuUJcoS5QlyhLlCXKEuUJcoS5QlyhLlCXKEuUJcoS5QlyhLlCXKEuUJcoS5QlyhLlCXKEuUJcoS5QlyhLlCXKEuUJcoS5QlyhLlCXKEuUJcoS5QlyhLlCVM7rzP/Xf/8QAFBEBAAAAAAAAAAAAAAAAAAAAwP/aAAgBAwEBPwEbB//EABQRAQAAAAAAAAAAAAAAAAAAAMD/2gAIAQIBAT8BGwf/xABEEAABAQYDBAoABAUDAgUFAAAAAQIDBDSSkzIzNSBxodExQ2BygqKjpOHiEBESRAUTIXSxQVFzIrIUYWKAgSNAQpHS/9oACAEBAAY/Av8A35/rh4Z69Y/3ZYVT+sG/tqSj+2pKP7ako/tqSj+2pKP7ako/tqSj+2pKP7ako/tqSj+2pKP7ako/tqSj+2pKP7ako/tqSj+2pKP7ako/tqSj+2pKP7ako/tqSj+2pKP7ako/tqSj+2pKP7ako/tqSj+2pKP7ako/tqSj+2pKP7ako/tqSj+2pKP7ako/tqSj+2pKP7ako/tqSj+2pKP7ako/tqSj+2pKP7ako/tqSj+2pKP7ako/tqSj+2pKP7ako/tqSj+2pKP7ako/tqSj+2pKP7ako/tqSj+2pKP7ako/tqSj+2pKP7ako/tqSj+2pKP7ako/tqSj+2pKP7ako/tqSj+2pKP7ako/tqSj+2pKP7ako/tqSj+2pKP7ako/tqSj+2pKP7ako/tqSj+2pKP7ako/tqSj+2pKP7ako/tqSj+2pKP7ako/tqSj+2pKP7ako/tqSj+2pKP7ako/tqSj+2pKP7ako/tqSj+2pKP7ako/tqSj+2pKP7ako/tqSj+2pKP7ako/tqSj+2pKP7ako/tqSj+2pKP7ako/tqf9cO9Tewfk0n5LtsO//Up+aMmAwGAwGAwGAwGAwGAwGAwGAwGAwGAwGAwGAwGAwGAwGAwGAwGAwGAwGAwGAwGAwGAwGAwGAwGAwGAwGAwGAwGAwGAwGAwGAwGAwGAwGAwGAwGAwGAwGAwGAwGAwGAwGAwGAwGAwGAwGAwGAwGAwGAwGAwGAwGAwGAwGAwGAwGAwKKyrCoh/wBXTtuO+J2yUefra/M8O2474nbJR7vPDtuO+J2yUe7zw7bjvibEew7jolhhl+2iMsvmkRP6moxd9o1GLvtGoxd9o1GLvtGoxd9o1GLvtGoxd9o1GLvtGoxd9o1GLvtGoxd9o1GLvtGoxd9o1GLvtGoxd9o1GLvtGoxd9o1GLvtGoxd9o1GLvtGoxd9o1GLvtGoxd9ohmWo+KVFesoqK/a/37LKPd54dtx3xNiOeuYF627bftqyqf6p+Zp74098ae+NPfGnvjT3xp74098ae+NPfGnvjT3xp74098ae+NPfGnvjT3xp74098ae+NPfGnviGbbgHqMsvWVVf/AJ7LKPd54dtx3xO2Sj3eeHbcd8Ttko93nh23HfE2IuGdO4b9Dl80wz+phfz/AKLvMqEoa5mVCUNczKhKGuZlQlDXMyoShrmZUJQ1zMqEoa5mVCUNczKhKGuZlQlDXMyoShrmZUJQ1zMqEoa5mVCUNczKhKGuZlQlDXMyoShrmZUJQ1zMqEoa5mVCUNczKhKGuZlQlDXMyoShrmZUJQ1zMqEoa5mVCUNczKhKGuZlQlDXMyoShrmZUJQ1zMqEoa5mVCUNczKhKGuZlQlDXMyoShrmZUJQ1zMqEoa5mVCUNczKhKGuZlQlDXMyoShrmZUJQ1zMqEoa5mVCUNczKhKGuZlQlDXMyoShrmZUJQ1zMqEoa5mVCUNczKhKGuZlQlDXMyoShrmZUJQ1zMqEoa5mVCUNczKhKGuZlQlDXMyoShrmZUJQ1zMqEoa5mVCUNczKhKGuZlQlDXMyoShrmZUJQ1zMqEoa5mVCUNczKhKGuZlQlDXMyoShrmZUJQ1zMqEoa5mVCUNczKhKGuZlQlDXMyoShrmZUJQ1zMqEoa5mVCUNczKhKGuZlQlDXMyoShrmZUJQ1zMqEoa5mVCUNczKhKGuZlQlDXMyoShrmZUJQ1zMqEoa5mVCUNczKhKGuZlQlDXMyoShrmZUJQ1zMqEoa5mVCUNczKhKGuZlQlDXMyoShrmZUJQ1zMqEoa5mVCUNczKhKGuZlQlDXMyoShr/APodPGulphF/BR7vPDtuO+JsfxL+5b/z2sh/+Jn/AB+Cj3eeHbcd8TYVpuHdNNL0qrCEq4toSri2hKuLaEq4toSri2hKuLaEq4toSri2hKuLaEq4toSri2hKuLaEq4toSri2hKuLaEq4toSri2hKuLaEq4toSri2hKuLaEq4toSri2hKuLaEq4toSri2hKuLaEq4toSri2hKuLaEq4toSri2hKuLaEq4toSri2hKuLaEq4toSri2hKuLaEq4toSri2hKuLaEq4toSri2hKuLaEq4toSri2hKuLaEq4toSri2hKuLaEq4toSri2hKuLaEq4toSri2hKuLaEq4toSri2hKuLaEq4toSri2hKuLaEq4toSri2hKuLaEq4toSri2hKuLaEq4toSri2hKuLaEq4toSri2hKuLaEq4toSri2hKuLaEq4toSri2hKuLaEq4toSri2hKuLaEq4toSri2hKuLaEq4toSri2hKuLaEq4toSri2hKuLaEq4toSri2hKuLaEq4toSri2hKuLaEq4toSri2hKuLaEq4toSri2hKuLaEq4toSri2h/T8FHu88O2474nbJR7vPDtuO+J2yUe7zw7bjvidslHu88O2474nbJR7vPDtuO+JsRMN/4Flv+S8aY/V/N6fy/+DT2bvwaezd+DT2bvwaezd+DT2bvwaezd+DT2bvwaezd+DT2bvwaezd+DT2bvwaezd+DT2bvwaezd+DT2bvwaezd+DT2bvwaezd+DT2bvwaezd+DT2bvwaezd+DT2bvwaezd+DT2bvwaezd+DT2bvwaezd+DT2bvwaezd+DT2bvwaezd+DT2bvwaezd+DT2bvwaezd+DT2bvwaezd+DT2bvwaezd+DT2bvwaezd+DT2bvwaezd+DT2bvwaezd+DT2bvwaezd+DT2bvwaezd+DT2bvwaezd+DT2bvwaezd+DT2bvwaezd+DT2bvwaezd+DT2bvwaezd+DT2bvwaezd+DT2bvwaezd+DT2bvwaezd+DT2bvwaezd+DT2bvwaezd+DT2bvwaezd+DT2bvwaezd+DT2bvwaezd+DT2bvwaezd+DT2bvwaezd+DT2bvwaezd+DT2bvwaezd+DT2bvwaezd+DT2bvwaezd+DT2bvwaezd+DT2bvwaezd+DT2bvwaezd+DT2bvwaezd+DT2bvwaezd+DT2bvwaezd+DT2bvwaezd+DT2bvwaezd+DT2bvwaezd+DT2bvwO3n5fl+tlF/BR7vPDtuO+JsfxL+5b/AM9rIf8A4mf8fgo93nh23HfE2G3r6CdNvG1/U00v+qmnuTT3Jp7k09yae5NPcmnuTT3Jp7k09yae5NPcmnuTT3Jp7k09yae5NPcmnuTT3Jp7k09yae5NPcmnuTT3Jp7k09yae5NPcmnuTT3Jp7k09yae5NPcmnuTT3Jp7k09yae5NPcmnuTT3Jp7k09yae5NPcmnuTT3Jp7k09yae5NPcmnuTT3Jp7k09yae5NPcmnuTT3Jp7k09yae5NPcmnuTT3Jp7k09yae5NPcmnuTT3Jp7k09yae5NPcmnuTT3Jp7k09yae5NPcmnuTT3Jp7k09yae5NPcmnuTT3Jp7k09yae5NPcmnuTT3Jp7k09yae5NPcmnuTT3Jp7k09yae5EZZ/oif0T8FHu88O2474nbJR7vPDtuO+J2yUe7zw7bjvidslHu88O2474nbJR7vPDtuO+J2yUe7zw7bjvibEVDMQrhply9aYRV/P/RSUh+JKQ/ElIfiSkPxJSH4kpD8SUh+JKQ/ElIfiSkPxJSH4kpD8SUh+JKQ/ElIfiSkPxJSH4kpD8SUh+JKQ/ElIfiSkPxJSH4kpD8SUh+JKQ/ElIfiSkPxJSH4kpD8SUh+JKQ/ElIfiSkPxJSH4kpD8SUh+JKQ/ElIfiSkPxJSH4kpD8SUh+JKQ/ElIfiSkPxJSH4kpD8SUh+JKQ/ElIfiSkPxJSH4kpD8SUh+JKQ/ElIfiSkPxJSH4kpD8SUh+JKQ/ElIfiSkPxJSH4kpD8SUh+JKQ/ElIfiSkPxJSH4kpD8SUh+JKQ/ElIfiSkPxJSH4kpD8SUh+JKQ/ElIfiSkPxJSH4kpD8SUh+JKQ/ElIfiSkPxJSH4kpD8SUh+JKQ/ElIfiSkPxJSH4kpD8SUh+JKQ/ElIfiSkPxJSH4kpD8SUh+JKQ/ElIfiSkPxJOH4jp4vS2yi/go93nh23HfE2P4l/ct/wCe1kP/AMTP+PwUe7zw7bjvibDTb2DcNttL+atKx0khD20JCHtoSEPbQkIe2hIQ9tCQh7aEhD20JCHtoSEPbQkIe2hIQ9tCQh7aEhD20JCHtoSEPbQkIe2hIQ9tCQh7aEhD20JCHtoSEPbQkIe2hIQ9tCQh7aEhD20JCHtoSEPbQkIe2hIQ9tCQh7aEhD20JCHtoSEPbQkIe2hIQ9tCQh7aEhD20JCHtoSEPbQkIe2hIQ9tCQh7aEhD20JCHtoSEPbQkIe2hIQ9tCQh7aEhD20JCHtoSEPbQkIe2hIQ9tCQh7aEhD20JCHtoSEPbQkIe2hIQ9tCQh7aEhD20JCHtoSEPbQkIe2hIQ9tCQh7aEhD20JCHtoSEPbQkIe2hIQ9tCQh7aEhD20JCHtoSEPbQkIe2hIQ9tCQh7aEhD20JCHtoSEPbQkIe2hIQ9tCQh7aEhD20JCHtoSEPbQkIe2hIQ9tCQh7aEhD20JCHtoSEPbQkIe2hIQ9tCQh7aEhD20JCHtoSEPbQkIe2hIQ9tCQh7aEhD20JCHtoSEPbQkIe2hIQ9tBEZT8kT8FHu88O2474nbJR7vPDtuO+J2yUe7zw7bjvidslHu88O2474nbJR7vPDtuO+J2yUe7zw7bjvibH5NPWEXvGc7rQzndaGc7rQzndaGc7rQzndaGc7rQzndaGc7rQzndaGc7rQzndaGc7rQzndaGc7rQzndaGc7rQzndaGc7rQzndaGc7rQzndaGc7rQzndaGc7rQzndaGc7rQzndaGc7rQzndaGc7rQzndaGc7rQzndaGc7rQzndaGc7rQzndaGc7rQzndaGc7rQzndaGc7rQzndaGc7rQzndaGc7rQzndaGc7rQzndaGc7rQzndaGc7rQzndaGc7rQzndaGc7rQzndaGc7rQzndaGc7rQzndaGc7rQzndaGc7rQzndaGc7rQzndaGc7rQzndaGc7rQzndaGc7rQzndaGc7rQzndaGc7rQzndaGc7rQzndaGc7rQzndaGc7rQzndaGc7rQzndaGc7rQzndaGc7rQzndaGc7rQzndaGc7rQzndaGc7rQzndaGc7rQzndaGc7rQzndaGc7rQzndaGc7rQzndaGc7rQzndaGc7rT8VHu88O2474mx/Ev7lv/PayH/4mf8AH4KPd54dtx3xNiLiHX8n+W9etNs/m3/up1FZ1FZ1FZ1FZ1FZ1FZ1FZ1FZ1FZ1FZ1FZ1FZ1FZ1FZ1FZ1FZ1FZ1FZ1FZ1FZ1FZ1FZ1FZ1FZ1FZ1FZ1FZ1FZ1FZ1FZ1FZ1FZ1FZ1FZ1FZ1FZ1FZ1FZ1FZ1FZ1FZ1FZ1FZ1FZ1FZ1FZ1FZ1FZ1FZ1FZ1FZ1FZ1FZ1FZ1FZ1FZ1FZ1FZ1FZ1FZ1FZ1FZ1FZ1FZ1FZ1FZ1FZ1FZ1FZ1FZ1FZ1FZ1FZ1FZ1FZ1FZ1FZ1FZ1FZ1FZ1FZ1FZ1FZ1FZ1FZ1FZ1FZ1FZ1FZ1FZ1FZ1FZ1FZ1FZ1FZ1FZ1FZ1FZ1FZ1FZ1FZ1FZ1FZ1FZ1FZ1FZ1FY6Ya6WWERfwUe7zw7bjvidslHu88O2474nbJR7vPDtuO+J2yUe7zw7bjvidslHu88O2474nbJR7vPDtuO+J2yUe7zw7bjvibDxw/iv0vXbX6Wk/ltf0X/8AROek1yJz0muROek1yJz0muROek1yJz0muROek1yJz0muROek1yJz0muROek1yJz0muROek1yJz0muROek1yJz0muROek1yJz0muROek1yJz0muROek1yJz0muROek1yJz0muROek1yJz0muROek1yJz0muROek1yJz0muROek1yJz0muROek1yJz0muROek1yJz0muROek1yJz0muROek1yJz0muROek1yJz0muROek1yJz0muROek1yJz0muROek1yJz0muROek1yJz0muROek1yJz0muROek1yJz0muROek1yJz0muROek1yJz0muROek1yJz0muROek1yJz0muROek1yJz0muROek1yJz0muROek1yJz0muROek1yJz0muROek1yJz0muROek1yJz0muROek1yJz0muROek1yJz0muROek1yJz0muROek1yJz0muROek1yJz0muROek1yJz0muROek1yJz0muROek1yJz0muROek1yJz0muROek1yJz0muROek1yJz0muROek1yJz0muROek1yJz0muROek1yJz0muROek1yJz0muROek1yJz0muROek1yGW2MLSfmn4KPd54dtx3xNj+Jf3Lf+e1kP8A8TP+PwUe7zw7bjvibEREtRjxhXzxW1Z/R0fmT7ygn3lBPvKCfeUE+8oJ95QT7ygn3lBPvKCfeUE+8oJ95QT7ygn3lBPvKCfeUE+8oJ95QT7ygn3lBPvKCfeUE+8oJ95QT7ygn3lBPvKCfeUE+8oJ95QT7ygn3lBPvKCfeUE+8oJ95QT7ygn3lBPvKCfeUE+8oJ95QT7ygn3lBPvKCfeUE+8oJ95QT7ygn3lBPvKCfeUE+8oJ95QT7ygn3lBPvKCfeUE+8oJ95QT7ygn3lBPvKCfeUE+8oJ95QT7ygn3lBPvKCfeUE+8oJ95QT7ygn3lBPvKCfeUE+8oJ95QT7ygn3lBPvKCfeUE+8oJ95QT7ygn3lBPvKCfeUE+8oJ95QT7ygn3lBPvKCfeUE+8oJ95QT7ygn3lBPvKCfeUE+8oJ95QT7ygn3lBPvKCfeUE+8oHbvp/Qyifgo93nh23HfE7ZKPd54dtx3xO2Sj3eeHbcd8Ttko93nh23HfE7ZKPd54dtx3xO2Sj3eeHbcd8Ttko93nh23HfE7ZKPd54dtx3xO2Sj3eeHbcd8Ttko93nh23HfE7ZKPd54dtx3xO2Sj3eeHbcd8TY/Jp6wi94zndZnO6zOd1mc7rM53WZzuszndZnO6zOd1mc7rM53WZzuszndZnO6zOd1mc7rM53WZzuszndZnO6zOd1mc7rM53Wf0fO18XZZR7vPDtuO+JsfxL+5b/z/APcQn/Mz/nsso93nh23HfE2IuIdfyP5b1800z+bf+iqft7h+3uH7e4ft7h+3uH7e4ft7h+3uH7e4ft7h+3uH7e4ft7h+3uH7e4ft7h+3uH7e4ft7h+3uH7e4ft7h+3uDh63/ACP0sPGWl/8Aqf8An2WUe7zw7bjvidslHu88O2474nbJR7vPDtuO+J2yUe7zw7bjvidslHu88O2474nbJR7vPDtuO+J2yUe7zw7bjvidslHu88O2474mxFw7pmH/AEOnrTDP5sf7LvMMNbXmYYa2vMww1teZhhra8zDDW15mGGtrzMMNbXmYYa2vMww1teZhhra8zDDW15mGGtrzMMNbXmYYa2vMww1teZhhra8zDDW15mGGtrzMMNbXmYYa2vMww1teZhhra8zDDW15mGGtrzMMNbXmYYa2vMww1teZhhra8zDDW15mGGtrzMMNbXmYYa2vMww1teZhhra8zDDW15mGGtrzMMNbXmYYa2vMww1teZhhra8zDDW15mGGtrzMMNbXmYYa2vMww1teZhhra8zDDW15mGGtrzMMNbXmYYa2vMww1teZhhra8zDDW15mGGtrzMMNbXmYYa2vMww1teZhhra8zDDW15mGGtrzMMNbXmYYa2vMww1teZhhra8zDDW15mGGtrzMMNbXmYYa2vMww1teZhhra8zDDW15mGGtrzMMNbXmYYa2vMww1teZhhra8zDDW15mGGtrzMMNbXmYYa2vMww1teZhhra8zDDW15mGGtrzMMNbXmYYa2vMww1teZhhra8zDDW15mGGtrzMMNbXmYYa2vMww1teZhhra8zDDW15mGGtrzMMNbXmYYa2vMww1teZhhra8zDDW15mGGtrzMMNbXmYYa2vMww1teZhhra8zDDW15jptrpaYRfwUe7zw7bjvibH8S/uW/8APayH/wCJn/H4KPd54dtx3xNhVacu1Vf/AEmQ6oQyHVCGQ6oQyHVCGQ6oQyHVCGQ6oQyHVCGQ6oQyHVCGQ6oQyHVCGQ6oQyHVCGQ6oQyHVCGQ6oQyHVCGQ6oQyHVCGQ6oQyHVCGQ6oQyHVCGQ6oQyHVCGQ6oQyHVCGQ6oQyHVCGQ6oQyHVCGQ6oQyHVCGQ6oQyHVCGQ6oQyHVCGQ6oQyHVCGQ6oQyHVCGQ6oQyHVCGQ6oQyHVCGQ6oQyHVCGQ6oQyHVCGQ6oQyHVCGQ6oQyHVCGQ6oQyHVCGQ6oQyHVCGQ6oQyHVCGQ6oQyHVCGQ6oQyHVCGQ6oQyHVCGQ6oQyHVCGQ6oQyHVCGQ6oQyHVCGQ6oQyHVCGQ6oQyHVCGQ6oQyHVCGQ6oQyHVCGQ6oQyHVCGQ6oQyHVCGQ6oQyHVCGQ6oQyHVCGQ6oQyHVCGQ6oQyHVCGQ6oQyHVCGQ6oQyHVCGQ6oQyHVCGQ6oQyHVCGQ6oQyHVCGQ6oQyHVCGQ6oQyHVCGQ6oT8VHu88O2474nbJR7vPDtuO+J2yUe7zw7bjvidslHu88O2474nbJR7vPDtuO+J2yUe7zw7bjvidslHu88O2474nbJR7vPDtuO+J2yUe7zw7bjvibEe7dRz9hhl+2jLKN9H9TUIi4ahEXDUIi4ahEXDUIi4ahEXDUIi4ahEXDUIi4ahEXDUIi4ahEXDUIi4ahEXDUIi4ahEXDUIi4ahEXDUIi4ahEXDUIi4ahEXDUIi4QzLcfEKyr1lFT9f/n2WUe7zw7bjvibEe8dQEQ27bftqy0jtf6p+Zp0VaU06KtKadFWlNOirSmnRVpTToq0pp0VaU06KtKadFWlNOirSmnRVpTToq0pp0VaU06KtKadFWlNOirSmnRVpTToq0pp0VaU06KtKadFWlNOirSmnRVpSGab/h8SjLL1lVX+Wv8Av2WUe7zw7bjvidslHu88O2474nbJR7vPDtuO+J2yUe7zw7bjvidslHu88O2474nbJR7vPDtuO+J2yUe7zw7bjvidslHu88O2474nbJR7vPDtuO+J2yUe7zw7bjvidslHu88O2474nbJR7vPDtuO+J2yUe7zw7bjvidslHu88O2474mw8cv4pGXjtr9LSfpXpJ1KFJ1KFJ1KFJ1KFJ1KFJ1KFJ1KFJ1KFJ1KFJ1KFJ1KFJ1KFJ1KFJ1KFJ1KFJ1KFJ1KFJ1KFJ1KFJ1KFJ1KFJ1KFJ1KFJ1KFJ1KFJ1KFJ1KFJ1KFJ1KFJ1KFJ1KFJ1KFJ1KFJ1KFJ1KFJ1KFJ1KFJ1KFJ1KFJ1KFJ1KFJ1KFJ1KFJ1KFJ1KFJ1KFJ1KFJ1KFJ1KFJ1KFJ1KFJ1KFJ1KFJ1KFJ1KFJ1KFJ1KFJ1KFJ1KFJ1KFJ1KFJ1KFJ1KFJ1KFJ1KFJ1KFJ1KFJ1KFJ1KFJ1KFJ1KFJ1KFJ1KFJ1KFJ1KFJ1KFJ1KFJ1KFJ1KFJ1KFJ1KFJ1KFJ1KFJ1KFJ1KFJ1KFJ1KFJ1KFJ1KFJ1KFJ1KFJ1KFJ1KFJ1KFJ1KFJ1KFJ1KFJ1KFJ1KFJ1KFJ1KFJ1KFJ1KFJ1KFJ1KFJ1KFJxKVGWmf6stJ+afgo93nh23HfE2P4l/ct/57WQ//ABM/4/BR7vPDtuO+JsRESsa0wr54rf6f5fR+ZqDdo1Bu0ag3aNQbtGoN2jUG7RqDdo1Bu0ag3aNQbtGoN2jUG7RqDdo1Bu0ag3aNQbtGoN2jUG7RqDdo1Bu0ag3aNQbtGoN2jUG7RqDdo1Bu0ag3aNQbtGoN2jUG7RqDdo1Bu0ag3aNQbtGoN2jUG7RqDdo1Bu0ag3aNQbtGoN2jUG7RqDdo1Bu0ag3aNQbtGoN2jUG7RqDdo1Bu0ag3aNQbtGoN2jUG7RqDdo1Bu0ag3aNQbtGoN2jUG7RqDdo1Bu0ag3aNQbtGoN2jUG7RqDdo1Bu0ag3aNQbtGoN2jUG7RqDdo1Bu0ag3aNQbtGoN2jUG7RqDdo1Bu0ag3aNQbtGoN2jUG7RqDdo1Bu0ag3aNQbtGoN2jUG7RqDdo1Bu0ag3aNQbtGoN2jUG7RqDdo1Bu0ag3aNQbtGoN2jUG7RqDdo1Bu0ag3aNQbtGoN2h27/P8/wBDKJ+Cj3eeHbcd8Ttko93nh23HfE7ZKPd54dtx3xO2Sj3eeHbcd8Ttko93nh23HfE7ZKPd54dtx3xO2Sj3eeHbcd8Ttko93nh23HfE2IqGYhnDTLl60wir+f8AopKQ3mJSG8xKQ3mJSG8xKQ3mJSG8xKQ3mJSG8xKQ3mJSG8xKQ3mJSG8xKQ3mJSG8xKQ3mJSG8xKQ3mJSG8xKQ3mJSG8xKQ3mJSG8xKQ3mJSG8xKQ3mJSG8xKQ3mJSG8xKQ3mJSG8xKQ3mJSG8xKQ3mJSG8xKQ3mJSG8xKQ3mJSG8xKQ3mJSG8xKQ3mJSG8xKQ3mJSG8xKQ3mJSG8xKQ3mJSG8xKQ3mJSG8xKQ3mJSG8xKQ3mJSG8xKQ3mJSG8xKQ3mJSG8xKQ3mJSG8xKQ3mJSG8xKQ3mJSG8xKQ3mJSG8xKQ3mJSG8xKQ3mJSG8xKQ3mJSG8xKQ3mJSG8xKQ3mJSG8xKQ3mJSG8xKQ3mJSG8xKQ3mJSG8xKQ3mJSG8xKQ3mJSG8xKQ3mJSG8xKQ3mJSG8xKQ3mJSG8xKQ3mJSG8xKQ3mJSG8xKQ3mJSG8xKQ3mJSG8xKQ3mJSG8xKQ3mJSG8xKQ3mJSG8xKQ3mHTxeltlF/BR7vPDtuO+JsfxL+5b/z2sh/+Jn/AB+Cj3eeHbcd8TYabewbhttpfzVVdov5khDWkJCGtISENaQkIa0hIQ1pCQhrSEhDWkJCGtISENaQkIa0hIQ1pCQhrSEhDWkJCGtISENaQkIa0hIQ1pCQhrSEhDWkJCGtISENaQkIa0hIQ1pCQhrSEhDWkJCGtISENaQkIa0hIQ1pCQhrSEhDWkJCGtISENaQkIa0hIQ1pCQhrSEhDWkJCGtISENaQkIa0hIQ1pCQhrSEhDWkJCGtISENaQkIa0hIQ1pCQhrSEhDWkJCGtISENaQkIa0hIQ1pCQhrSEhDWkJCGtISENaQkIa0hIQ1pCQhrSEhDWkJCGtISENaQkIa0hIQ1pCQhrSEhDWkJCGtISENaQkIa0hIQ1pCQhrSEhDWkJCGtISENaQkIa0hIQ1pCQhrSEhDWkJCGtISENaQkIa0hIQ1pCQhrSEhDWkJCGtISENaQkIa0hIQ1pCQhrSEhDWkJCGtISENaQkIa0hIQ1pCQhrSEhDWkJCGtISENaQkIa0hIQ1pCQhrSEhDWkJCGtISENaQkIa0hIQ1pBEZ/oifgo93nh23HfE7ZKPd54dtx3xO2Sj3eeHbcd8Ttko93nh23HfE7ZKPd54dtx3xO2Sj3eeHbcd8Ttko93nh23HfE7ZKPd54dtx3xO2Sj3eeHbcd8T8W3r1f0u3bP6ml/wBkJ9ilon2KWifYpaJ9ilon2KWifYpaJ9ilon2KWifYpaJ9ilon2KWifYpaJ9ilon2KWifYpaJ9ilon2KWifYpaJ9ilon2KWifYpaJ9ilon2KWifYpaJ9ilon2KWifYpaJ9ilon2KWifYpaJ9ilon2KWifYpaJ9ilon2KWifYpaJ9ilon2KWifYpaJ9ilon2KWifYpaJ9ilon2KWifYpaJ9ilon2KWifYpaJ9ilon2KWifYpaJ9ilon2KWifYpaJ9ilon2KWifYpaJ9ilon2KWifYpaJ9ilon2KWifYpaJ9ilon2KWifYpaJ9ilon2KWifYpaJ9ilon2KWifYpaJ9ilon2KWifYpaJ9ilon2KWifYpaJ9ilon2KWifYpaJ9ilon2KWifYpaJ9ilon2KWifYpaJ9ilon2KWifYpaJ9ilon2KWifYpaJ9ilon2KWifYpaJ9ilon2KWifYpaJ9ilon2KWifYpaJ9ilon2KWifYpaJ9ilon2KWhlxCxbL1610Moi/io93nh23HfE/H+I/2zz/t7WQXi/wC1fxUe7zw7bjvifjEQ/wCr9H8520x+r8uj80NT9v8AY1P2/wBjU/b/AGNT9v8AY1P2/wBjU/b/AGNT9v8AY1P2/wBjU/b/AGNT9v8AY1P2/wBjU/b/AGNT9v8AY1P2/wBjU/b/AGNT9v8AY1P2/wBjU/b/AGNT9v8AY1P2/wBjU/b/AGNT9v8AY1P2/wBjU/b/AGNT9v8AY1P2/wBjU/b/AGNT9v8AY1P2/wBjU/b/AGNT9v8AY1P2/wBjU/b/AGNT9v8AY1P2/wBjU/b/AGNT9v8AY1P2/wBjU/b/AGNT9v8AY1P2/wBjU/b/AGNT9v8AY1P2/wBjU/b/AGNT9v8AY1P2/wBjU/b/AGNT9v8AY1P2/wBjU/b/AGNT9v8AY1P2/wBjU/b/AGNT9v8AY1P2/wBjU/b/AGNT9v8AY1P2/wBjU/b/AGNT9v8AY1P2/wBjU/b/AGNT9v8AY1P2/wBjU/b/AGNT9v8AY1P2/wBjU/b/AGNT9v8AY1P2/wBjU/b/AGNT9v8AY1P2/wBjU/b/AGNT9v8AY1P2/wBjU/b/AGNT9v8AY1P2/wBjU/b/AGNT9v8AY1P2/wBjU/b/AGNT9v8AY1P2/wBjU/b/AGNT9v8AY1P2/wBjU/b/AGNT9v8AY1P2/wBjU/b/AGNT9v8AY1P2/wBjU/b/AGNT9v8AY1P2/wBjU/b/AGNT9v8AY1P2/wBjU/b/AGNT9v8AY1P2/wBjU/b/AGNT9v8AY1P2/wBhzGf+O/m/y/z/AOn+T+X5/wBN/wCKj3eeHbcd8Ttko93nh23HfE7ZKPd54dtx3xO2Sj3eeHbcd8Ttko93nh23HfE7ZKPd54dtx3xO2Sj3eeHbcd8Ttko93nh23HfE7ZKPd54dtx3xO2Sj3eeHbcd8Ttko93nh23HfE7ZKPd54dtx3xO2Sj3eeHbcd8Ttko93nh23HfE/H+pmMVGYxUZjFRmMVGYxUZjFRmMVGYxUZjFRmMVGYxUZjFRmMVGYxUZjFRmMVGYxUZjFRmMVGYxUZjFRmMVGYxUZjFRmMVGYxUZjFRmMVGYxUZjFRmMVGYxUZjFRmMVGYxUZjFRmMVGYxUZjFRmMVGYxUZjFRmMVGYxUZjFRmMVGYxUZjFRmMVGYxUZjFRmMVGYxUZjFRmMVGYxUZjFRmMVGYxUZjFRmMVGYxUZjFRmMVGYxUZjFRmMVGYxUZjFRmMVGYxUZjFRmMVGYxUZjFRmMVGYxUZjFRmMVGYxUZjFRmMVGYxUZjFRmMVGYxUZjFRmMVGYxUZjFRmMVGYxUZjFRmMVGYxUZjFRmMVGYxUZjFRmMVGYxUZjFRmMVGYxUZjFRmMVGYxUfky2yq7/xUe7zw7bjvifj/ABH+2ef9piUxKYlMSmJTEpiUxKYlMSmJTEpiUxKYlMSmJTEpiUxKYlMSmJTEpiUxKYlMSmJTEpiUxKYlMSmJTEpiUxKYlMSmJTEpiUxKYlMSmJTEpiUxKYlMSmJTEpiUxKYlMSmJTEpiUxKYlMSmJTEpiUxKYlMSmJTEpiUxKYlMSmJTEpiUxKYlMSmJTEpiUxKYlMSmJTEpiUxKYlMSmJTEpiUxKYlMSmJTEpiUxKYlMSmJSD/NV/8Ay/7V/FR7vPDtuO+J+MY4dZj1y2wzvVDA5uGBzcMDm4YHNwwObhgc3DA5uGBzcMDm4YHNwwObhgc3DA5uGBzcMDm4YHNwwObhgc3DA5uGBzcMDm4YHNwwObhgc3DA5uGBzcMDm4YHNwwObhgc3DA5uGBzcMDm4YHNwwObhgc3DA5uGBzcMDm4YHNwwObhgc3DA5uGBzcMDm4YHNwwObhgc3DA5uGBzcMDm4YHNwwObhgc3DA5uGBzcMDm4YHNwwObhgc3DA5uGBzcMDm4YHNwwObhgc3DA5uGBzcMDm4YHNwwObhgc3DA5uGBzcMDm4YHNwwObhgc3DA5uGBzcMDm4YHNwwObhgc3DA5uGBzcMDm4YHNwwObhgc3DA5uGBzcMDm4YHNwwObhgc3DA5uGBzcMDm4YHNwwObhgc3DA5uGBzcMDm4YHNwwObhDRUUy7R0x+f5/k3+f8Ap+Kj3eeHbcd8Ttko93nh23HfE7ZKPd54dtx3xO2Sj3eeHbcd8Ttko93nh23HfE7ZKPd54dtx3xO2Sj3eeHbcd8Ttko93nh23HfE7ZKPd54dtx3xO2Sj3eeHbcd8Ttko93nh23HfE7ZKPd54dtx3xNhWXkY4ZaZX8lRXqJ+RPQ15knoa8yT0NeZJ6GvMk9DXmSehrzJPQ15knoa8yT0NeZJ6GvMk9DXmSehrzJPQ15knoa8yT0NeZJ6GvMk9DXmSehrzJPQ15knoa8yT0NeZJ6GvMk9DXmSehrzJPQ15knoa8yT0NeZJ6GvMk9DXmSehrzJPQ15knoa8yT0NeZJ6GvMk9DXmSehrzJPQ15knoa8yT0NeZJ6GvMk9DXmSehrzJPQ15knoa8yT0NeZJ6GvMk9DXmSehrzJPQ15knoa8yT0NeZJ6GvMk9DXmSehrzJPQ15knoa8yT0NeZJ6GvMk9DXmSehrzJPQ15knoa8yT0NeZJ6GvMk9DXmSehrzJPQ15knoa8yT0NeZJ6GvMk9DXmSehrzJPQ15knoa8yT0NeZJ6GvMk9DXmSehrzJPQ15knoa8yT0NeZJ6GvMk9DXmSehrzJPQ15knoa8yT0NeZJ6GvMk9DXmSehrzJPQ15knoa8yT0NeZJ6GvMk9DXmSehrzJPQ15knoa8yT0NeZJ6GvMk9DXmSehrzJPQ15knoa8yT0NeZJ6GvMk9DXmT80/qi/go93nh23HfE2P4l/ct/wCe1kP/AMTP+PwUe7zw7bjvibEVEu37hll69abRF/P/AFUmYfiTMPxJmH4kzD8SZh+JMw/EmYfiTMPxJmH4kzD8SZh+JMw/EmYfiTMPxJmH4kzD8SZh+JMw/EmYfiTMPxJmH4kzD8SZh+JMw/EmYfiTMPxJmH4kzD8SZh+JMw/EmYfiTMPxJmH4kzD8SZh+JMw/EmYfiTMPxJmH4kzD8SZh+JMw/EmYfiTMPxJmH4kzD8SZh+JMw/EmYfiTMPxJmH4kzD8SZh+JMw/EmYfiTMPxJmH4kzD8SZh+JMw/EmYfiTMPxJmH4kzD8SZh+JMw/EmYfiTMPxJmH4kzD8SZh+JMw/EmYfiTMPxJmH4kzD8SZh+JMw/EmYfiTMPxJmH4kzD8SZh+JMw/EmYfiTMPxJmH4kzD8SZh+JMw/EmYfiTMPxJmH4kzD8SZh+JMw/EmYfiTMPxJmH4kzD8SZh+JMw/EmYfiTMPxJmH4kzD8SZh+I6dr0sson4KPd54dtx3xO2Sj3eeHbcd8Ttko93nh23HfE7ZKPd54dtx3xO2Sj3eeHbcd8Ttko93nh23HfE7ZND3eeHbdL/s0Iy4RGUOk6TpOk6TpOk6TpOk6TpOk6TpOk6TpOk6TpOk6TpOk6TpOk6TpOk6TpOk6TpOk6TpOk6TpOk6TpOk6TpOk6TpOk6TpOk6TpOk6TpOk6TpOk6TpOk6TpOk6TpOk6TpOk6TpOk6TpOk6TpOk6TpOk6TpOk6TpOk6TpOk6TpOk6TpOk6TpOk6TpOk6TpOk6TpFbb6VPDtoYFMCmBTApgUwKYFMCmBTApgUwKYFMCmBTApgUwKYFMCmBTApgUwKYFMCmBTApgUwKYFMCmBTApgUwKYFMCmBTApgUwKYFMCmBTApgUwKYFMCmBTApgUwKYFMCmBTApgUwKYFMCmBTApgUwKYFMCmBTApgUwKYFMCmBTApgUwKYFMCmBTApgUwKYFMCmBTApgUwKYFMCmBTApgUwKYFMCmBTApgUwKYFMCmBTApgUwKYFMCmBTApgUwKYFMCn6kT8v6f+3j/xAAqEAABAwMDBQEBAQACAwAAAAAAAfDxYcHREZGhECAxYHFRIUFAgIGx4f/aAAgBAQABPyH/AL56/tVUROboeBLvwdFh0WHRYdFh0WHRYdFh0WHRYdFh0WHRYdFh0WHRYdFh0WHRYdFh0WHRYdFh0WHRYdFh0WHRYdFh0WHRYdFh0WHRYdFh0WHRYdFh0WHRYdFh0WHRYdFh0WHRYdFh0WHRYdFh0WHRYdFh0WHRYdFh0WHRYdFh0WHRYdFh0WHRYdFh0WHRYdFh0WHRYdFh0WHRYdFh0WHRYdFh0WHRYdFh0WHRYdFh0WHRYdFh0WHRYdFh0WHRYdFh0WHRYdFh0WHRYdFh0WHRYdFh0WHRYdFh0WHRYdFh0WHRYdFh0WHRYdFh0WHxY/uItQ1Yqyd+tfldNP8AyJBT/aFZsVmxWbFZsVmxWbFZsVmxWbFZsVmxWbFZsVmxWbFZsVmxWbFZsVmxWbFZsVmxWbFZsVmxWbFZsVmxWbFZsVmxWbFZsVmxWbFZsVmxWbFZsVmxWbFZsVmxWbFZsVmxWbFZsVmxWbFZsVmxWbFZsVmxWbFZsVmxWbFZsVmxWbFZsVmxWbFZsVmxWbFZsVmxWbFZsVmxWbFZsVmxWbFZsVmxWbFZsVmxWbFZsVmxWbFZsVmxWbFZsVmxWbFZsVmxWbFZsVmxWbFZsVmxWbFZsVmxWbFZsVmxWbFZsVmxWbFZsVmxorB/hyRRdHemCLp/9HDNDQ0NDQ0NDQ0NDQ0NDQ0NDQ0NDQ0NDQ0NDQ0NDQ0NDQ0NDQ0NDQ0NDQ0NDQ0NDQ0NDQ0NDQ0NDQ0NDQ0NDQ0NDQ0NDQ0NDQ0NDQ0NDQ0NDQ0NDQ0NDQ0NDQ0NDQ0NDQ0NDQ0NDQ0NDQ0NDQ0NDQ0NDQXrE8ohqraFXTU8fxfvcVOGnuXBXoHj+L97ipw09y4K9A8fxfvcVOGnYkL6SCL/AIiIv8GNcY1xjXGNcY1xjXGNcY1xjXGNcY1xjXGNcY1xjXGNcY1xjXGNcY1xjXGNcY1xe36Aippr6twV6B4/i/e4qcNOxGcNyaKL0UgkyQSZIJMkEmSCTJBJkgkyQSZIJMkEmSCTJBJkgkyQSZIJMkEmSCTJBJkgkyQSZIJMkEmSCTIqy4SJ/ERCr/vq3BXoHj+L97ipw09y4K9A8fxfvcVOGnuXBXoHj+L97ipw07FQdZFOhRE109srVq1atWrVq1atWrVq1atWrVq1atWrVq1atWrVq1atWrVq1atWrVq1atWrVq1atWrVq1atWrVq1atWrVq1atWrVq1atWrVq1atWrVq1atWrVq1atWrVq1atWrVq1as0lNd6fqoi9OCvQPH8X73FThp2MP79rQffx04K9A8fxfvcVOGnYrBjVRKq/dBh2GHYYdhh2GHYYdhh2GHYYdhh2GHYYdhh2GHYYdhh2GHYYdhh2GHYYdhh2GHYYdhh2GHYYdhh2GHYYdhh2GHYYdhh2GHYYdhh2GHYYdhh2GHYYdhh2GHYYdhh2GHYYdhh2GHYYdhh2GHYYdhh2GHYYdhh2GHYYdhh2GHYYdhh2GHYYdhh2GHYYdhh2GHYYdhh2GHYYdhh2GHYYdhh2GHYYdhh2GHYYdhh2GHYYdhh2GHYYdhh2GHYYdhh2GHYYdhh2GHYYdhh2GHYYdhh2GHYYdhh2GHYQSRGiJ46cFegeP4v3uKnDT3Lgr0Dx/F+9xU4ae5cFegeP4v3uKnDT3Lgr0Dx/F+9xU4ae5cFegeP4v3uKnDTsTCk1UpP6aa6CXiXiXiXiXiXiXiXiXiXiXiXiXiXiXiXiXiXiXiXiXiXiXiXiXiXiXiXiXiXiXiXiXiXiXiXiXiXiXiXiXiXiXiXiXiXiXiXiXiXiXiXiXiXiXiXiXiXiXiXiXiXiXiXiXiXiXiXiXiXiXiXiXiXiXiXiXiXiXiXiXiXiXiXiXiXiXiXiXiXiXiXiXiXiXiXiXiXiXiXiXiXiXiXiXiXiWjXfwL+apr04K9A8fxfvcVOGnYw/v2tB8/HTgr0Dx/F+9xU4adiqM6Iuqi/wBXyQS5IJckEuSCXJBLkglyQS5IJckEuSCXJBLkglyQS5IJckEuSCXJBLkglyQS5IJckEuSCXJBLkglyQS5IJckEuSCXJBLkglyQS5IJckEuSCXJBLkglyQS5IJckEuSCXJBLkglyQS5IJckEuSCXJBLkglyQS5IJckEuSCXJBLkglyQS5IJckEuSCXJBLkglyQS5IJckEuSCXJBLkglyQS5IJckEuSCXJBLkglyQS5IJckEuSCXJBLkglyQS5IJckEuSCXJBLkglyQS5IJckEuSCXJBLkglyQS5IJckEuSCXJBLkglyQS5IJckEuSCXJBLkglyQS5IJckEuSCXJBLkT1RGiH4nTgr0Dx/F+9xU4ae5cFegeP4v3uKnDT3Lgr0Dx/F+9xU4ae5cFegeP4v3uKnDT3Lgr0Dx/F+9xU4ae5cFegeP4v3uKnDTsVdIHrVFE/v9oSeZJ5knmSeZJ5knmSeZJ5knmSeZJ5knmSeZJ5knmSeZJ5knmSeZJ5knmSeZJ5knmSeZJ5knmSeZJ5knmSeZJ5knmSeZJ5knmSeZJ5knmSeZJ5knmSeZJ5knmSeZJ5knmSeZJ5knmSeZJ5knmSeZJ5knmSeZJ5knmSeZJ5knmSeZJ5knmSeZJ5knmSeZJ5knmSeZJ5knmSeZJ5knmSeZJ5knmSeZJ5knmSeZJ5knmSeZJ5knmSeZJ5knmSeZJ5knmSeZJ5knmSeZJ5knmSeZJ5knmSeZOZiiZRFKif5qmvTgr0Dx/F+9xU4adjD+/a0Hz8dOCvQPH8X73FThp2LNQItVUvlVX2z77777777777777777777777777777777777777777777777777777777777777777777777777777777777777777777777777777777775JoiREROnBXoHj+L97ipw09y4K9A8fxfvcVOGnuXBXoHj+L97ipw09y4K9A8fxfvcVOGnuXBXoHj+L97ipw09y4K9A8fxfvcVOGnYskv/ioqUVPbHHHHHHHHHHHHHHHHHHHHHHHHHHHHHHHHHHHHHHHHHHHHHHHHHHHHHHHHHHHHHHHHHHHHHHHHHHHHHHHHHHHHHHHHHHHHHHHHHHHHHHHHHHHEQjVP6i9OCvQPH8X73FThp2MP79sfPx04K9A8fxfvcVOGnYpv4sC6an9TQr7+Cvv4K+/gr7+Cvv4K+/gr7+Cvv4K+/gr7+Cvv4K+/gr7+Cvv4K+/gr7+Cvv4K+/gr7+Cvv4K+/gr7+Cvv4K+/gr7+Cvv4K+/gr7+Cvv4K+/gr7+Cvv4K+/gr7+Cvv4K+/gr7+Cvv4K+/gr7+Cvv4K+/gr7+Cvv4K+/gr7+Cvv4K+/gr7+Cvv4K+/gr7+Cvv4K+/gr7+Cvv4K+/gr7+Cvv4K+/gr7+Cvv4K+/gr7+Cvv4K+/gr7+Cvv4K+/gr7+Cvv4K+/gr7+Cvv4K+/gr7+Cvv4K+/gr7+Cvv4K+/gr7+Cvv4K+/gr7+Cvv4K+/gr7+Cvv4K+/gr7+Cvv4K+/gr7+Cvv4K+/gr7+Cvv4K+/gr7+Cvv4K+/gr7+Cvv4K+/gr7+Cvv4NE7+bfqJp04K9A8fxfvcVOGnuXBXoHj+L97ipw09y4K9A8fxfvcVOGnuXBXoHj+L97ipw09y4K9A8fxfvcVOGnuXBXoHj+L97ipw09y4K9A8fxfvcVOGnYtDWtfaC/3+oK0VaKtFWirRVoq0VaKtFWirRVoq0VaKtFWirRVoq0VaKtFWirRVoq0VaKtFWirRVoq0VaKtFWirRVoq0VaKtFWirRVoq0VaKtFWirRVoq0VaKtFWirRVoq0VaKtFWirRVoq0VaKtFWirRVoq0VaKtFWirRVoq0VaKtFWirRVoq0VaKtFWirRVoq0VaKtFWirRVoq0VaKtFWirRVoq0VaKtFWirRVoq0VaKtFWirRLwaoFv1F6cFegeP4v3uKnDTsYf37Wg+fjpwV6B4/i/e4qcNOxJKDEKilKumupA8kDyQPJA8kDyQPJA8kDyQPJA8kDyQPJA8kDyQPJA8kDyQPJA8kDyQPJA8kDyQPJA8kDyQPJA8kDyQPJA8kDyQPJA8kDyQPJA8kDyQPJA8kDyQPJA8kDyQPJA8kDyQPJA8kDyQPJA8kDyQPJA8kDyQPJA8kDyQPJA8kDyQPJA8kDyQPJA8kDyQPJA8kDyQPJA8kDyQPJA8kDyQPJA8kDyQPJA8kDyQPJA8kDyQPJA8kDyQPJA8kDyQPJA8kDyQPJA8kDyQPJA8kDyQPJA8kDyQPJA8kDyIJC6NR/dE06cFegeP4v3uKnDT3Lgr0Dx/F+9xU4ae5cFegeP4v3uKnDT3Lgr0Dx/F+9xU4ae5cFegeP4v3uKnDT3Lgr0Dx/F+9xU4ae5cFegeP4v3uKnDT3Lgr0Dx/F+9xU4ae5cFegeP4v3uKnDT3Lgr0Dx/F+9xU4ae5cFegeP4v3uKnDT3Lgr0Dx/F+9xU4adiiS7+KipRUI8R4jxHiPEeI8R4jxHiPEeI8R4jxHiPEeI8R4jxHiPCKERQ/xET6twV6B4/i/e4qcNOxZNBZZq/V3NX6u5q/V3NX6u5q/V3NX6u5q/V3NX6u5q/V3NX6u5q/V3NX6u5q/V3NX6u5q/V3NX6u5q/V3NX6u5q/V3NX6u5q/V3NX6u5q/V3FvND9W4K9A8fxfvcVOGnZ/guWV/o/qaDSsDSsDSsDSsDSsDSsDSsDSsDSsDSsDSsDSsDSsDSsDSsDSsDSsDSsDSsDSsDSsDSsDSsHj9IK8Ihfz1bgr0Dx/F+9xU4ae5cFegeP4v3uKnDT3Lgr0Dx/F+9xU4ae5cFegeP4v3uKnDT3Lgr0Dx/F+9xU4ae5cFegeP4v3uKnDT3Lgr0Dx/F+9xU4ae5cFegeP4v3uKnDTsXPF4XVdND++2PHjx48ePHjx48ePHjx48ePHjx48ePHjx48ePHjx48ePHjx48ePHjx48ePHjx48ePHjx48ePHjx48ePHjx48ePHjx48ePHjx48ePHjx48ePHjx48ePHjx48ePHjx48aL2u9P1U16cFegeP4v3uKnDTsYf37Wg+fjpwV6B4/i/e4qcNOxcrWqqqVVV++2NNNNNNNNNNNNNNNNNNNNNNNNNNNNNNNNNNNNNNNNNNNNNNNNNNNNNNNNNNNNNNNNNNNNNNNNNNNNNNNNNNNNNNNNNNNNNNNNNNNNNNNNNNNIiI0RNE6cFegeP4v3uKnDT3Lgr0Dx/F+9xU4ae5cFegeP4v3uKnDT3Lgr0Dx/F+9xU4ae5cFegeP4v3uKnDT3Lgr0Dx/F+9xU4ae5cFegeP4v3uKnDT3Lgr0Dx/F+9xU4ae5cFegeP4v3uKnDTsXbHTREIvREQkRIiREiJESIkRIiREiJESIkRIiREiJESIkRIiREiJEKDFQv+oqfVuCvQPH8X73FThp2LJkpkUXouun/I44444444444444444444444X+IjSRETr/nq3BXoHj+L97ipw09y4K9A8fxfvcVOGnuXBXoHj+L97ipw09y4K9A8fxfvcVOGnuXBXoHj+L97ipw09y4K9A8fxfvcVOGnuXBXoHj+L97ipw09y4K9A8fxfvcVOGnuXBXoHj+L97ipw09y4K9A8fxfvcVOGnuXBXoHj+L97ipw09y4K9A8fxfvcVOGnuXBXoHj+L97ipw09y4K9A8fxfvcVOGnYslYpU0Quip4HrYeth62HrYeth62HrYeth62HrYeth62HrYeth62HrYeth62HrYeth62HrYeth62HrYeth62HrYeth62HrYeth62HrYeth62HrYeth62HrYeth62HrYeth62HrYeth62HrYeth62HrYeth62HrYeth62HrYeth62HrYeth62HrYeth62HrYeth62HrYeth62HrYeth62HrYeth62HrYeth62HrYeth62HrYeth62HrYeth62HrYeth62HrYeth62HrYeth62HrYeth62HrYeth62HrYddhSPQFKL04K9A8fxfvcVOGnYw/v2tB8/HTgr0Dx/F+9xU4adi42WhC6la6a61IhkiGSIZIhkiGSIZIhkiGSIZIhkiGSIZIhkiGSIZIhkiGSIZIhkiGSIZIhkiGSIZIhkiGSIZIhkiGSIZIhkiGSIZIhkiGSIZIhkiGSIZIhkiGSIZIhkiGSIZIhkiGSIZIhkiGSIZIhkiGSIZIhkiGSIZIhkiGSIZIhkiGSIZIhkiGSIZIhkiGSIZIhkiGSIZIhkiGSIZIhkiGSIZIhkiGSIZIhkiGSIZIhkiGSIZIhkiGSIZIhkiGSIZIhkiGSIZIhkiGSIZIhkiGSIZIhkiGSIZIhkiGT9gB/dE06cFegeP4v3uKnDT3Lgr0Dx/F+9xU4ae5cFegeP4v3uKnDT3Lgr0Dx/F+9xU4ae5cFegeP4v3uKnDT3Lgr0Dx/F+9xU4ae5cFegeP4v3uKnDT3Lgr0Dx/F+9xU4adn97dB1TQ/ui0HmQ8yHmQ8yHmQ8yHmQ8yHmQ8yHmQ8yHmQ8yHmQ8yHmQ8yHmQ8yHmQ8yHmQ8yHmQ8yHmQ8yHmQ8yHmQ8yHmQ8yHmQ8yHmQ8yHmQ8yHmQ8yHmQ8yHmQ8yHmQ8yHmQ8yHmQ8yHmQ8yHmQ8yHmQ8yHmQ8yHmQ8yHmQ8yHmQ8yHmQ8yHmQ8yHmQ8yHmQ8yHmQ8yHmQ8yHmQ8yHmQ8yHmQ8yHmQ8yHmQ8yHmQ8yHmQ8yHmQ8yHmQ8yHmQ8yHmQ8yHmQ8yHmQ8yHmQ8yGmQomURSon+apr04K9A8fxfvcVOGnYw/v2tB8/HTgr0Dx/F+9xU4aditWi+FL5VVGjYaNho2GjYaNho2GjYaNho2GjYaNho2GjYaNho2GjYaNho2GjYaNho2GjYaNho2GjYaNho2GjYaNho2GjYaNho2GjYaNho2GjYaNho2GjYaNho2GjYaNho2GjYaNho2GjYaNho2GjYaNho2GjYaNho2GjYaNho2GjYaNho2GjYaNho2GjYaNho2GjYaNho2GjYaNho2GjYaNho2GjYaNho2GjYaNho2GjYaNho2GjYaNho2GjYaNho2GjYaNho2GjYaNho2GjYaNho2GjYaNho2GjYeNhJpEWiIn504K9A8fxfvcVOGnuXBXoHj+L97ipw09y4K9A8fxfvcVOGnuXBXoHj+L97ipw09y4K9A8fxfvcVOGnuXBXoHj+L97ipw09y4K9A8fxfvcVOGnuXBXoHj+L97ipw09y4K9A8fxfvcVOGnXXHx+MTVV2G5YblhuWG5YblhuWG5YblhuWG5YblhuWG5YblhuWG5YblhuWG5YblhuWG5YblhuWG5YblhuWG5YblhuWG5YblhuWG5YblhuWG5YblhuWG5YblhuWG5YblhuWG5YblhuWG5YblhuWG5YblhuWG5YblhuWG5YblhuWG5YblhuWG5YblhuWG5YblhuWG5YblhuWG5YblhuWG5YblhuWG5YblhuWG5YblhuWG5YblhuWG5YblhuWG5YblhuWG5YblhuWG5YblhuWG5YblhuWG5YblhuWG5YbljUf3/Zromq+Up14K9A8fxfvcVOGnVv8A17ZyOs4K9A8fxfvcVOGnX7HKf2Jrp/NfJWBWBWBWBWBWBWBWBWBWBWBWBWBWBWBWBWBWBWBWBWBWBWBWBWBWBWBWBWBWBWBWBWBWBWBWBWBWBWBWBWBWBWBWBWBWBWBWBWBWBWBWBWBWBWBWBWBWBWBWBWBWBWBWBWBWBWBWBWBWBWBWBWBWBWBWBWBWBWBWBWBWBWBWBWBWBWBWBWBWBWBWBWBWBWBWBWBWBWBWBWBWBWBWBWBWBWAg5evVSk86/wB68FegeP4v3uKnDT3Lgr0Dx/F+9xU4ae5cFegeP4v3uKnDT3Lgr0Dx/F+9xU4ae5cFegeP4v3uKnDT3Lgr0Dx/F+9xU4ae5cFegeP4v3uKnDT3Lgr0Dx/F+9xU4ae5cFegeP4v3uKnDT3Lgr0Dx/F+9xU4ae5cFegeP4v3uKnDT3Lgr0Dx/F+9xU4ae5cFegeP4v3uKnDT3Lgr0Dx/F+9xU4adUFlVoieVIAQAgBACAEAIAQAgBACAEAIAQAgBACAEAIAQAgBACAEAIAQAgBACAEAIAQAgBACAEAIAQAgBACAEAIAQAgBACAEAIAQAgBACAEAIAQAgBACAEAIAQAgBACAEAIAQAgBACAEAIAQAgBACAEAIAQAgBACAEAIAQAgBACAEAIAQAgBACAEAIAQAgBACAEAIAQAgBACAGvAPCIlevBXoHj+L97ipw06q0W8LcEiSJIkiSJIkiSJIkiSJIkiSJIkiSJIkiSJIkiSJIkiSJIkiSJIkiSJIkiSJIkiSJIkiSJIkiSJIkiSJIkiSJIkiSJIkiSJIkiSJIkiSJIkiSJIkiSJIkiSJIkiSJIkiSJIkiSJIkiSJIkiSJIkiSJIkiSJIkiSJIkiSJIkiSJIkiSJIkiSIpTVJr/OvU4K9A8fxfvcVOGnVFtF1IXRNSif+yCkFIKQUgpBSCkFIKQUgpBSCkFIKQUgpBSCkFIKQUgpBSCkFIKQUgpBSCkFIKQUgpBSCkFIKQUgpBSCkFIKQUgpBSCkFIKQUgpBSCkFIKQUgpBSCkFIKQUgpBSCkFIKQUgpBSCkFIKQUgpBSCkFIKQUgpBSCkFIKQUgpBSCkFIKQUgpBSCkFIKQUgpBSCkFIKQUgoszn+er+rRP59XrwV6B4/i/e4qcNPcuCvQPH8X73FThp7lwV6B4/i/e4qcNPcuCvQPH8X73FThp7lwV6B4/i/e4qcNPcuCvQPH8X73FThp7lwV6B4/i/e4qcNPcuCvQPH8X73FThp7lwV6B4/i/e4qcNPcuCvQPH8X73FThp7lwV6B4/i/e4qcNPcuCvQPH8X73FThp2KDOK6VVNRwXHBccFxwXHBccFxwXHBccFxwXHBccFxwXHBccFxwXHBccFxwXHBccFxwXHBccFxwXHBccFxwXHBccFxwXHBccFxwXHBccFxwXHBccFxwXHBccFxwXHBccFxwXHBccFxwXHBccFxwXHBccFxwXHBccFxwXHBccFxwXHBccFxwXHBccFxwXHBccFxwXHBccFxwXHBccFxwXHBccFxwXHBccFxwXHBccFxwXHBccFxwXHBccFxwXHBccFxwXHBccFxwXHBccFxwXHBccFxwXHBccFxwXHBcTK6INUVOnBXoHj+L97ipw07GH9+1oPn46cFegeP4v3uKnDTsW0mLqRFF08VJHEkcSRxJHEkcSRxJHEkcSRxJHEkcSRxJHEkcSRxJHEkcSRxJHEkcSRxJHEkcSRxJHEkcSRxJHEkcSRxJHEkcSRxJHEkcSRxJHEkcSRxJHEkcSRxJHEkcSRxJHEkcSRxJHEkcSRxJHEkcSRxJHEkcSRxJHEkcSRxJHEkcSRxJHEkcSRxJHEkcSRxJHEkcSRxJHEkcSRxJHEkcSRxJHEkcSRxJHEkcSRxJHEkcSRxJHEkcSRxJHEkcSRxJHEkcSRxJHEkcSRxJHEkcSRxJHEkcSRxJHEmcRZlFV61RNOnBXoHj+L97ipw09y4K9A8fxfvcVOGnuXBXoHj+L97ipw09y4K9A8fxfvcVOGnuXBXoHj+L97ipw09y4K9A8fxfvcVOGnuXAXoHj+L9/9uvlXkQAhE/uhT7FPsU+xT7FPsU+xT7FPsU+xT7FPsU+xT7FPsU+xT7FPsU+xT7FPsU+xT7FPsU+xT7FPsU+xT7FPsU+xT7FPsU+xT7FPsU+xT7FPsU+xT7FPsU+xT7FPsU+xT7FPsU+xT7FPsU+xT7FPsU+xT7FPsU+xT7FPsU+xT7FPsU+xT7FPsU+xT7FPsU+xT7FPsU+xT7FPsU+xT7FPsU+xT7FPsU+xT7FPsU+xT7FPsU+xT7FPsU+xT7FPsU+xT7FPsU+xT7FPsU+xT7FPsU+xT7FPsU+xT7FPsU+xT7FPsU+xT7FPsK5F/lU/D+qy39PH8X7/ACia6L+iI5ydJ0nSdJ0nSdJ0nSdJ0nSdJ0nSdJ0nSdJ0nSdJ0nSdJ0nSdJ0nSdJ0nSdJ0nSdJ0nSdJ0nSdJ0nSdJ0nSdJ0nSdJ0nSdJ0nSdJ0nSdJ0nSdJ0nSdJ0nSdJ0nSdJ0nSdJ0nSdJ0nSdJ0nSdJ0nSdJ0nSdJ0nSdJ0nSdJ0nSdJ0nSdJ0nSdJ0nSdJ0nSdJ0nSdE9aI/jT/rx/9oADAMBAAIAAwAAABAAAAAAAAAAAAAAAAAAAAAAAAAAAAAAAAAAAAAAAAAAAAAAAAAAAAAAAAAAAAAAAAAAAAAAAAAAAAAAAAAAAAAAAAAAAAAAAAAAAAAAAAAAAAAAAAAAAAAAAAAAAAABQgAAAAAAAAAAAAAAAAAAAAAAAAAAAAAAAAAAAAAAAAAAAAAAAAAAAAAAAAygAARjDDDDDDDDDDDDDDDDDDDDDDDDDDDDDDDDDDDDDDDDDDDDDDDDDDDDDDDBCgABSgAQwwwwwwwwwwwAAAAAAAAAAAAAAAAAAAAAAAAAAAAAAAAAAAAAAAAAAACgABSgCAAAAAAAAAAACAAAAAAAAAAAAAAAAAAAAAAAAAAAAAAAAAAAAAAAAAAACgABSgAwwwwwwwwwwwwwwwwwwwwwwwwwwwwwwwwwwwwwwwwwwwwwwwwwwwwwgACgABSgAAAAAAAAAAAAAAAAAAAAAAAAAAAAAAAAAAAAAAAAAAAAAAAAAAAAABCACgABSgAAAAAAAAAAAAAAAAAAAAAAAAAAAAAAAAAAAAAAAAAAAAAAAAAAAAAAAACgABSgAAAAAAAAAAAAAAAAAAAAAAAAAAAAAAAAAAAAAAAAAAAAAAAAAAAAAAAACgABSgAAAAAAAAAAAAAAAAAAAAAAAAAAAAAAAAAAAAAAAAAAAAAAAAAAAAABQACgABSgDDDDDDDDDDDDDDDDDDDDDDDDDDDDDDDDDDDDDDDDDDDDDDDDDDDDDDCACgABSgAAAAAAAAAAAAAAAAAAAAAAAAAAAAAAAAAAAAAAAAAAAAAAAAAAAAAAAACgABSgAAAAAAAAAAAAAAAAAAAAAAAAAAAAAAAAAAAAAAAAAAAAAAAAAAAAAAAACgABSgAAAAAAAAAAAAAAAAAAAAAAAAAAAAAAAAAAAAAAAAAAAAAAAAAAAAABSACgABSgBDDDDDDDDDDDDDDDDDDDDDDDDDDDDDDDDDDDDDDDDDDDDDDDDDDDDDCACgABSgAAAAAAAAAAAAAAAAAAAAAAAAAAAAAAAAAAAAAAAAAAAAAAAAAAAAAAAACgABSgAAAAAAAAAAAAAAAAAAAAAAAAAAAAAAAAAAAAAAAAAAAAAAAAAAAAAAAACgABSgCQwwwwwwwwwwwwwwwwwwwwwwwwwwwwwwwwwwwwwwwwwwwwwwwwwwwwwACgABSgCAAAAAAAAAAAAAAAAAAAAAAAAAAAAAAAAAAAAAAAAAAAAAAAAAAAABCACgABSgAAAAAAAAAAAAAAAAAAAAAAAAAAAAAAAAAAAAAAAAAAAAAAAAAAAAAAAACgABSgAAAAAAAAAAAAAAAAAAAAAAAAAAAAAAAAAAAAAAAAAAAAAAAAAAAAAAAACgABSgAAAAAAAAAAAAAAAAAAAAAAAAAAAAAAAAAAAAAAAAAAAAAAAAAAAAAAAgCgABSgAwwwwwwwwwwwwwwwwwwwwwwwwwwwwwwwwwwwwwwwwwwwwwwwwwwwwxggCgABSgAAAAAAAAAAAAAAAAAAAAAAAAAAAAAAAAAAAAAAAAAAAAAAAAAAAAAAAACgABSgAAAAAAAAAAAAAAAAAAAAAAAAAAAAAAAAAAAAAAAAAAAAAAAAAAAAAAAACgABSgAAAAAAAAAAAAAAAAAAAAAAAAAAAAAAAAAAAAAAAAAAAAAAAAAAAAAAAACgABSgAAAAAAAAAAAAAAAAAAAAAAAAAAAAAAAAAAAAAAAAAAAAAAAAAAAAAAAACgABSgAAAAAAAAAAAAAAAAAAAAAAAAAAAAAAAAAAAAAAAAAAAAAAAAAAAAAAAACgABSgAgAAAAAAAAAAAAAAAAAAAAAAAAAAAAAAAAAAAAAAAAAAAAAAAAAAAAAACgABSgDzzzzzzzzzzzwgAAAAAAAAAAAAAAAAAAAAAAAAAAAAAAAAAAAAAAAAAACgABSgAAAAAAAAAAAAAAAAAAAAAAAAAAAAAAAAAAAAAAAAAAAAAAAAAAAAAAAACgABSgAAAAAAAAAAAAAAAAAAAAAAAAAAAAAAAAAAAAAAAAAAAAAAAAAAAAAAAACgABSgAAAAAAAAAAAAAAAAAAAAAAAAAAAAAAAAAAAAAAAAAAAAAAAAAAAAAAAACgABSgAwwwwwwwwwwwwwwwwwwwwwwwwwwwwwwwwwwwwwwwwwwwwwwwwwwwwwwgCgABSgAAAAAAAAAAAAAAAAAAAAAAAAAAAAAAAAAAAAAAAAAAAAAAAAAAAAABAACgABSgAAAAAAAAAAAAAAAAAAAAAAAAAAAAAAAAAAAAAAAAAAAAAAAAAAAAAAAACgABSgAAAAAAAAAAAAAAAAAAAAAAAAAAAAAAAAAAAAAAAAAAAAAAAAAAAAAAAACgABSgAAAAAAAAAAAAAAAAAAAAAAAAAAAAAAAAAAAAAAAAAAAAAAAAAAAAAAAACgABSgAAAAAAAAAAAAAAAAAAAAAAAAAAAAAAAAAAAAAAAAAAAAAAAAAAAAAAAACgABSgAgAAAAAAAAAACgAAAAAAAAAAAAAAAAAAAAAAAAAAAAAAAAAAAAAAAAAACgABSgAAAAAAAAAAAAAAAAAAAAAAAAAAAAAAAAAAAAAAAAAAAAAAAAAAAAAAAACgABSgAAAAAAAAAAAAAAAAAAAAAAAAAAAAAAAAAAAAAAAAAAAAAAAAAAAAAAAACgABSgAAAAAAAAAAAAAAAAAAAAAAAAAAAAAAAAAAAAAAAAAAAAAAAAAAAAAAAACgABSgAAAAAAAAAAAAAAAAAAAAAAAAAAAAAAAAAAAAAAAAAAAAAAAAAAAAAAAACgABSgAAAAAAAAAAAAAAAAAAAAAAAAAAAAAAAAAAAAAAAAAAAAAAAAAAAAAAAACgABSgAAAAAAAAAAAAAAAAAAAAAAAAAAAAAAAAAAAAAAAAAAAAAAAAAAAAAAAACgABSgAwwwwwwwwwwwwwwwwwwwwwwwwwwwwwwwwwwwwwwwwwwwwwwwwwwwwwwACgABSgAgAAAAAAAAAAAAAAAAAAAAAAAAAAAAAAAAAAAAAAAAAAAAAAAAAAABQgCgABSgAAAAAAAAAAAAAAAAAAAAAAAAAAAAAAAAAAAAAAAAAAAAAAAAAAAAAAAACgABSgAAAAAAAAAAAAAAAAAAAAAAAAAAAAAAAAAAAAAAAAAAAAAAAAAAAAAAAACgABSgAAAAAAAAAAAAAAAAAAAAAAAAAAAAAAAAAAAAAAAAAAAAAAAAAAAAAAAACgABSgAAAAAAAAAAAAAAAAAAAAAAAAAAAAAAAAAAAAAAAAAAAAAAAAAAAAAAAgCgABSgAwwwwwwwwwwwwwwwwwwwwwwwwwwwwwwwwwwwwwwwwwwwwwwwwwwwwxwgCgABSgAAAAAAAAAAAAAAAAAAAAAAAAAAAAAAAAAAAAAAAAAAAAAAAAAAAAAAAACgABSgAAAAAAAAAAAAAAAAAAAAAAAAAAAAAAAAAAAAAAAAAAAAAAAAAAAAAAAACgABSgAAAAAAAAAAAAAAAAAAAAAAAAAAAAAAAAAAAAAAAAAAAAAAAAAAAAAAAACgABSgAAAAAAAAAAAAAAAAAAAAAAAAAAAAAAAAAAAAAAAAAAAAAAAAAAAAAAAACgABShAAAAAAAAAAAAAAAAAAAAAAAAAAAAAAAAAAAAAAAAAAAAAAAAAAAAAAAACgABSgDDDDDDDDDDDDDDDDDDDDDDDDDDDDDDDDDDDDDDDDDDDDDDDDDDDDDCAACgABSgAAAAAAAAAAAAAAAAAAAAAAAAAAAAAAAAAAAAAAAAAAAAAAAAAAAAAAAACgABSgAAAAAAAAAAAAAAAAAAAAAAAAAAAAAAAAAAAAAAAAAAAAAAAAAAAAAAAACgABSgAAAAAAAAAAAAAAAAAAAAAAAAAAAAAAAAAAAAAAAAAAAAAAAAAAAAAAAACgABSgAAAAAAAAAAAAAAAAAAAAAAAAAAAAAAAAAAAAAAAAAAAAAAAAAAAAAAAACgABSgAAAAAAAAAAAAAAAAAAAAAAAAAAAAAAAAAAAAAAAAAAAAAAAAAAAAAAAACgABSgAAAAAAAAAAAAAAAAAAAAAAAAAAAAAAAAAAAAAAAAAAAAAAAAAAAAAAAACgABSgTDDDDDDDDDDDDDDDDDDDDDDDDDDDDDDDDDDDDDDDDDDDDDDDDDDDDCQACgABShAAAAAAAAAAAAAAAAAAAAAAAAAAAAAAAAAAAAAAAAAAAAAAAAAAAAAAAACgABSgAAAAAAAAAAAAAAAAAAAAAAAAAAAAAAAAAAAAAAAAAAAAAAAAAAAAAAAACgABSgAAAAAAAAAAAAAAAAAAAAAAAAAAAAAAAAAAAAAAAAAAAAAAAAAAAAAAAACgABSgAAAAAAAAAAAAAAAAAAAAAAAAAAAAAAAAAAAAAAAAAAAAAAAAAAAAAAAACgABSgAAAAAAAAAAAAAAAAAAAAAAAAAAAAAAAAAAAAAAAAAAAAAAAAAAAAAAAACgABSgAAAAAAAAAAAAAAAAAAAAAAAAAAAAAAAAAAAAAAAAAAAAAAAAAAAAAAAACgABSgCAAAAAAAAAAAAAAAAAAAAAAAAAAAAAAAAAAAAAAAAAAAAAAAAAAAAASACgABSgCAAAAAAAAAAAAAAAAAAAAAAAAAAAAAAAAAAAAAAAAAAAAAAAAAAAAACACgABSgAAAAAAAAAAAAAAAAAAAAAAAAAAAAAAAAAAAAAAAAAAAAAAAAAAAAAAAACgABSgAAAAAAAAAAAAAAAAAAAAAAAAAAAAAAAAAAAAAAAAAAAAAAAAAAAAAAAACgABDTzzzzzzzzzzzzzzzzzzzzzzzzzzzzzzzzzzzzzzzzzzzzzzzzzzzzzzzwCgABAAAAAAAAAAAAAAAAAAAAAAAAAAAAAAAAAAAAAAAAAAAAAAAAAAAAAAAAAACAAAAAAAAAAAAAAAAAAAAAAAAAAAAAAAAAAAAAAAAAAAAAAAAAAAAAAAAAAAAAAAD/xAAUEQEAAAAAAAAAAAAAAAAAAADA/9oACAEDAQE/EBsH/8QAFBEBAAAAAAAAAAAAAAAAAAAAwP/aAAgBAgEBPxAbB//EACkQAAEDBQEAAgIDAAMBAQAAAAARwfABIFGh8WAhMRBhQXGRQICBsdH/2gAIAQEAAT8Q/wC+dBVkBHWn3RA2n+zX79+/fv379+/fv379+/fv379+/fv379+/fv379+/fv379+/fv379+/fv379+/fv379+/fv379+/fv379+/fv379+/fv379+/fv379+/fv379+/fv379+/fv379+/fv379+/fv1DrQbBY/mhiJVvo1Yv8A6AVrf2QIQhCEIQhCEIQhCEIQhCEIQhCEIQhCEIQhCEIQhCEIQhCEIQhCEIQhCEIQhCEIQhCEIQhCEIQhCEIQhCEIQhCEIQhCEIQhCUQZTTfyfw1alKLj5vqK6Fn5f0RGBGBGBGBGBGBGBGBGBGBGBGBGBGBGBGBGBGBGBGBGBGBGBGBGBGBGBGBGBGBGBGBGBGBGBGBGBGBGBGBGBGBGBGBGBGBGBGBGBGBGBGBGBGBGBGBGBGBGBGBGBGBGBGBGBGBGBGBGBGBGBGBGBGBGBGBGBGBGBGBGBGBGBGBGBGBGBGBGBGBGBGBGBGBGBGBGBGBGBGBGBGBGBGBGBGBGBGBGBGBGBGBGBH9FFafhq0S+b2z9pU7ck/m9s/aVO3JP5vbO2qjenws0RNFMU/5GPHjx48ePHjx48ePHjx48ePHjx46gH9UqNaVp96eXduSfze2dtShDi4Sh8/VaV/5E6dOnTp06dOnTp06dOnTp06dOnTkgCsddFf6eXduSfze2ftKnbkn83tn7Sp25J/N7Z21V9XBAtShRUpinq+vXr169evXr169evXr169evXr169evXr169evXr169evXr169evXr169evXr169evXr169evXr169evXr169evXr169evXr169evXr169evXr169evXr169evXr1oqUpG007pSisT9fP5duSfze2fsKh/2pZiduSfze2dtVdZqs/fda1fKvrChQoUKFChQoUKFChQoUKFChQoUKFChQoUKFChQoUKFChQoUKFChQoUKFChQoUKFChQoUKFChQoUKFChQoUKFChQoUKFChQoUKFChQoUKFChQoUKFChQoUKFChQoUKUI1OlFKJSlPy7ck/m9s/aVO3JP5vbP2lTtyT+b2z9pU7ck/m9s/aVO3JP5vbO2qngMVCvxCp6tixYsWLFixYsWLFixYsWLFixYsWLFixYsWLFixYsWLFixYsWLFixYsWLFixYsWLFixYsWLFixYsWLFixYsWLFixYsWLFixYsWLFixYsWLFixYsWLFixYsWLFixYsaLmai4fm6/HRv8u3JP5vbP2FQ/wC1LMztyT+b2ztq+b/mE6p+1fWDhw4cOHDhw4cOHDhw4cOHDhw4cOHDhw4cOHDhw4cOHDhw4cOHDhw4cOHDhw4cOHDhw4cOHDhw4cOHDhw4cOHDhw4cOHDhw4cOHDhw4cOHDhw4cOHDhw4cOHDhw4cOoF3n9UqJSn5duSfze2ftKnbkn83tn7Sp25J/N7Z+0qduSfze2ftKnbkn83tn7Sp25J/N7Z21I5r8sNUIX1YuXLly5cuXLly5cuXLly5cuXLly5cuXLly5cuXLly5cuXLly5cuXLly5cuXLly5cuXLly5cuXLly5cuXLly5cuXLly5cuXLly5cuXLly5cuXLly5cuXLly5cuXLl6Kj6/NPviqmin+/l25J/N7Z+wqH/almZ25J/N7Z21Vbt2alQPmtakHYg7EHYg7EHYg7EHYg7EHYg7EHYg7EHYg7EHYg7EHYg7EHYg7EHYg7EHYg7EHYg7EHYg7EHYg7EHYg7EHYg7EHYg7EHYg7EHYg7EHYg7EHYg7EHYg7EHYg7EHYg7EHYg7EHYg7EHYg7EHYg7EHYg7EHYg7EHYg7EHYg7EHYg7EHYg7EHYg7EHYg7EHYg7EHYg7EHYg7EHYg7EHYg7EHYg7EHYg7EHYg7EHYg7EHYg7EHYg7EHYg7EHYg7EHYg7EHYg7EHYg7EHYpRFuSlKU+qU/LtyT+b2z9pU7ck/m9s/aVO3JP5vbP2lTtyT+b2z9pU7ck/m9s/aVO3JP5vbO2qp7lXRitFIQ5CHIQ5CHIQ5CHIQ5CHIQ5CHIQ5CHIQ5CHIQ5CHIQ5CHIQ5CHIQ5CHIQ5CHIQ5CHIQ5CHIQ5CHIQ5CHIQ5CHIQ5CHIQ5CHIQ5CHIQ5CHIQ5CHIQ5CHIQ5CHIQ5CHIQ5CHIQ5CHIQ5CHIQ5CHIQ5CHIQ5CHIQ5CHIQ5CHIQ5CHIQ5CHIQ5CHIQ5CHIQ5CHIQ5CHIQ5CHIQ5CHIQ5CHIQ5CHIQ5CHIQ5CHIQ5CHIQ5CHIQ5CHIQ5CHIQ5CHIQ5CHIQ5CHIQ5CHIQ5SFelEtK0/n8u3JP5vbO6oeooooooooooooooooooooooooooooooooooooooooooooooooooooooooooooooooooooooooooooooooooooooooooooooooooooooooopSvzSzM7ck/m9s7aqbvQyuraP4NUr6t69evXr169evXr169evXr169evXr169evXr169evXr169evXr169evXr169evXr169evXr169evXr169evXr169evXr169evXr169evXr169evXr169evXr169evaK0O1+fl2WiOr/5+Xbkn83tn7Sp25J/N7Z+0qduSfze2ftKnbkn83tn7Sp25J/N7Z+0qduSfze2ftKnbkn83tnbV9Ws8dqPgV+afx6wuXLly5cuXLly5cuXLly5cuXLly5cuXLly5cuXLly5cuXLly5cuXLly5cuXLly5cuXLly5cuXLly5cuXLly5cuXLly5cuXLly5cuXLly5cuXLly5cuXLly5cuXLly/wAXm7REtK/5+Xbkn83tn7Cof9qWZnbkn83tnbUhRPHLX2Ivq82bNmzZs2bNmzZs2bNmzZs2bNmzZs2bNmzZs2bNmzZs2bNmzZs2bNmzZs2bNmzZs2bNmzZs2bNmzZs2bNmzZs2bNmzZs2bNmzZs2bNmzZs2bNmzZs2bNmzZs2bNmouGrh6V1UT4Stfl25J/N7Z+0qduSfze2ftKnbkn83tn7Sp25J/N7Z+0qduSfze2ftKnbkn83tn7Sp25J/N7Z+0qduSfze2ftKnbkn83tn7Sp25J/N7Z+0qduSfze2ftKnbkn83tnbVW9WroxWikJchLkJchLkJchLkJchLkJchLkJchLkJchLkJchLkJchLkJchLkJchLkJcrFZVKjrWv8Avl3bkn83tnbUoD/f/wAj5znOc5znOc5znOc5znOfff8Af5dduSfze2dtX3GglU0fwapU/cL+4X9wv7hf3C/uF/cL+4X9wv7hf3C/uF/cL+4X9wv7hf3C/uF/cL+4X9wv7hf3C/bxp1V4n9aeXduSfze2ftKnbkn83tn7Sp25J/N7Z+0qduSfze2ftKnbkn83tn7Sp25J/N7Z+0qduSfze2ftKnbkn83tnbUtaPhbTWr7VSnq4MGDBgwYMGDBgwYMGDBgwYMGDBgwYMGDBgwYMGDBgwYMGDBgwYMGDBgwYMGDBgwYMGDBgwYMGDBgwYMGDBgwYMGDBgwYMGDBgwYMGDBgwYMGDBgwYMGDBgwYMGDBotQD9MfulEdSf7+Xbkn83tn7Cof9qWZnbkn83tnbVUgKy+VUEMYhjEMYhjEMYhjEMYhjEMYhjEMYhjEMYhjEMYhjEMYhjEMYhjEMYhjEMYhjEMYhjEMYhjEMYhjEMYhjEMYhjEMYhjEMYhjEMYhjEMYhjEMYhjEMYhjEMYhjEMYhjEMYhjEMYhjEMYhjEMYhjEMYhjEMYhjEMYhjEMYhjEMYhjEMYhjEMYhjEMYhjEMYhjEMYhjEMYhjEMYhjEMYhjEMYhjEMYhjEMYhjEMYhjEMYhjEMYhjEMYhjEMYhjEMYhjEMYhjEMYhjEMYpmmo0SlKUSlKfl25J/N7Z+0qduSfze2ftKnbkn83tn7Sp25J/N7Z+0qduSfze2ftKnbkn83tn7Sp25J/N7Z+0qduSfze2ftKnbkn83tnbVRkThuVD4pShP3J+5P3J+5P3J+5P3J+5P3J+5P3J+5P3J+5P3J+5P3J+5P3J+5P3J+5P3KiJ5elM1pX5x5d25J/N7Z21VS+aPCjR8qVoSliUsSliUsSliUsSliUsSliUsSliUsSliUsSliUsSliUsSliUsSliUsSlikzadqxVWv8EXy7tyT+b2z9pU7ck/m9s/aVO3JP5vbP2lTtyT+b2z9pU7ck/m9s/aVO3JP5vbP2lTtyT+b2z9pU7ck/m9s/aVO3JP5vbP2lTtyT+b2z9pU7ck/m9s/aVO3JP5vbP2lTtyT+b2z9pU7ck/m9s7avsiK5qFMqesw4cOHDhw4cOHDhw4cOHDhw4cOHDhw4cOHDhw4cOHDhw4cOHDhw4cOHDhw4cOHDhw4cOHDhw4cOHDhw4cOHDhw4cOHDhw4cOHDhw4cOHDhw4cOHDhw4cOHDhw4cOH7TD5FaS0r+Xbkn83tn7Cof9qWZnbkn83tnbVS9Yga3mU9W169evXr169evXr169evXr169evXr169evXr169evXr169evXr169evXr169evXr169evXr169evXr169evXr169evXr169evXr169evXr169evXr169evXr169eulCoOjQUKbXRPjq1+Xbkn83tn7Sp25J/N7Z+0qduSfze2ftKnbkn83tn7Sp25J/N7Z+0qduSfze2ftKnbkn83tn7Sp25J/N7Z21fMWXx2mvwV9WRRRRRRRRRRRRRRRRRRRRRRRRRRRRRRRRRRRRRRRRRRRRRRRRRRRRRRRRRRRRRRRRRRRRRRRRRRRRRRRRRRRRRRRRRRRRRRRRRRRRRRRRRRouTX5598VU0U/38u3JP5vbP2FQ/7UszO3JP5vbO2qrtGbctQp81r6xgwYMGDBgwYMGDBgwYMGDBgwYMGDBgwYMGDBgwYMGDBgwYMGDBgwYMGDBgwYMGDBgwYMGDBgwYMGDBgwYMGDBgwYMGDBgwYMGDBgwYMGDBgwYMGDBgwYMGDBgwYMMFKCinJSlH1Sn5duSfze2ftKnbkn83tn7Sp25J/N7Z+0qduSfze2ftKnbkn83tn7Sp25J/N7Z+0qduSfze2ftKnbkn83tn7Sp25J/N7Z2VUxdUila0+mXz8UV9Y5cuXLly5cuXLly5cuXLly5cuXLly5cuXLly5cuXLly5cuXLly5cuXLly5cuXLly5cuXLly5cuXLly5cuXLly5cuXLly5cuXLly5cuXLly5cuXLly5cuXLly5cuXLlEXKklT6Gn1VY7ck/m9s/aVc3btyT+b2zsqVNGsf3U3wfJFp6xttttttttttttttttttttttttttttttttttttttttttttttttttttttttttttttttttttttttttttttttttttttttttttttttttttttttttus2a1f/AIJn8vqx25J/N7Z+0qduSfze2ftKnbkn83tn7Sp25J/N7Z+0qduSfze2ftKnbkn83tn7Sp25J/N7Z+0qduSfze2ftKnbkn83tn7Sp25J/N7Z+0qduSfze2ftKnbkn83tn7Sp25J/N7Z+0qduSfze2dlVCNTrUqlKUJS5KXJS5KXJS5KXJS5KXJS5KXJS5KXJS5KXJS5KXJS5KXJS5KXJS5KXJS5KXJS5KXJS5KXJS5KXJS5KXJS5KXJS5KXJS5KXJS5KXJS5KXJS5KXJS5KXJS5KXJS5KXJS5KXJS5KXJS5KXJS5KXJS5KXJS5KXJS5KXJS5KXJS5KXJS5KXJS5KXJS5KXJS5KXJS5KXJS5KXJS5KXJS5KXJS5KXJS5KXJS5KXJS5KXJS5KXJS5KXJS5KXJS5KXJS5KXJS5KXJS5KXJS5QH2cYrY7ck/m9s7KqlAqh8lB7k7k7k7k7k7k7k7k7k7k7k7k7k7k7k7k7k7k7k7k7k7k7k7k7k7k7k7k7k7k7k7k7k7k7k7k7k7k7k7k7k7k7k7k7k7k7k7k7k7k7k7k7k7k7k7k7k7k7k7k7k7k7k7k7k7k7k7k7k7k7k7k7k7k7k7k7k7k7k7k7k7k7k7k7k7k7k7k7k7k7k7k7k7k7k7k7k7k7k7k7k7k7k7k7k7k7k+1wJXZu3JP5vbOyqgigVhVq/x8+sV11111111111111111111111111111111111111111111111111111111111111111111111111111111111111111111111111111111111GflVB/Bv6FjtyT+b2z9pU7ck/m9s/aVO3JP5vbP2lTtyT+b2z9pU7ck/m9s/aVO3JP5vbP2lTtyT+b2z9pU7ck/m9s/aVO3JP5vbP2lTtyT+b2z9pU7ck/m9s/aVO3JP5vbO2qlv4AX4rSoqlfWadOnTp06dOnTp06dOnTp06dOnTp06dOnTp06dOnTp06dOnTp06dOnTp06dOnTp06dOnTp06dOnTp06dOnTp06dOnTp06dOnTp06dOnTp06dOnTp06dOnTp06dOnTpo6UVZaVpX6rT8u3JP5vbP2FQ/7UszO3JP5vbO2pDaPD1qT7+rAQIECBAgQIECBAgQIECBAgQIECBAgQIECBAgQIECBAgQIECBAgQIECBAgQIECBAgQIECBAgQIECBAgQIECBAgQIECBAgQIECBAgQIECBAgQIECBAgQIECBAgQIEDRYDQYPb6rR1J/n5duSfze2ftKnbkn83tn7Sp25J/N7Z+0qduSfze2ftKnbkn83tn7Sp25J/N7Z/ipRRRRRRRRRRRRRRRRRRRRRRRRRRRRRRRRRRRRRRRRRRRRRRRRRRRRRRRRRRRRRRRRRRRRRRRRRRRRRRRRRRRRRRRRRRRRRRRRRRRRRRRRRRRRRRRRSorck/m9R+oJIpBlMnsnOc5znOc5znOc5znOc5znOc5znOc5znOc5znOc5znOc5znOc5znOc5znOc5znOc5znOc5znOc5znOc5znOc5znOc5znOc51Pb8AVEfkhP5vJ6atC3wKZSmicOcOcOcOcOcOcOcOcOcOcOcOcOcOcOcOcOcOcOcOcOcOcOcOcOcOcOcOcOcOcOcOcOcOcOcOcOcOcOcOcOcOcOcOcOcOcOcOcOcOcOcOcOcOcOcOcOcOcOcOcOcOcOcOcOcOcOcOcOcOcOcOcOcOcOcOcOcOcOcOcOcOcOcOcOcOcOcOcOcOcOcOcOcOcOcOcOcOcOcOcOcOcOcOcOcOcOcOcOcOcOcOcOcOcOUJRKlav7r/+/wDXj//Z;" parent="WIyWlLk6GJQsqaUBKTNV-1" vertex="1">
          <mxGeometry x="100" y="75.89" width="49.53" height="64.11" as="geometry" />
        </mxCell>
        <mxCell id="1r8-J4dmMCnumvZf1Gb4-3" value="" style="shape=flexArrow;endArrow=classic;html=1;rounded=0;" parent="WIyWlLk6GJQsqaUBKTNV-1" edge="1">
          <mxGeometry width="50" height="50" relative="1" as="geometry">
            <mxPoint x="140" y="150" as="sourcePoint" />
            <mxPoint x="150" y="190" as="targetPoint" />
          </mxGeometry>
        </mxCell>
        <mxCell id="1r8-J4dmMCnumvZf1Gb4-4" value="ANUARIO" style="text;html=1;align=center;verticalAlign=middle;whiteSpace=wrap;rounded=0;" parent="WIyWlLk6GJQsqaUBKTNV-1" vertex="1">
          <mxGeometry x="100" y="45.89" width="60" height="30" as="geometry" />
        </mxCell>
        <mxCell id="1r8-J4dmMCnumvZf1Gb4-5" value="&lt;h1 style=&quot;margin-top: 0px;&quot;&gt;query&lt;/h1&gt;&lt;div&gt;&quot;...hjdfj uhjdf fjsh...&quot;&lt;/div&gt;" style="text;html=1;whiteSpace=wrap;overflow=hidden;rounded=0;" parent="WIyWlLk6GJQsqaUBKTNV-1" vertex="1">
          <mxGeometry x="450" y="75.89" width="140" height="60" as="geometry" />
        </mxCell>
        <mxCell id="1r8-J4dmMCnumvZf1Gb4-6" value="" style="shape=flexArrow;endArrow=classic;html=1;rounded=0;" parent="WIyWlLk6GJQsqaUBKTNV-1" edge="1">
          <mxGeometry width="50" height="50" relative="1" as="geometry">
            <mxPoint x="500" y="150" as="sourcePoint" />
            <mxPoint x="480" y="190" as="targetPoint" />
          </mxGeometry>
        </mxCell>
        <mxCell id="1r8-J4dmMCnumvZf1Gb4-7" value="&#xa;&lt;span style=&quot;color: rgb(0, 0, 0); font-family: Helvetica; font-size: 12px; font-style: normal; font-variant-ligatures: normal; font-variant-caps: normal; font-weight: 400; letter-spacing: normal; orphans: 2; text-align: center; text-indent: 0px; text-transform: none; widows: 2; word-spacing: 0px; -webkit-text-stroke-width: 0px; white-space: normal; background-color: rgb(251, 251, 251); text-decoration-thickness: initial; text-decoration-style: initial; text-decoration-color: initial; display: inline !important; float: none;&quot;&gt;MÃ³dulo&amp;nbsp;&lt;/span&gt;&lt;div style=&quot;forced-color-adjust: none; color: rgb(0, 0, 0); font-family: Helvetica; font-size: 12px; font-style: normal; font-variant-ligatures: normal; font-variant-caps: normal; font-weight: 400; letter-spacing: normal; orphans: 2; text-align: center; text-indent: 0px; text-transform: none; widows: 2; word-spacing: 0px; -webkit-text-stroke-width: 0px; white-space: normal; background-color: rgb(251, 251, 251); text-decoration-thickness: initial; text-decoration-style: initial; text-decoration-color: initial;&quot;&gt;de Procesamiento&lt;/div&gt;&#xa;&#xa;" style="rounded=1;whiteSpace=wrap;html=1;" parent="WIyWlLk6GJQsqaUBKTNV-1" vertex="1">
          <mxGeometry x="80" y="290" width="120" height="60" as="geometry" />
        </mxCell>
        <mxCell id="1r8-J4dmMCnumvZf1Gb4-9" value="MÃ³dulo de RecuperaciÃ³n de InformaciÃ³n" style="rounded=1;whiteSpace=wrap;html=1;" parent="WIyWlLk6GJQsqaUBKTNV-1" vertex="1">
          <mxGeometry x="329" y="290" width="170" height="60" as="geometry" />
        </mxCell>
        <mxCell id="1r8-J4dmMCnumvZf1Gb4-12" value="MÃ³dulo de Salida" style="rounded=1;whiteSpace=wrap;html=1;" parent="WIyWlLk6GJQsqaUBKTNV-1" vertex="1">
          <mxGeometry x="356" y="430" width="116" height="50" as="geometry" />
        </mxCell>
        <mxCell id="1r8-J4dmMCnumvZf1Gb4-14" value="" style="endArrow=classic;html=1;rounded=0;entryX=0.5;entryY=0;entryDx=0;entryDy=0;exitX=0.179;exitY=1.051;exitDx=0;exitDy=0;exitPerimeter=0;" parent="WIyWlLk6GJQsqaUBKTNV-1" source="WIyWlLk6GJQsqaUBKTNV-3" target="1r8-J4dmMCnumvZf1Gb4-7" edge="1">
          <mxGeometry width="50" height="50" relative="1" as="geometry">
            <mxPoint x="260" y="390" as="sourcePoint" />
            <mxPoint x="310" y="340" as="targetPoint" />
          </mxGeometry>
        </mxCell>
        <mxCell id="1r8-J4dmMCnumvZf1Gb4-21" value="Anuarios" style="edgeLabel;html=1;align=center;verticalAlign=middle;resizable=0;points=[];" parent="1r8-J4dmMCnumvZf1Gb4-14" vertex="1" connectable="0">
          <mxGeometry x="0.0273" y="2" relative="1" as="geometry">
            <mxPoint as="offset" />
          </mxGeometry>
        </mxCell>
        <mxCell id="1r8-J4dmMCnumvZf1Gb4-16" value="" style="endArrow=classic;html=1;rounded=0;entryX=0.5;entryY=0;entryDx=0;entryDy=0;exitX=0.5;exitY=1;exitDx=0;exitDy=0;" parent="WIyWlLk6GJQsqaUBKTNV-1" source="1r8-J4dmMCnumvZf1Gb4-9" target="1r8-J4dmMCnumvZf1Gb4-12" edge="1">
          <mxGeometry width="50" height="50" relative="1" as="geometry">
            <mxPoint x="430" y="370" as="sourcePoint" />
            <mxPoint x="310" y="340" as="targetPoint" />
          </mxGeometry>
        </mxCell>
        <mxCell id="1r8-J4dmMCnumvZf1Gb4-17" value="" style="endArrow=classic;html=1;rounded=0;exitX=0.78;exitY=1.009;exitDx=0;exitDy=0;exitPerimeter=0;entryX=0.5;entryY=0;entryDx=0;entryDy=0;" parent="WIyWlLk6GJQsqaUBKTNV-1" source="WIyWlLk6GJQsqaUBKTNV-3" target="1r8-J4dmMCnumvZf1Gb4-9" edge="1">
          <mxGeometry width="50" height="50" relative="1" as="geometry">
            <mxPoint x="479.60000000000014" y="251.48000000000002" as="sourcePoint" />
            <mxPoint x="414" y="290" as="targetPoint" />
          </mxGeometry>
        </mxCell>
        <mxCell id="1r8-J4dmMCnumvZf1Gb4-18" value="" style="endArrow=none;html=1;rounded=0;entryX=1;entryY=0.5;entryDx=0;entryDy=0;exitX=0.918;exitY=0.996;exitDx=0;exitDy=0;exitPerimeter=0;" parent="WIyWlLk6GJQsqaUBKTNV-1" source="WIyWlLk6GJQsqaUBKTNV-3" target="1r8-J4dmMCnumvZf1Gb4-12" edge="1">
          <mxGeometry width="50" height="50" relative="1" as="geometry">
            <mxPoint x="260" y="390" as="sourcePoint" />
            <mxPoint x="310" y="340" as="targetPoint" />
            <Array as="points">
              <mxPoint x="550" y="455" />
            </Array>
          </mxGeometry>
        </mxCell>
        <mxCell id="1r8-J4dmMCnumvZf1Gb4-23" value="query" style="edgeLabel;html=1;align=center;verticalAlign=middle;resizable=0;points=[];" parent="1r8-J4dmMCnumvZf1Gb4-18" vertex="1" connectable="0">
          <mxGeometry x="0.7078" y="1" relative="1" as="geometry">
            <mxPoint as="offset" />
          </mxGeometry>
        </mxCell>
        <mxCell id="1r8-J4dmMCnumvZf1Gb4-22" value="query" style="text;html=1;align=center;verticalAlign=middle;resizable=0;points=[];autosize=1;strokeColor=none;fillColor=none;" parent="WIyWlLk6GJQsqaUBKTNV-1" vertex="1">
          <mxGeometry x="425" y="248" width="50" height="30" as="geometry" />
        </mxCell>
        <mxCell id="1r8-J4dmMCnumvZf1Gb4-24" value="" style="shape=flexArrow;endArrow=classic;html=1;rounded=0;" parent="WIyWlLk6GJQsqaUBKTNV-1" edge="1">
          <mxGeometry width="50" height="50" relative="1" as="geometry">
            <mxPoint x="344" y="463.5" as="sourcePoint" />
            <mxPoint x="270" y="464" as="targetPoint" />
          </mxGeometry>
        </mxCell>
        <mxCell id="1r8-J4dmMCnumvZf1Gb4-25" value="Respuesta" style="text;html=1;align=center;verticalAlign=middle;whiteSpace=wrap;rounded=0;" parent="WIyWlLk6GJQsqaUBKTNV-1" vertex="1">
          <mxGeometry x="170" y="449.9999999999999" width="60" height="30" as="geometry" />
        </mxCell>
        <mxCell id="1r8-J4dmMCnumvZf1Gb4-27" value="" style="endArrow=none;dashed=1;html=1;dashPattern=1 3;strokeWidth=2;rounded=0;" parent="WIyWlLk6GJQsqaUBKTNV-1" edge="1">
          <mxGeometry width="50" height="50" relative="1" as="geometry">
            <mxPoint x="160" y="490" as="sourcePoint" />
            <mxPoint x="250" y="440" as="targetPoint" />
            <Array as="points">
              <mxPoint x="160" y="440" />
            </Array>
          </mxGeometry>
        </mxCell>
        <mxCell id="1r8-J4dmMCnumvZf1Gb4-28" value="" style="endArrow=none;dashed=1;html=1;dashPattern=1 3;strokeWidth=2;rounded=0;" parent="WIyWlLk6GJQsqaUBKTNV-1" edge="1">
          <mxGeometry width="50" height="50" relative="1" as="geometry">
            <mxPoint x="160" y="490" as="sourcePoint" />
            <mxPoint x="250" y="440" as="targetPoint" />
            <Array as="points">
              <mxPoint x="250" y="490" />
            </Array>
          </mxGeometry>
        </mxCell>
        <mxCell id="1r8-J4dmMCnumvZf1Gb4-30" value="" style="endArrow=classic;html=1;rounded=0;exitX=1;exitY=0.5;exitDx=0;exitDy=0;entryX=0;entryY=0.5;entryDx=0;entryDy=0;" parent="WIyWlLk6GJQsqaUBKTNV-1" source="1r8-J4dmMCnumvZf1Gb4-7" target="1r8-J4dmMCnumvZf1Gb4-9" edge="1">
          <mxGeometry width="50" height="50" relative="1" as="geometry">
            <mxPoint x="200" y="320" as="sourcePoint" />
            <mxPoint x="320" y="330" as="targetPoint" />
          </mxGeometry>
        </mxCell>
        <mxCell id="1r8-J4dmMCnumvZf1Gb4-29" value="" style="shape=image;verticalLabelPosition=bottom;labelBackgroundColor=default;verticalAlign=top;aspect=fixed;imageAspect=0;image=data:image/jpeg,/9j/4AAQSkZJRgABAQEASABIAAD/4gIoSUNDX1BST0ZJTEUAAQEAAAIYAAAAAAIQAABtbnRyUkdCIFhZWiAAAAAAAAAAAAAAAABhY3NwAAAAAAAAAAAAAAAAAAAAAAAAAAAAAAAAAAAAAQAA9tYAAQAAAADTLQAAAAAAAAAAAAAAAAAAAAAAAAAAAAAAAAAAAAAAAAAAAAAAAAAAAAAAAAAAAAAAAAAAAAlkZXNjAAAA8AAAAHRyWFlaAAABZAAAABRnWFlaAAABeAAAABRiWFlaAAABjAAAABRyVFJDAAABoAAAAChnVFJDAAABoAAAAChiVFJDAAABoAAAACh3dHB0AAAByAAAABRjcHJ0AAAB3AAAADxtbHVjAAAAAAAAAAEAAAAMZW5VUwAAAFgAAAAcAHMAUgBHAEIAAAAAAAAAAAAAAAAAAAAAAAAAAAAAAAAAAAAAAAAAAAAAAAAAAAAAAAAAAAAAAAAAAAAAAAAAAAAAAAAAAAAAAAAAAAAAAAAAAAAAAAAAAFhZWiAAAAAAAABvogAAOPUAAAOQWFlaIAAAAAAAAGKZAAC3hQAAGNpYWVogAAAAAAAAJKAAAA+EAAC2z3BhcmEAAAAAAAQAAAACZmYAAPKnAAANWQAAE9AAAApbAAAAAAAAAABYWVogAAAAAAAA9tYAAQAAAADTLW1sdWMAAAAAAAAAAQAAAAxlblVTAAAAIAAAABwARwBvAG8AZwBsAGUAIABJAG4AYwAuACAAMgAwADEANv/bAEMABAMDBAMDBAQDBAUEBAUGCgcGBgYGDQkKCAoPDRAQDw0PDhETGBQREhcSDg8VHBUXGRkbGxsQFB0fHRofGBobGv/bAEMBBAUFBgUGDAcHDBoRDxEaGhoaGhoaGhoaGhoaGhoaGhoaGhoaGhoaGhoaGhoaGhoaGhoaGhoaGhoaGhoaGhoaGv/CABEIBQAD3QMBIgACEQEDEQH/xAAcAAEAAgMBAQEAAAAAAAAAAAAABwgEBQYBAgP/xAAUAQEAAAAAAAAAAAAAAAAAAAAA/9oADAMBAAIQAxAAAAGv4AAAAAAAAAAAAAAAAAAAAAAAAAAAAAAAAAAAAAAAAAAAAAAAAAAAAAAAAAAAAAAAAAAAAAAAAAAAAAAAAAAAAAAAAAAAAAAAAAAAAAAAAAAAAAAAAAAAAAAAAAAAAAAAAAAAAAAAAAAAAAAAAAAAAAAAAAAAAAAAAAAAAAAAAAAAAAAAAAAAAAAAAAAAAAAAAAAAAAAAAAAAAAAAAAAAAAAAAAAAAAAAAAAAAAAAAAAAAAAAAAAAAAAAAAAAAAAAAAAAAAAAAAAAAAAAAAAAAAAAAAAAAAAAAAAAAAAAAAAAAAAAAAAAAAAAAAAAAAAAAAAAAAAAAAAAAAAAAAAAAAAAAAAAAAAAAAAAAAAAAAAAAAAAAAAAH7/hKxGflx/zKeLhini4Yp4uGKeLhini4Yp4uGKeLhini4Yp4uGKeLhini4Yp4uGKeLhini4Yp4uGKeLhini4Yp4uGKeLhini4Yp4uGKeLhini4Yp4uGKeLhini4Yp4uGKeLhini4Yp4uGKeLhini4Yp4uGKeLhini4Yp4uGKeLhini4Yp58XFggisAAAAAAAAAAAAAAAAAAAACQ48kMt3756GDzB2rih2rih2rih2rih2rih2rih2rih2riso6sAAAAAAAAAAAAAAAAAAAAAAAAAAAAHxVW1VVSLQAAAAAAAAAAAAAAAAAAAAJDjyQy3fvnpwtRb6Cha+goWvoKFr6Cha+goWvoKFr6Cha+goX19xQAAAAAAAAAAAAAAAAAAAAAAAAAAAAB8VVtVVUi0AAAAAAAAAAAAAAAAAAAACQ48kMt3756angOkrITuggTuggTuggTuggTuggTuggTuggTuggTuggTuggTuggTuggTuggTuggTuggTuggTuggTuggTuggTuggTuggTuggTuggTuggTuggTuggTuggTuggTuggTuggTuggTuggTuggTuggTuggTuggTzKNOrhntVbVVVItAAAAAAAAAAAAAAAAAAAAAkOPJDLd++egAAAAAAAAAAAAAAAAAAAAAAAAAAAAAAAAAAAAAHxVW1VVSLQAAAAAAAAAAAAAAAAAAAAJDjyQy3fvnoc5ChY5XEWOVxFjlcRY5XEWOVxFjlcRY5XEWOVxFjlcRY5XEWOVxFjlcRY5XEWOVxFjlcRY5XEWOVxFjlcRY5XEWOVxFjlcRY5XEWOVxFjlcRY5XEWOVxFjlcRY5XEWOVxFjlcRY5XEWOVxFjlcRY5XEWOVxFjlcRY5XSxAqraqqpFoAAAAAAAAAAAAAAAAAAAAEhx5IZbv3z05uELJitiyYrYsmK2LJitiyYrYsmK2LJitiyYrYsmK2LJitiyYrYsmK2LJitiyYrYsmK2LJitiyYrYsmK2LJitiyYrYsmK2LJitiyYrYsmK2LJitiyYrYsmK2LJitiyYrYsmK2LJitiyYrYsmK2LJitiyYrYsmK2LJit9jfsfFVbVVVItAAAAAAAAAAAAAAAAAAAAAkOPJDLd++egAAAAAAAAAAAAAAAAAAAAAAAAAAAAAAAAAAAAAHxVW1VVSLQAAAAAAAAAAAAAAAAAAAAJDjyQy3fvnpgcqqSW2VJFtlSRbZUkW2VJFtlSRbZUkW2VJFtlSRbZUkW2VJFtlSRbZUkW2VJFtlSRbZUkW2VJFtlSRbZUkW2VJFtlSRbZUkW2VJFtlSRbZUkW2VJFtlSRbZUkW2VJFtlSRbZUkW2VJFtlSRbZUkW2VJFtlSRbZUkW37ajF5T2qtqqqkWgAAAAAAAAAAAAAAAAAAAASHHkhlu/fPQAAAAAAAAAAAAAAAAAAAAAAAAAAAAAAAAAAAAAD4qraqqpFoAAAAAAAAAAAAAAAAAAAAEhx5IZbv3z0AAAAAAAAA478tTI5xzsRxzsRxzsRxzsRxzsRxzsRxzsRxzsRxzsRxzsRxzsRxzsRxzsRxzsRxzsRxzsRxzsRxzsRxzsRxzsRxzsRxzsRxzsRxzsRxzsRxzsRxzsRxzsRxvDTWK7rECu6xArusQK7rECu6xArusQK7rECu6xArusQK74dlOOKka3oOfAAAAAAAAAAEhx5IZbv3z00EPytAB1Llh1Llh1Llh1Llh1Llh1Llh1Llh1LlhLMnxhJ4K/FgVOBcdTgXHU4Fx1OBcdTgXHU4Fx1OBcdTgXHRfKAAAAAAAAAAAAAAAAAAAAAAAAAAAAA4XuuFKtc/0HPgAAAAAAAAACQ48kMt3756AAAAAAAAARlJsZSaOB74RCl4RCl4RCl4RCl4RCl4RCl4RCl4RCl4cx04AAAAAAAAAAAAAAAAAAAAAAAAAAAAOF7rhSrXP9Bz4AAAAAAAAAAkOPJDLd++egAAAAAAAAEZSbGUmis9mOaKdLZCpq2QqatkKmrZCpq2QqatkKmrZCpq2QqatkKmrZCpq2QqatkKmrZCpq2QqatkKmrZCpq2QqatkKmrZCpq2QqatkKmrZCpq2QqatkKmrZCpq2QqatkKmrZCpq2QqatkKmrZCpq2QqatkKmrZCpq2QqatkKmy9Km1Oj4XuuFKtc/wBBz4AAAAAAAAAAkOPJDLd++enNwjNsHn2+B9vgfb4H2+B9vgfb4H2+B9vgSNJ8YSeAAAAAAAAAAAAAAAAAAAAAAAAAAAAAAAAAAAAAAOF7rhSrXP8AQc+AAAAAAAAAAJDjyQy3fvnoAAAAAAAABGUmxlJo0u6q8T4pWLqKVi6ilYuopWLqKVi6ilYuopWLqKVi6ilYuopWLqKVi6ilYuopWLqKVi6ilYuopWLqKVi6ilYuopWLqKVi6ilYuopWLqKVi6ilYuopWLqKVi6ilYuopWLqKVi6ilYuopWLqKVi6ilYuopWLqKVi6ilYupm0emUspwvdcKVa5/oOfAAAAAAAAAAEhx5IZbv3z0AAAAAAAAAjKTYyk0fH2Ph9j4fY+H2Ph9j4fY+H2Ph9j4fY+H2Ph9j4fY+H2Ph9j4fY+H2Ph9j4fY+H2Ph9j4fY+H2Ph9j4fY+H2Ph9j4fY+H2Ph9j4fY+H2Ph9j4fY+H2Ph9j4fY+H2Ph9hwvdcKVa5/oOfAAAAAAAAAAEhx5IZbv3z0AAAAAAAAAjKTYyk0AAAAAAAAYWbx5l/jl7I0TejRN6NE3o0TejRN6NE3o0TejRN6NE3o0TejRN6NE3o0TejRN6NE3o0TejRN6NE3o0TejRN6NE3o0TejRN6NE3o0TejRN6NE3o0TejRaHuxXLX2dFYlnRWJZ0ViWdFYlnRWJZ0ViWdFYlnRWJZ0Vi09tYaK8flm4QkOPJDLd++eh+f4mUxRlMUZTFGUxRlMUZTFGUxRlMX0juTYyk0V7sJwhW5OQg1OQg1OQg1OQg1OQg1OQg1OQg3ImrSkt7nTbkFaCy6r4tAq+LQKvi0Cr4tAq+LQKvi0Cr4tAq+LQNfsAAAAAAAAAAAAAAAAAAAAAAAAAAAABBM7QSQJg52CJDjyQy3fvnpwlPr5acpKu0KSrtCkq7QpKu0KSrtCkq7QpKu0KS9har9Tj5NjKTQAAAAAAABxfacWbvc6bciBp5Ff1gBX9YAV/WAFf1gBX9YAV/WAFf1gBX9YAYeYAAAAAAAAAAAAAAAAAAAAAAAAAAAACCZ2gkgTBzsESHHkhlu/fPQAAAAAAAACMpNjKTQYBntSNs1I2zUjbNSNs1I2zUjbNSNtxe+5E6vc6bciodvIkITTOIYTOIYTOIYTOIYTOIYTOIYTOIYTOIYTOIYTOIYTOIYTOIYTOIYTOIYTOIYTOIYTOIYTOIYTOIYTOIYTOIYTOIYTOIYTOIYTOIYTOIYTOIYTOIYTOIYTOIYTOIYTOIYTOIYTOIYTOIYTOIYsjysim7gmdoJIEwc7BEhx5IZbv3z0AAAAAAAAAjKTYyk0VatLglDl6xRResUUXrFFF6xRResUUXrFFF6xRTbXV5E6nc6bcgAAAAAAAAAAAAAAAAAAAAAAAAAAAAAAAAAAAAACCZ2gkgTBzsESHHkhlu/fPTk652ejAjBJ4jBJ4jBJ4jBJ4jBJ4jBJ4jBJ4jBJ43UnxjJwAAAAAAAA4vtOLN3udNuR+P7UQL1KDi/Cg4vwoOL8KDi/Cg4vwoOL8KDi/Cg4vwoOL8KDi/Cg4vwoOL8KDi/Cg4vwoOL8KDi/Cg4vwoOL8KDi/Cg4vwoOL8KDi/Cg4vwoOL8KDi/Cg4vwoOL8KDi/Cg4vwoOL8KDi/Cg4vwoOL8KDi/Cg4vwoOL8fdBLckiQTO0EkCYOdgiQ48kMt3756AAAAAAAAARlJsZSaDRm8csOpcsOpcsOpcsOpcsOpcsOpcsOp4vL5c7jc6bcjmulHMumHMumHMumHMumHMumHMumHMumHMumHMumHMumHMumHMumHMumHMumHMumHMumHMumHMumHMumHMumHMumHMumHMumHMumHMumHMumHMumHMumHMumHMumHMumHMumHMumHMumHMumHMumHM7rMCCZ2gkgTBzsESHHkhlu/fPQAAAAAAAACMpNjKTRVy0YoGv4KBr+Cga/goGv4KBr+Cga/goGv4KB7a83Fm73Om3IAAAAAAAAAAAAAAAAAAAAAAAAAAAAAAAAAAAAAAgmdoJIEwc7BEhx5IZbv3z0NDEZPSBRPSBRPSBRPSBRPSBRPSBRPSBRPSBdsbeTYyk0AAAAAAAAcX2nFm73Om3IrJZuCzjnVDlXVDlXVDlXVDlXVDlXVDlXVDlXVDlXVDlXVDlXVDlXVDlXVDlXVDlXVDlXVDlXVDlXVDlXVDlXVDlXVDlXVDlXVDlXVDlXVDlXVDlXVDlXVDlXVDlXVDlXVDlXVDlXVDlXVDlXVDlXVDlZ4jGWTooJnaCSBMHOwRIceSGW7989OWr5awVTWsFU1rBVNawVTWsFU1rBVNawVTWsFU+gsYIyk2MpNAAAAAAAAHF9pxZu9zptyAAAAAAAAAAAAAAAAAAAAAAAAAAAAAAAAAAAAAAIJnaCSBMHOwRIceSGW7989AAAAAAAAAIyk2MpNAAAAAAAAHF9pxZu9zptyAAAAAAAAAAAAAAAAAAAAAAAAAAAAAAAAAAAAAAIJnaCSBMHOwRIceSGW7989AAAAAAAAAIyk2MpNBDRMqsgs2rILNqyCzasgs2rILNqyCzasgs3xcMY5Yrc6bcikN3uIKlLZipi2YqYtmKmLZipi2YqYtmKmLZipi2YqYtmKmLZipi2YqYtmKmLZipi2YqYtmKmLZipi2YqYtmKmLZipi2YqYtmKmLZipi2YqYtmKmLZipi2YqYtmKmLZipi2YqYtmKmLZipi2YqYtmKmLZipi2YqYtmKmWt/bpzZQTO0EkCYOdgiQ48kMt3756AAAAAAAAARlJsZSaImlkV2WJFdliRXZYkV2WJFdliRXZYkV2WJFdsOyvFm73Om3IAAAAAAAAAAAAAAAAAAAAAAAAAAAAAAAAAAAAAAgmdoJIEwc7BEhx5IZbv3z0AAAAAAAAAjKTYyk0AAAAAAAAcX2nFm73Om3IPD14PXg9eD14PXg9eD14PXg9eD14PXg9eD14PXg9eD14PXg9eD14PXg9eD14PXg9eD14PXg9eD14PXg9eD14PXg9eD14PXg9eD14PYJnaCSBMHOwRIceSGW7989OFqJennymy5IpsuSKbLkimy5IpsuSKbLkimy5IpsuSOck+MZOBxJ2yLxKCLxKCLxKCLxKCLxKCLxKCLxKHF6PREqbnTbkUOvjzxSFd0UiXdFIl3RSJd0UiXdFIl3RSJd0UiXdFIl3RSJd0UiXdFIl3RSJd0UiXdFIl3RSJd0UiXdFIl3RSJd0UiXdFIl3RSJd0UiXdFIl3RSJd0UiXdFIl3RSJd0UiXdFIl3RSJd0UiXdFIl3RSJd0UiXdFIl3RSK3fRbcy4JnaCSBMHOwRIceSGW7989AAAAAAAAAIyk2MpNFd7ECli6YpYumKWLpili6YpYumKWLpili6YpZl3I4s3e5025AAAAAAAAAAAAAAAAAAAAAAAAAAAAAAAAAAAAAAEEztBJAmDnYIkOPJDLd++egAAAAAAAAEZSbGUmgAAAAAAADi+04s3e5025AAAAAAAAAAAAAAAAAAAAAAAAAAAAAAAAAAAAAAEEztBJAmDnYIkOPJDLd++emiiWT6/nYuOHYuOHYuOHYuOHYuOHYuOHYuOHYuOEsyfGEngAAAAAAADi+04s3e5025AAAAAAAAAAAAAAAAAAAAAAAAAAAAAAAAAAAAAAEEztBJAmDnYIkOPJDLd++egAAAAAAAAEZSbGUmjDzKtFlFERe5REXuURF7lERe5REXuURF7lERe7kKgbYuhudNuQQgTegoTqgoTqgoTqgoTqgoTqgoTqgoTqgoTqw8wAAAAAAAAAAAAAAAAAAAAAAAAAAAAQTO0EkCYOdgiQ48kMt3756AAAAAAAAARlJsZSaNfsBqG3GobcahtxqG3GobcahtxqG3Go5GReLN3udNuRV20QqmtYKprWCqa1gqmtYKprWCqa1gqmtYKprWDX7AAAAAAAAAAAAAAAAAAAAAAAAAAAAAEEztBJAmDnYIkOPJDLd++egAAAAAAAAEZSbGUmgAAAAAAADi+04s3e5025AAAAAAAAAAAAAAAAAAAAAAAAAAAAAAAAAAAAAAEEztBJAmDnYIkOPJDLd++ekRwFbblCuixYrosWK6LFiuixYrosWK6LFiuixYrosWPJPjGTgAAAAAAABxfacWbvc6bcg5Q6tyQ61yQ61yQ61yQ61yQ61yQ61yQ61yQ61yQ61yQ61yQ61yQ61yQ61yQ61yQ61yQ61yQ61yQ61yQ61yQ61yQ61yQ61yQ61yQ61yQ61yQ61yQ61yQ61yQ61yQ61yQ61yQ61yQ61yQ61yQ61yQ61yW/M6CZ2gkgTBzsESHHkhlu/fPQAAAAAAAACMpNjKTQAAAAAAABxfacWbvc6bciil6/goUvqKFL6ihS+ooUvqKFL6ihS+ooUvqKFL6ihS+ooUvqKFL6ihS+ooUvqKFL6ihS+ooUvqKFL6ihS+ooUvqKFL6ihS+ooUvqKFL6ihS+ooUvqKFL6ihS+ooUvqKFL6ihS+ooUvqKFL6ihS+ooUvqKFL6ihS+ooVbbv/AE+oJnaCSBMHOwRIceSGW7989AAAAAAAAAIyk2MpNBEZLiuIscriLHK4ixyuIscriLHK4ixyuIsdxcS4pP8AudNuQAAAAAAAAAAAAAAAAAAAAAAAAAAAAAAAAAAAAABBM7QSQJg52CJDjyQy3fvnoAAAAAAAABGUmxlJoh6YRWpZUVqWVFallRWpZUVqWVFallRWpZUVqx7O8Wbvc6bcgAAAAAAAAAAAAAAAAAAAAAAAAAAAAAAAAAAAAACCZ2gkgTBzsESHHkhlu/fPQAAAAAAAACMpNjKTQAAAAAAABxfacWbvc6bcgpIXbUXF6FFxehRcXoUXF6FFxehRcXoUXF6FFxehqtqAAAAAAAAAAAAAAAAAAAAAAAAAAAAIJnaCSBMHOwRIceSGW7989CFq5l9VChfVQoX1UKF9VChfVQoX1UKF9VChfVQoWok2MJPBhmY142DXjYNeNg142DXjYNeNg142HF9Jx50+5025HA98I/SAI/SAI/SAI/SAI/SAI/SAI/SAI/SAMfIAAAAAAAAAAAAAAAAAAAAAAAAAAAABBM7QSQJg52CJDjyQy3fvnpqtL145B145B145B145B145B145B145B145B14jGToyk0VatLglDl7BRNewUTXsFE17BRNewUTXsFE17BRPbXW5E6jc6bcgAAAAAAAAAAAAAAAAAAAAAAAAAAAAAAAAAAAAACCZ2gkgTBzsESHHkhlu/fPQAAAAAAAACMpNjKTQAAAAAAABxfacWbvc6bcgAAAAAAAAAAAAAAAAAAAAAAAAAAAAAAAAAAAAACCZ2gkgTBzsESHHkhlu/fPQAAAAAAAACMpNjKTQAAAAAAABxfacWbvc6bcgAAAAAAAAAAAAAAAAAAAAAAAAAAAAAAAAAAAAACCZ2gkgTBzsESHHkhlu/fPQAAAAAAAACMpNjKTQRES6g8Tgg8Tgg8Tgg8Tgg8Tgg8Tgg8ThxfB6wmrc6bcghkmZCgmtCgmtCgmtCgmtCgmtCgmtCgmtCgmtCgmtCgmtCgmtCgmtCgmtCgmtCgmtCgmtCgmtCgmtCgmtCgmtCgmtCgmtCgmtCgmtCgmtCgmtCgmtCgmtCgmtCgmtCgmtCgmtCgmtCgmtCgmtCgmtCkmm+gmdoJIEwc7BEhx5IZbv3z05mCZ6hU17YDXtgNe2A17YDXtgNe2A17YDXtgO9k+MJPFaLLio63AqOtwKjrcCo63AqOtwKjrcCo63AqP9214s3e5025FTbZCoa3gqGt4KhreCoa3gqGt4KhreCoa3gqGt4KhreCoa3gqGt4KhreCoa3gqGt4KhreCoa3gqGt4KhreCoa3gqGt4KhreCoa3gqGt4KhreCoa3gqGt4KhreCoa3gqGt4KhreCoa3gqGt4KhreCoa3gqGt4KhreCodiezCCZ2gkgTBzsESHHkhlu/fPQAAAAAAAACMpNjKTQAAAAAAABxfacWbvc6bcgAAAAAAAAAAAAAAAAAAAAAAAAAAAAAAAAAAAAACCZ2gkgTBzsESHHkhlu/fy8P2fiP2fiP2fiP2fiP2fiP2fiP2fiP2fiP2fiI4k2MpNAAAAAAAAHF9pxZu9zptyAAAAAAAAAAAAAAAAAAAAAAAAAAAAAAAAAAAAAAIJnaCSBMHOwRudMJH/GPhIKPhIKPhIKPhIKPhIKPhIKPhIKPhIKPhIKPhbCT4wk8AAAAAAAAcX2nFm73Om3IpBd/hipi2AqetgKnrYCp62AqetgKnrYCp62AqetgKnrYCp62AqetgKnrYCp62AqetgKnrYCp62AqetgKnrYCp62AqetgKnrYCp62AqetgKnrYCp62AqetgKnrYCp62AqetgKnrYCp62AqetgKnrYCp62AqetgKnrYCp9rP06o2UEztBJAmDnYIAAAAAAAAAABbCT4wk8AAAAAAAAcX2nFm73Om3IAAAAAAAAAAAAAAAAAAAAAAAAAAAAAAAAAAAAAAgmdoJIEwc7BAAAAAAAAAAALYSfGEniCp1gEwGIMtiDLYgy2IMtiDLYgy2IMvEY5Yfc6bcgAAAAAAAAAAAAAAAAAAAAAAAAAAAAAAAAAAAAACCZ2gkgTBzsEAAAAAAAAAAAthJ8YSeAAAAAAAAOL7Tizd7nTbkMLhCSEbiSEbiSEbiSEbiSEbiSEbiSEbiSEbiSEbiSEbiSEbiSEbiSEbiSEbiSEbiSEbiSEbiSEbiSEbiSEbiSEbiSEbiSEbiSEbiSEbiSEbiSEbiSEbiSEbiSEbiSEbiSEbiSEbiSEbiSEbiSEbiSEbyAZEEztBJAmDnYIAAAAAAAAAABbCT4wk8AAAAAAAAcX2nFm73Om3JzVRbvikC74pAu+KQLvikC74pAu+KQLvikC74pAu+KQLvikC74pAu+KQLvikC74pAu+KQLvikC74pAu+KQLvikC74pAu+KQLvikC74pAu+KQLvikC74pAu+KQLvikC74pAu+KQLvikC74pAu+KQLvikC74pAu+KQLvikFytqEEztBJAmDnYIAAAAAAAAAABbCT4wk8AAAAAAAAcX2nFm73Om3IAAAAAAAAAAAAAAAAAAAAAAAAAAAAAAAAAAAAAAgmdoJIEwc7BAAAAAAAAAAALYSfGEng506Jxg7Nxg7Nxg7Nxg7Nxg7Nxg7Nxg7Pi/eaO/3Om3IAAAAAAAAAAAAAAAAAAAAAAAAAAAAAAAAAAAAAAgmdoJIEwc7BAAAAAAAAAAALYSfGEnisNnhQpfUUKX1FCl9RQpfUUKX1FCl9RQpfUUK2l4eLN3udNuQAAAAAAAAAAAAAAAAAAAAAAAAAAAAAAAAAAAAABBM7QSQJg52CAAAAAAAAAAAWwk+MJPAAAAAAAAHF9pxZu9zptyAAAAAAAAAAAAAAAAAAAAAAAAAAAAAAAAAAAAAAIJnaCSBMHOwQAAAAAAAAAAC2En133xNSFRNSFRNSFRNSFRNSFRNSFRNSFRNSFRNXF8TqiZtzptya2KpHq+SyiYSyiYSyiYSyiYSyiYSyiYSyiYSyiYSyiYSyiYSyiYSyiYSyiYSyiYSyiYSyiYSyiYSyiYSyiYSyiYSyiYSyiYSyiYSyiYSyiYSyiYSyiYSyiYSyiYSyiYSyiYSyiYSyiYSyiYSyiYSyiYSzLtSbXGygmdoJIEwc7BAAAAAAAAAAAM39daNk1o2TWjZNaNk1o2TWjZNaNk1o2TWjZbLm9sXQ3Om3IAAAAAAAAAAAAAAAAAAAAAAAAAAAAAAAAAAAAAAgmdoJIEwc7BAAAAAAAAAAAAAAAAAAAAG21O2LobnTbkAAAAAAAAAAAAAAAAAAAAAAAAAAAAAAAAAAAAAAQTO0EkCYOdggAAAAAAAAAAAAAAAAAAADbanbF0NzptyAAAAAAAAAAAAAAAAAAAAAAAAAAAAAAAAAAAAAAIJnaCSBMHOwQAAAAAAAAAAAAAAAAAAABttTti6G5025BimUxRlMUZTFGUxRlMUZTFGUxRlMUZTFGUxRlMUZTFGUxRlMUZTFGUxRlMUZTFGUxRlMUZTFGUxRlMUZTFGUxRlMUZTFGUxRlMUZTFGUxRlMUZTFGUxRlMUZTFGUxf2P0gmdoJIEwc7BAAAAAAAAAAAAAAAAAAAAG21O2LobnTbkUOvjpyjC84owvOKMLzijC84owvOKMLzijC84owvOKMLzijC84owvOKMLzijC84owvOKMLzijC84owvOKMLzijC84owvOKMLzijC84owvOKMLzijC84owvOKMLzijC84owvOKMLzijC84owvOKMLzijC84owvOKMLzijFu+szzJgmdoJIEwc7BAAAAAAAAAAAAAAAAAAAAG21O2LobnTbkAAAAAAAAAAAAAAAAAAAAAAAAAAAAAAAAAAAAAAQTO0EkCYOdggAAAAAAAAAAAAAAAAAAADbanZl09zFv6EnIxEnIxEnIxEnIxEnIxEnIxEnIxEnIxEnIxEnIxEnIxEnIxEnIxEnIxEnIxEnIxEnIxEnIxEnIxEnIxEnIxEnIxEnIxEnIxEnIxEnIxEnIxEnIxEnIxEnIxEnIxEnIxEnIxEnIxEnIxEnIxEnIxEnIxEnQT1EckRYOdggAAAAAAAAAAAAAAAAAAAD7+Bu/rRDetEN60Q3rRDetEN60Q3rRDetEN60Q3rRDetEN60Q3rRDetEN60Q3rRDetEN60Q3rRDetEN60Q3rRDetEN60Q3rRDetEN60Q3rRDetEN60Q3rRDetEN60Q3rRDetEN60Q3rRDetEN60Q3rRD9/wAAAAAAAAAAAAAAAAAAAAAAAAAAAAAAAAAAAAAAAAAAAAAAAAAAAAAAAAAAAAAAAAAAAAAAAAAAAAAAAAAAAAAAAAAAAAAAAAAAAAAAAAAAAAAAAAAAAAAAAAAAAAAAAAAAAAAAAAAAAAAAAAAAAAAAAAAAAAAAAAAAAAAAAAAAAAAAAAAAAAAAAAAAAAAAAAAAAAAAAAAAAAAAAAAAAAAAAAAAAAAAAAAAAAAAAAAAAAAAAAAAAAAAAAAAAAAAAAAAAAAAAAAAAAAAAAAAAAAAAAAAAAAAAAAAAAAAAAAAAAAAAAAAAAAAAA//xAAwEAABAgQFBAIDAQEAAgMBAAAABAUDFRYXAQIGFDQQEhM1EUAzUGAyByE2JDCgMf/aAAgBAQABBQL/APOjkhZ4ht4xt4pt4pt4pt4pt4pt4pt4pt4pt4pt4pt4pt4pt4pt4pt4pt4pt4pt4pt4pt4pt4pt4pt4pt4pt4pt4pt4pt4pt4pt4pt4pt4pt4pt4pt4pt4pt4pt4pt4pt4pt4pt4pt4pt4pt4pt4pt4pt4pt4pt4pt4pt4pt4pt4pt4pt4pt4pt4pt4pt4pt4pt4pt4pt4pt4pt4pt4pt4pt4pt4pt4pt4pt4pt4pt4pt4pt4pt4pjCz5f1mjFHjiZ2rPmxlEQlEQlEQlEQlEQlEQlEQlEQlEQlEQlEQlEQlEQlEQlEQlEQlEQlEQlEQlEQlEQlEQlEQlEQlEQlEQlEQlEQlEQlEQlEQlEQlEQlEQlEQlEQlEQlEQlEQlEQlEQlEQlEQlEQlEQlEQlEQlEQlEQlEQlEQlEQlEQlEQlEQlEQlEQlEQlEQlEQlEQlEQlEQlEQlEQlEQlEQlEQlEQlEQlEQlEQlEQlEQlEQlEQlEQlEQ1Bkz4KP1ek+d/HZv8ALvy/1ek+d0VKoKKBVjMVYzFWMxVjMVYzFWMxVjMVYzFWMxVjMVYzFWMxVjMVYzFWMxVjMJ9SNauN+6zf5d+X+r0nzumsMuObTm1jm1jm1jm1jm1jm1jm1jm1jm1jm1jm1jm1jm1jm1jm1jm1jmmE8bK//us3+Xfl/q9J87+Ozf5d+X+r0nzujgvhNiO4LOXBZy4LOXBZy4LOXBZy4LOXBZy4LOXBZy4LOXBZy4LOXBZy4LOXBZy4LOXBZy4LOXBZy4LOXBZy4LOXBZy4LOXBZy4LOXBZy4LOXBZy4LOXBZy4LOXBZy4LOXBZy4LOXBZy4LOXBZy4LOXBZy4LOXBZy4LOXBZy4LOXBZy4LOXBZy4LOXBZy4LOXBZy4LOXBZy4LOXBZy4LOXBZy4LOXBZy4LOXBZy4LOXBZy4LOXBZy4LOXBZy4LOXBZy4LOZdftGbHDH5wzf5d+X+r0nzumqEsVaxUm8lJvJSbyUm8lJvJSbyUm8lJvJSbyUm8lJvJSbyUm8lJvJSbyUm8lJvJSbyUm8lJvJSbyUm8lJvJSbyUm8lJvJSbyUm8lJvJSbyUm8lJvJSbyUm8lJvJSbyUm8lJvJSbyUm8lJvJSbyUm8lJvJSbyUm8lJvJSbyUm8lJvJSbyUm8lJvJSbyUm8lJvJSbyUm8lJvJSbyUm8lJvJSbyUm8lJvJSbyUm8lJvJSbyUm8lJvJSbyUm8kPSrzhEy/5zf5d+X+r0nzv47N/l35f6vSfO/js3+Xfl/q9J87+Ozf5d+X+r0nzuj445mlruUpLlKS5SkuUpLlKS5SkuUpLlKS5SkuUpLlKS5SkuUpLlKS5SkuUpLlKS5SkuUpLlKS5SkuUpLlKS5SkuUpLlKS5SkuUpLlKS5SkuUpLlKS5SkuUpLlKS5SkuUpLlKS5SkuUpLlKS5SkuUpLlKS5SkuUpLlKS5SkuUpLlKS5SkuUpLlKS5SkuUpLlKS5SkuUpLlKS5SkuUpLlKS5SkuUpLlKS5SkuUpLlKS5SkuUpLlKS5SkuUpMn/SFObNlx+cM3+Xfl/q9J87o+t+Z1arbLC2ywtssLbLC2ywtssLbLC2ywtssLbLC2ywtssLbLC2ywtssLbLC2ywtssLbLC2ywtssLbLC2ywtssLbLC2ywtssLbLC2ywtssLbLC2ywtssLbLC2ywtssLbLC2ywtssLbLC2ywtssLbLC2ywtssLbLC2ywtssLbLC2ywtssLbLC2ywtssLbLC2ywtssLbLC2ywtssLbLC2ywtssLbLC2ywtssLbLC2ywtssLbLC2ywtssLbLDJ/wA4WZc+XD4wzf5d+X+r0nzv47N/l35f6vSfO/js3+Xfl/q9J87+Ozf5d+X+r0nzuitXBQp6wZSsGUrBlKwZSsGUrBlKwZSsGUrBlKwZSsGUrBlKwZSsGUrBlKwZSsGUrBlKwZSsGUrBlKwZSsGUrBlKwZSsGUrBlKwZSsGUrBlKwZSsGUrBlKwZSsGUrBlKwZSsGUrBlKwZSsGUrBlKwZSsGUrBlKwZSsGUrBlKwZSsGUrBlKwZSsGUrBlKwZSsGUrBlKwZSsGUrBlKwZSsGUrBlKwZSsGUrBlKwZSsGUrBlKwZSsGUrBlKwZTDVzNjj8/Jm/y78v8AV6T53TV+TNE07sFRsFRsFRsFRsFRsFRsFRsFRsFRsFRsFRsFRsFRsFRsFRsFRsFRsFRsFRsFRsFRsFRsFRsFRsFRsFRsFRsFRsFRsFRsFRsFRsFRsFRsFRsFRsFRsFRsFRsFRsFRsFRsFRsFRsFRsFRsFRsFRsFRsFRsFRsFRsFRsFRsFRsFRsFRsFRsFRsFRsFRsFRsFRsFRsFRsFRsFRsFRsFRsFRsFRsFRsFRCQqvJk/xm/y78v8AV6T538dm/wAu/L/V6T538dm/y78v9XpPnfUyOkWLkmSomSomSomSomSomSomSomSomSomSomSomSomSomSomSomSomSomSomSomSomSomSomSomSomSomSomSomSomSomSomSomSomSomSomSomSomSomSomSomSomSomSomSomSomSomSomSomSomSomSomSomSomSomSomSomSomSomSoUM0JTEpBEUgiKQRFIIikERSCIpBEUgiKQRFIIikERSCIpBEUgiKQRFIIikERSCIpBEKtLok8JXDhw8/1tJ876mkse+D2ZTsynZlOzKdmU7Mp2ZTsynZlOzKdmU7Mp2ZTsynZlOzKdmU7Mp2ZTsynZlOzKdmU7Mp2ZTsynZlOzKdmU7Mp2ZTsynZlOzKdmU7Mp2ZTsynZlOzKdmU7Mp2ZTsynZlOzKdmU7Mp2ZTsynZlOzKdmU7Mp2ZTsynZlOzKdmU7Mp2ZTsynZlOzKdmU7Mp2ZTsynZlOzKdmU7Mp2ZTsynZlOzKdmU7MpqXP4Wxz+vpPndHlxlLbcsuWXLLllyy5ZcsuWXLLllyy5ZcsuWXLLllyzR2PzA/jtV+sc/r6T53TUKCK5s9vnYt87FvnYt87FvnYt87FvnYt87FvnYt87FvnYt87FvnYt87FvnYt87FvnY0b/4T9NaPzi2utXvRV70Ve9FXvRV70Ve9FXvRV70Ve9FXvRV70Ve9FXvRV70Ve9FXvRohyVOjd+61X6xz+vpPnfU0f8Ah6PGk0T2qt01Fumot01Fumot01Fumot01Fumot01Fumot01Fumot01Fumot01FumoZWROxJ/3Wq/WOf19J876mj/AMP8dqv1jn9fSfO+po/8PTXqxRAeZktJktJktJktJktJktJktJktJktJktJktJktJktJktJktJktJktJktJktJktJktJktJktJktJktJktJktJktJktJktJktJktJktJktJktJktJktJktJktJktJktJktJktJktJktJktJktJktJktJktJktJktJktJktJktJktJktJktJktJktJktJktJktJktJktJktJktJktJktJktJktJktJktP+fK46hzNV+sc/r6T531NH/h6LmFvco1IMpSDKUgylIMpSDKUgylIMpSDKUgylIMpSDKUgylIMpSDKUgylIMpSDKUgylIMpSDKUgylIMpSDKUgylIMpSDKUgylIMpSDKUgylIMpSDKUgylIMpSDKUgylIMpSDKUgylIMpSDKUgylIMpSDKUgylIMpSDKUgylIMpSDKUgylIMpSDKUgylIMpSDKUgylIMpSDKUgylIMpSDKUgylIMpSDKUgylIMpSDKUgylIMpSDKUgylIMogY0DXENV+sc/r6T53R9cczS1XJVlyVZclWXJVlyVZclWXJVlyVZclWXJVlyVZclWXJVlyVZclWXJVlyVZo7H5gfx2q/WOf19J87o+t+d1arbLi2y4tsuLbLi2y4tsuLbLi2y4tsuLbLi2y4tsuLbLi2y4tsuLbLi2y40dh8QP47VfrHP6+k+d9TR/4eil1Qo4lQNRUDUVA1FQNRUDUVA1FQNRUDUVA1FQNRUDUVA1FQNRUDUVA1FQNRUDUVA1FQNRUDUVA1FQNRUDUVA1FQNRUDUVA1FQNRUDUVA1FQNRUDUVA1FQNRUDUVA1FQNRUDUVA1FQNRUDUVA1FQNRUDUVA1FQNRUDUVA1FQNRUDUVA1FQNRUDUVA1FQNRUDUVA1FQNRUDUVA1FQNRUDUVA1FQNRUDUVA1FQNRUDUVA1FQNRUDUVA1FQNQmc0a3Oar9Y5/X0nzvqaP/AA9P+g5M2Z78Wc8Wc8Wc8Wc8Wc8Wc8Wc8Wc8Wc8Wc8Wc8Wc8Wc8Wc8Wc8Wc8Wc8Wc8Wc8Wc8Wc8Wc8Wc8Wc8Wc8Wc8Wc8Wc8Wc8Wc8Wc8Wc8Wc8Wc8Wc8Wc8Wc8Wc8Wc8Wc8Wc8Wc8Wc8Wc8Wc8Wc8Wc8Wc8Wc8Wc8Wc8Wc8Wc8Wc8Wc8Wc8Wc8Wc8Wc8Wc8Wc8Wc8Wc8Wc8Wc8Wc8Wc8Wc8Wc8Wc8Wc8Wc8Wc/5zkzZXQ1X6xz+vpPnfU0f+Hp8YYnbgduB24HbgduB24HbgduB24HbgduB24HbgduB24HbgduB24HbgduB24HbgduB24HbgduB24HbgduB24HbgduB24HbgduB24HbgduB24HbgduB24HbgduB24HbgduB24HbgduB24HbgduB24HbgduB24HbgduB24HbgduB24HbgduB24HbgduB24HbgduB24HbgfGGHTVfrHP6+k+d9TR/4f47VfrHP6+k+d9TR/4fpKY+CeFndO0nGJOMScYk4xJxiTjEnGJOMScYk4xJxiTjEnGJOMScYk4xJxiTjEnGJOMScYk4xJxiTjEnGJOMScYk4xJxiTjEnGJOMScYk4xJxiTjEnGJOMScYk4xJxiTjEnGJOMScYk4xJxiTjEnGJOMScYk4xJxiTjEnGJOMScYk4xHWPi5pVOl8VBRuJRuJRuJRuJRuJRuJRuJRuJRuJRuJRuJRuJRuJRuJRuJRuJRuJRuIu09lRZc+XtzdNJ876mj/wAP0tS58YbU3wYcVDs4Js4Js4Js4Js4Js4Js4Js4Js4Js4Js4Js4Js4Js4Js4Js4Js4Js4Js4Js4Js4Js4Js4Js4Js4Js4Js4Js4Js4Js4Js4Js4Js4Js4Js4Js4Js4Js4Js4Js4Js4Js4Js4Js4Js4Js4Js4Js4Js4Js4Js4Js4Js4Js4Js4Js4Js4Js4Js4Js4Js4Js4Js4Js4Js4Js4Js4Js4Js4Js4Js4Js4Js4Js4Js4Js4Js4Js4Jq/syR1WHbH6aT531NH/h6a1fHBudqseirHoqx6KseirHoqx6KseirHoqx6KseirHoqx6KseirHoqx6IL+5L4jV67+O1jzlfI6aT53TNmwy4biCbiCbiCbiCbiCbiCbiCbiCbiCbiCbiCbiCbiCbiCbiCbiCYR4WbHR/4ejvpRC9KbeNJbxpLeNJbxpLeNJbxpLeNJbxpLeNJbxpLeNJbxpLeNJbxpLeNI6aQQNCRq9d0j/8AQnOFHuM6FxnQuM6FxnQuM6FxnQuM6FxnQuM6FxnQuM6FxnQuM6FxnQuM6FxnQRxcyhJ+61jzlfI6aT53TWX/AK33Yndid2J3Yndid2J3Yndid2J3Yndid2J3Yndid2J3Ymls2NQaP/D9LVPp2r13SN/znzRraFtC2hbQtoW0LaFtC2hbQtoW0LaFtC2hbQSwdun/AHWsecr5HTSfO6R4ENTCkLWSFrJC1khayQtZIWskLWSFrJC1khayQtZIWskLWSFrJC1khayEzt8CJo/8P0tU+navXfx2secr5HTSfO+po/8AD9LVPp2r13RVqx5yKaveir3oq96Kveir3oq96Kveir3oq96Kveir3oq96Kveir3oq96Kveir3oq96Kveir3oq96Kveir3oq96Kveir3oq96Kveir3oq96Kveir3oq96Kveir3oq96Kveir3oq96Kveir3oq96Kveir3oq96Kveir3oq96Kveir3oq96Kveir3oq96Kveir3oq96Kveir3oq96Kveir3oq96Kveir3oq96Kveir3oq96Kveir3oq96KvejSiyOvYjWPOV8jppPnfU0f8Ah6RVieBmmaImaImaImaImaImaImaImaImaImaImaImaImaImaImaI1ItTRmpq9d0if8AP26LEt02Fumwt02Fumwt02Fumwt02Fumwt02Fumwt02Fumwt02Fumwt02Fumwt02Fumwt02Fumwt02Fumwt02Fumwt02Fumwt02Fumwt02Fumwt02Fumwt02Fumwt02Fumwt02Fumwt02Fumwt02Fumwt02Fumwt02Fumwt02Fumwt02Fumwt02Fumwt02Fumwt02Fumwt02Fumwt02Fumwt02Fumwt02Fumwt02Fumwt02Fumwt02Fumwt02Fumwt02DW2w2lEax5yvkdNJ876mj/w9P+h+8/8AvbeU1eu/jtY85XyOmk+d9TR/4ekRJAjYy5GS5GS5GS5GS5GS5GS5GS5GS5GS5GS5GS5GS5GS5GS5GakRpoLU1eu/jtY85XyOmk+d01ItjNzLXT2V09ldPZXT2V09ldPZXT2V09ldPZXT2V09ldPZXT2V09ldPZXT2V09mjeP9LVPp2r13TyZTyZDyZDyZDyZDyZDyZDyZDyZDyZDyZDyZDyZDyZDyZDyZDyZDyZDyZDyZDyZDyZDyZDyZDyZDyZDyZDyZDyZDyZDyZDyZDyZDyZDyZDyZDyZDyZDyZDyZDyZDyZDyZDyZDyZDyZDyZDyZDyZDyZDyZDyZDyZDyZDyZDyZDyZDyZDyZDyZDyZDyZDyZDyZDyZDyZDyZDyZDyZDyZDyZDyZDyZDyZDDH56ax5yvkdNJ87o6t2R1QW3Qlt0JbdCW3Qlt0JbdCW3Qlt0JbdCW3Qlt0JbdCW3Qlt0JbdCW3Qlt0Jo7D4gfS1T6dq9d0WY/wDzPnE+cT5xPnE+cT5xPnE+cT5xPnE+cT5xPnE+cT5xPnE+cT5xPnE+cT5xPnE+cT5xPnE+cT5xPnE+cT5xPnE+cT5xPnE+cT5xPnE+cT5xPnE+cT5xPnE+cT5xPnE+cT5xPnE+cT5xPnE+cT5xPnE+cT5xPnE+cT5xPnE+cT5xPnE+cT5xPnE+cT5xPnE+cT5xPnE0R/60ax5yvkdNJ876mj/w/S1T6dq9d0zMDZmxp5qKeainmop5qKeainmop5qKeainmop5qKeainmop5qKeainmop5qKeainmop5qKeainmop5qKeainmop5qKeainmop5qKeainmop5qKeainmop5qKeainmop5qKeainmop5qKeainmop5qKeainmop5qKeainmop5qKeainmop5qKeainmop5qKeainmop5qKeainmop5qKeainmop5qKeainmop5qKeainmop5qKeainmop5qE6eEkhGsecr5HTSfO+po/8PRU7IUUSo2kqNpKjaSo2kqNpKjaSo2kqNpKjaSo2kqNpKjaSo2kqNpKjaR/eW9Y2tXrv47WPOV8jppPnfU0f+Hp/wBCwxxfO3E7cTtxO3E7cTtxO3E7cTtxO3E7cTtxO3E7cTtxG7DHdNXrv47WPOV8jppPnfU0f+H6WqfTtXrv47WPOV8jppPnfU0f+H6WqfTtXruijX7pCUXEdi4jsXEdi4jsXEdi4jsXEdi4jsXEdi4jsXEdi4jsXEdi4jsXEdi4jsXEdi4jsXEdi4jsXEdi4jsXEdi4jsXEdi4jsXEdi4jsXEdi4jsXEdi4jsXEdi4jsXEdi4jsXEdi4jsXEdi4jsXEdi4jsXEdi4jsXEdi4jsXEdi4jsXEdi4jsXEdi4jsXEdi4jsXEdi4jsXEdi4jsXEdi4jsXEdi4jsXEdi4jsXEdi4jsXEdi4jsXEdi4jsXEdi4jsXEdjTjjFdmc1jzlfI6aT53R4cZS3XLyFy8hcvIXLyFy8hcvIXLyFy8hcvIXLyFy8hcvIXLyFy8hcvIXLyDXrzK5L9H/h+lqn07V67pG/5zlixbaZC2mQtpkLaZC2mQtpkLaZC2mQtpkLaZC2mQtpkLaZC2mQtpkLaZC2mQtpkLaZC2mQtpkLaZC2mQtpkLaZC2mQtpkLaZC2mQtpkLaZC2mQtpkLaZC2mQtpkLaZC2mQtpkLaZC2mQtpkLaZC2mQtpkLaZC2mQtpkLaZC2mQtpkLaZC2mQtpkLaZC2mQtpkLaZC2mQtpkLaZC2mQtpkLaZC2mQtpkLaZC2mQtpkLaZC2mQtpkLaZBlbJO3Gsecr5HTSfO6aiQxXJmt+7lv3ct+7lv3ct+7lv3ct+7lv3ct+7lv3ct+7lv3ct+7lv3ct+7lv3cY9GOaB20f+H6WqfTtXrv47WPOV8jppPnfU0f+H6WqfTtXrv47WPOV8jppPnfU0f8Ah+lqn07V67+O1jzlfI6aT531NH/h+lqn07V67+O1jzlfI6aT531NH/h+lqn07V67orcFeCuYrCYrCYrCYrCYrCYrCYrCYrCYrCYrCYrCYrCYrCYrCYrCYrCYrCYrCYrCYrCYrCYrCYrCYrCYrCYrCYrCYrCYrCYrCYrCYrCYrCYrCYrCYrCYrCYrCYrCYrCYrCYrCYrCYrCYrCYrCYrCYrCYrCYrCYrCYrCYrCYrCYrCYrCYrCYrCYrCYrCYrCYrCYrCYrCYrCYrCYrCYrCYrCYrCYrCYrCYrDRkTPF06ax5yvkdNJ876mj/AMPTVGrFTI43GcS4ziXGcS4ziXGcS4ziXGcS4ziXGcS4ziXGcS4ziXGcS4ziXGcSLrFW8ZWr13TNpFmz5qPZCj2Qo9kKPZCj2Qo9kKPZCj2Qo9kKPZCj2Qo9kKPZCj2Qo9kKPZCj2Qo9kKPZCj2Qo9kKPZCj2Qo9kKPZCj2Qo9kKPZCj2Qo9kKPZCj2Qo9kKPZCj2Qo9kKPZCj2Qo9kKPZCj2Qo9kKPZCj2Qo9kKPZCj2Qo9kKPZCj2Qo9kKPZCj2Qo9kKPZCj2Qo9kKPZCj2Qo9kKPZCj2Qo9kKPZCj2Qo9kKPZCj2Qo9kKPZCj2Qo9kKPZBGigN6c1jzlfI6aT531NH/h6aj0fnfV9tIxbSMW0jFtIxbSMW0jFtIxbSMW0jFtIxbSMW0jFtIxbSMW0jCnRcRmhNXrv47WPOV8jppPnfU0f+H6WqfTtXrv47WPOV8jppPnfU0f+H6WqfTtXrv47WPOV8jppPnfU0f8Ah+lqn07V67+O1jzlfI6aT53TWGOOXTm4jG4jG4jG4jG4jG4jG4jG4jG4jG4jG4jG4jG4jG4jG4jG4jG4jGjeP9LVPp2r13RbzP4nRH/rRrHnK+R00nzuihNCVwaZaCmWgploKZaCmWgploKZaCmWgploKZaCmWgploKZaCmWgploKZaCmWg0f+Ho6aob2ZTX7MV+zFfsxX7MV+zFfsxX7MV+zFfsxX7MV+zFfsxX7MV+zFfsw7asbnZG1eu6YsbbmxkTYSJsJE2EibCRNhImwkTYSJsJE2EibCRNhImwkTYSJsJE2EibCRNhImwkTYSJsJE2EibCRNhImwkTYSJsJE2EibCRNhImwkTYSJsJE2EibCRNhImwkTYSJsJE2EibCRNhImwkTYSJsJE2EibCRNhImwkTYSJsJE2EibCRNhImwkTYSJsJE2EibCRNhImwkTYSJsJE2EibCRNhImwkTYSJsJE2EibCRNhImwkTYQIEJNCNY85XyOmk+d9TR/4emt2Zevd6YdymHcph3KYdymHcph3KYdymHcph3KYdymHcph3KYdymHcph3IDI4IojV67+O1jzlfI6aT531NH/AIfpap9O1eu/jtY85XyOmk+d9TR/4fpap9O1eu/jtY85XyOmk+d9TR/4fpap9O1eu/jtY85XyOmk+d0d3HBpbrlwi5cIuXCLlwi5cIuXCLlwi5cIuXCLlwi5cIuXCLlwi5cIuXCLlwi5cI0dj8wPpap9O1eu/jtY85XyOmk+d01CgiubPb12Leuxb12Leuxb12Leuxb12Leuxb12Leuxb12Leuxb12Leuxb12Leuxb12NG/+E/0tU+navXfx2secr5HTSfO+po/8PSIqgQs2/Sm/Sm/Sm/Sm/Sm/Sm/Sm/Sm/Sm/Sm/Sm/Sm/Sm/Sm/SmpVUCK1NXrv47WPOV8jppPnfU0f+Hp/0P3n/AN7bymr13SL/ANGgwotyoBcqAXKgFyoBcqAXKgFyoBcqAXKgFyoBcqAXKgFyoBcqAXKgFyoAmi7hP+61jzlfI6aT531NH/h6RUSZRmlaElaElaElaElaElaElaElaElaElaElaElaElaElaElaE1GhSwGtq9d0UaDdoqi37wW/eC37wW/eC37wW/eC37wW/eC37wW/eC37wW/eC37wW/eC37wW/eBFCzQEn7rWPOV8jppPnfU0f+H6WqfTtXrv47WPOV8jppPnfU0f8Ah+lqn07V67+O1jzlfI6aT531NH/h+lqn07V67+O1jzlfI6aT53TXq5ShRVE7FROxUTsVE7FROxUTsVE7FROxUTsVE7FROxUTsVE7FROxUTsVE7FROxo3j/S1T6dq9d/Hax5yvkdNJ87o7MyV6hUEzFBMxQTMUEzFBMxQTMUEzFBMxQTMUEzFBMxQTMUEzFBMxQTMUEzFBMxo7/xA+lqn07V67pm1I05M1TtBU7QVO0FTtBU7QVO0FTtBU7QVO0FTtBU7QVO0FTtBU7QVO0FTtBU7QVO0FTtBU7QVO0FTtBU7QVO0FTtBU7QVO0FTtBU7QVO0FTtBU7QVO0FTtBU7QVO0FTtBU7QVO0FTtBU7QVO0FTtBU7QVO0FTtBU7QVO0FTtBU7QVO0FTtBU7QVO0FTtBU7QVO0FTtBU7QVO0FTtBU7QVO0FTtBU7QVO0FTtBU7QVO0FTtBU7QVO0FTtAlVQVkE1jzlfI6aT531NH/h+lqn07V67oshZ934Yh4Yh4Yh4Yh4Yh4Yh4Yh4Yh4Yh4Yh4Yh4Yh4Yh4Yh4Yh4Yh4Yh4Yh4Yh4Yh4Yh4Yh4Yh4Yh4Yh4Yh4Yh4Yh4Yh4Yh4Yh4Yh4Yh4Yh4Yh4Yh4Yh4Yh4Yh4Yh4Yh4Yh4Yh4Yh4Yh4Yh4Yh4Yh4Yh4Yh4Yh4Yh4Yh4Yh4Yh4Yh4Yh4Yh4Yh4Yh4Yh4Yh4Yh4Yh4Yh4Yh4Yh4Yh4Yh4Yh4Yh4Yh4YhonDHLps1jzlfI6aT531NH/h+lqn07V67p24HbgduB24HbgduB24HbgduB24HbgduB24HbgduB24HbgduB24HbgduB24HbgduB24HbgduB24HbgduB24HbgduB24HbgduB24HbgduB24HbgduB24HbgduB24HbgduB24HbgduB24HbgduB24HbgduB24HbgduB24HbgduB24HbgduB24HbgduB24HbgduB24Hbgf/AM6ax5yvkdNJ876mj/w/S1T6dq9d/Hax5yvkdNJ876mj/wAPTUmr4zEvuUpLlKS5SkuUpLlKS5SkuUpLlKS5SkuUpLlKS5SkuUpLlKS5SkUa0jPMNq9d/Hax5yvkdNJ876mj/wAPTU2kVD44W3Wlt1pbdaW3Wlt1pbdaW3Wlt1pbdaW3Wlt1pbdaW3Wlt1pbdaR9GKWbI1eu/jtY85XyOmk+d9TR/wCH6WqfTtXrv47WPOV8jppPnfU0f+H6WqfTtXrv47WPOV8jppPnfU0f+H6WqfTtXruitzW4K5ouJouJouJouJouJouJouJouJouJouJouJouJouJouJouJouG7HHM3/ALrWPOV8jppPnfU0f+H6WqfTtXrumfRjJEz0SxFEsRRLEUSxFEsRRLEUSxFEsRRLEUSxFEsRRLEUSxFEsRRLEUSxEKHlgw/3Wsecr5HTSfO6f9Fz5siDcRjcRjcRjcRjcRjcRjcRjcRjcRjcRjcRjcRjcRjcRjcRjcRjcRjRvH6RFMGFjvkpvkpvkpvkpvkpvkpvkpvkpvkpvkpvkpvkpvkpvkpvkpqVVAitTV67+O1jzlfI6aT53Ra3JXHJSzOUszlLM5SzOUszlLM5SzOUszlLM5SzOUszlLM5SzOUszlLM5SzOUszmj/w9P8AofvP/vbeU1eu/jtY85XyOmk+d9TR/wCHpESwI2aXJCXJCXJCXJCXJCXJCXJCXJCXJCXJCXJCXJCXJCXJCXJDUiRPCamr138drHnK+R00nzvqaP8Aw/S1T6dq9d/Hax5yvkdNJ876mj/w/S1T6dq9d/Hax5yvkdNJ876mj/w/S1T6dq9d/Hax5yvkdNJ876mj/wAP0tU+navXfx2secr5HTSfO+po/wDD9LVPp2r138drHnK+R00nzvqaP/D0cdeJ29bclKXJSlyUpclKXJSlyUpclKXJSlyUpclKXJSlyUpclKXJSlyUov1pAeU7V67pF/6IjhRLkoi5KIuSiLkoi5KIuSiLkoi5KIuSiLkoi5KIuSiLkoi5KIuSiLkoi5KIuSiLkoi5KIuSiLkoi5KIuSiLkoi5KIuSiLkoi5KIuSiLkoi5KIuSiLkoi5KIuSiLkoi5KIuSiLkoi5KIuSiLkoi5KIuSiLkoi5KIuSiLkoi5KIuSiLkoi5KIuSiLkoi5KIuSiLkoi5KIuSiLkoi5KIuSiLkoi5KIuSiLkoi5KIuSiLkoi5KIuSiLkohocsjugNY85XyOmk+d0f3CI1tNxnEuM4lxnEuM4lxnEuM4lxnEuM4lxnEuM4lxnEuM4lxnEuM4lxnEuM4lxnE0d/5gdHvSDstdqFeihXooV6KFeihXooV6KFeihXooV6KFeihXooV6KFeihXooV6MNLuTXi1eu6KdGPERTRD0UQ9FEPRRD0UQ9FEPRRD0UQ9FEPRRD0UQ9FEPRRD0UQ9FEPRRD0UQ9FEPRRD0UQ9FEPRRD0UQ9FEPRRD0UQ9FEPRRD0UQ9FEPRRD0UQ9FEPRRD0UQ9FEPRRD0UQ9FEPRRD0UQ9FEPRRD0UQ9FEPRRD0UQ9FEPRRD0UQ9FEPRRD0UQ9FEPRRD0UQ9FEPRRD0UQ9FEPRRD0UQ9FEPRRD0UQ9FEPRRD0UQ9FEPRRD0UQ9FEPRRD0aXQx21kNY85XyOmk+d0e27M7NdtVBbVQW1UFtVBbVQW1UFtVBbVQW1UFtVBbVQW1UFtVBbVQW1UFtVBbVQaOw+IH0tU+navXfx2secr5HTSfO+po/8P0tU+navXfx2secr5HTSfO+po/8P0tU+navXfx2secr5HTSfO+po/8AD9LVPp2r138drHnK+R00nzsc+XA8uQ8uQ8uQ8uQ8uQ8uQ8uQ8uQ8uQ8uQ8uQ8uQ8uQ8uQ8uQ8uQ8uQ8uQ8uQ0f8Ah+lqn07V67+O1jzlfI6N6rFLEiO2eLmmWJMsSZYkyxJliTLEmWJMsSZYkyxJliTLEmWJMsSZYkyxJliTLEmWJo3j/S1T6dq9d0Vr1eCuYrCYrCYrCYrCYrCYrCYrCYrCYrCYrCYrCYrCYrCYrCYrCYrCYrCYrCYrCYrCYrCYrCYrCYrCYrCYrCYrCYrCYrCYrCYrCYrCYrCYrCYrCYrCYrCYrCYrCYrCYrCYrCYrCYrCYrCYrCYrCYrCYrCYrCYrCYrCYrCYrCYrCYrCYrCYrCYrCYrCYrCYrCYrCYrCYrCYrCYrCYrCYrCYrCYrCYrCYrDRkTPF06ax5yvkfX0Zxvpap9O1eu6Z9Is+fNRrKUaylGspRrKUaylGspRrKUaylGspRrKUaylGspRrKUaylGspRrKUaylGspRrKUaylGspRrKUaylGspRrKUaylGspRrKUaylGspRrKUaylGspRrKUaylGspRrKUaylGspRrKUaylGspRrKUaylGspRrKUaylGspRrKUaylGspRrKUaylGspRrKUaylGspRrKUaylGspRrKUaylGspRrKUaylGspRrKUaylGspRrKUaylGspRrKI0UFvTmsecr5H19Gcb6WqfTtXrv47WPOV8j6+jON9LVPp2r138drHnK+R9fRnG6OuvI7c43KUlylJcpSXKUlylJcpSXKUlylJcpSXKUlylJcpSXKUlylJcpSKNaRnmG1eu/jtY85XyPr6M43R20KscHO3C8twvLcLy3C8twvLcLy3C8twvLcLy3C8twvLcLy3C8twvLcLyLo1Uz5Gr138drHnK+R9fRnG+lqn07V67+O1jzlfI+vozjfS1T6dq9cKlMNInrplK6ZSumUrplK6ZSumUrplK6ZSumUrplK6ZSumUrplK6ZSumUrplK6ZSumUrplK6ZSumUrplK6ZSumUrplK6ZSumUrplK6ZSumUrplK6ZSumUrplK6ZSumUrplK6ZSumUrplK6ZSumUrplK6ZSumUrplK6ZSumUrplK6ZSumUrplK6ZSumUrplK6ZSumUrplK6ZSumUrplK6ZSumUrplK6ZSumUrplK6ZSumUrplK6ZSumUrplK6ZSFEyxoRrHnK+R9fRnG+lqn07V64foeeMzSJ0JE6EidCROhInQkToSJ0JE6EidCROhInQkToSJ0JE6EidCROhInQkToSJ0JE6EidCROhInQkToSJ0JE6EidCROhInQkToSJ0JE6EidCROhInQkToSJ0JE6EidCROhInQkToSJ0JE6EidCROhInQkToSJ0JE6EidCROhInQkToSJ0JE6EidCROhInQkToSJ0JE6EidCROhInQkToSJ0JE6EidCROhInQkToSJ0JE6DflxyIDWPOV8j6+jON9LVPp2r138drHnK+R9fRnG+lqn07V67+O1jzlfI+vozjfS1T6dq9d/Hax5yvkfX0Zxvpap9O1eu/jtY85XyPr6M43Ra+N7dFqtmKrZiq2YqtmKrZiq2YqtmKrZiq2YqtmKrZiq2YqtmKrZiq2YfX5tXtzV67+O1jzlfI+vozjdP+gQomd628Y28Y28Y28Y28Y28Y28Y28Y28Y28Y28Y28Y28Y28Y28YQQYmRS1eu/jtY85XyPr6M430tU+navXfx2secr5H19Gcb6WqfTtXrv47WPOV8j6+jON9LVPp2r138drHnK+R9fRnG+lqn07V64XK8qBJcdAXHQFx0BcdAXHQFx0BcdAXHQFx0BcdAXHQFx0BcdAXHQFx0BcdAXHQFx0BcdAXHQFx0BcdAXHQFx0BcdAXHQFx0BcdAXHQFx0BcdAXHQFx0BcdAXHQFx0BcdAXHQFx0BcdAXHQFx0BcdAXHQFx0BcdAXHQFx0BcdAXHQFx0BcdAXHQFx0BcdAXHQFx0BcdAXHQFx0BcdAXHQFx0BcdAXHQFx0BcdAXHQFx0BcdAXHQFx0BcdAXHQECLgogGsecr5H12HUWRtT1rFK1jFaxitYxWsYrWMVrGK1jFaxitYxWsYrWMVrGK1jFaxitYxWsYrWMOGpYjkmavXD0niKmmi3sot7KLeyi3sot7KLeyi3sot7KLeyi3sot7KLeyi3sot7KLeyi3sot7KLeyi3sot7KLeyi3sot7KLeyi3sot7KLeyi3sot7KLeyi3sot7KLeyi3sot7KLeyi3sot7KLeyi3sot7KLeyi3sot7KLeyi3sot7KLeyi3sot7KLeyi3sot7KLeyi3sot7KLeyi3sot7KLeyi3sot7KLeyi3sot7KLeyi3sot7KLeyi3sot7KLeyi3sot7EMPNCRGsecr5H18iqJDN9GN9GN9GN9GN9GN9GN9GN9GN9GN9GN9GN9GN9GN9GN9GN9GN9GN9GESqJFUNXrv47WPOV8j9U28pq9d/Hax5yvkfqm3lNXrv47WPOV8j9U28pq9d/Hax5yvkfqm3lNXrv47WPOV8j9U28pq9d/Hax5yvkfqm3lNXrv47WPOV8j9U28pq9d03EI3EE3EE3EE3EE3EE3EE3EE3EE3EE3EE3EE3EE3EE3EE3EE3EE3EE3EE3EE3EE3EE3EE3EE3EE3EE3EE3EE3EE3EE3EE3EE3EE3EE3EE3EE3EE3EE3EE3EE3EE3EE3EE3EE3EE3EE3EE3EE3EE3EE3EE3EE3EE3EE3EE3EE3EE3EE3EE3EE3EE3EE3EE3EE3EE3EE3EE3EE3EE3EE3EE3EE3EE3EEy5sM+BrHnK+R+qbeU1eu6LOZ/E6I/8AWjWPOV8j9U28pq9d0xa0OJKkBKkBKkBKkBKkBKkBKkBKkBKkBKkBKkBKkBKkBKkBKkBKkBKkBKkBKkBKkBKkBKkBKkBKkBKkBKkBKkBKkBKkBKkBKkBKkBKkBKkBKkBKkBKkBKkBKkBKkBKkBKkBKkBKkBKkBKkBKkBKkBKkBKkBKkBKkBKkBKkBKkBKkBKkBKkBKkBKkBKkBKkBKkBKkBKkBKkBKkBKkBKkBKkBKkBKkBKkBCgw4GQ1jzlfI/VNvKavXfx2secr5H6pt5TV67+O1jzlfI/VNvKavXfx2secr5H6pBm7FKbVCNIhrNMVmmKzTFZpis0xWaYrNMVmmKzTFZpis0xWaYrNMVmmKzTFZpis0xWaYrNMVmmKzTFZpis0xWaYrNMVmmKzTFZpis0xWaYrNMVmmKzTFZpis0xWaYrNMVmmKzTFZpis0xWaYrNMVmmKzTFZpis0xWaYrNMVmmKzTFZpis0xWaYrNMVmmKzTFZpis0xWaYrNMVmmKzTFZpis0xWaYrNMVmmKzTFZpis0xWaYrNMVmmKzTFZpis0xWaYfXTI6KVfI/VZc3bjlcMcuWZYkyxJliTLEmWJMsSZYkyxJliTLEmWJMsSZYkyxJliTLEmWJMsSZYkyxJliTLEmWJMsSZYkyxJliTLEmWJMsSZYkyxJliTLEmWJMsSZYkyxJliTLEmWJMsSZYkyxJliTLEmWJMsSZYkyxJliTLEmWJMsSZYkyxJliTLEmWJMsSZYkyxJliTLEmWJMsSZYkyxJliTLEmWJMsSZYkyxJliTLEmWJMsSZYkWJ5Yn/5Vf/EABQRAQAAAAAAAAAAAAAAAAAAAMD/2gAIAQMBAT8BGwf/xAAUEQEAAAAAAAAAAAAAAAAAAADA/9oACAECAQE/ARsH/8QASRAAAQIDBQUEBwcCBQQABgMAAAECAwQ0MzWRkpMxMnKh0RARQOESRGBxc5SjEyFDUKKx0iKBFCNBUWFCYrLBBRVTY4KgJFLC/9oACAEBAAY/Av8A9dH/AC2Od7kLJ+Usn5SyflLJ+Usn5SyflLJ+Usn5SyflLJ+Usn5SyflLJ+Usn5SyflLJ+Usn5SyflLJ+Usn5SyflLJ+Usn5SyflLJ+Usn5SyflLJ+Usn5SyflLJ+Usn5SyflLJ+Usn5SyflLJ+Usn5SyflLJ+Usn5SyflLJ+Usn5SyflLJ+Usn5SyflLJ+Usn5SyflLJ+Usn5SyflLJ+Usn5SyflLJ+Usn5SyflLJ+Usn5SyflLJ+Usn5SyflLJ+Usn5SyflLJ+Usn5SyflLJ+Usn5SyflLJ+Usn5SyflLJ+U/qY5P7flkWF/wDUch396G1DahtQ2obUNqG1DahtQ2obUNqG1DahtQ2obUNqG1DahtQ2obUNqG1DahtQ2obUNqG1DahtQ2obUNqG1DahtQ2obUNqG1DahtQ2obUNqG1DahtQ2obUNqG1DahtQ2obUNqG1DahtQ2obUNqG1DahtQ2obUNqG1DahtQ2obUNqERiRGu9H/b8sZ8RPY9SZ96/ljPiJ2vjzT0hwmbzlK+HzK+HzK+HzK+HzK+HzK+HzK+HzK+HzK+HzK+HzK+HzK+HzK+HzK+HzK+HzK+HzGQZecZEivXuaif6/nakz71/LGfETtnkaiuXub9ycSFjEyFjEyFjEyFjEyFjEyFjEyFjEyFjEyFjEyFjEyFjEyFjEyFjEyFjEyFjEyFjEyEgroT0RIv+rfztSZ96/ljPiJ7HqTPvX8sZ8RO2JNTPf8AZQ970UPWNM9Y0z1jTPWNM9Y0z1jTPWNM9Y0z1jTPWNM9Y0z1jTPWNM9Y0z1jTPWNM9Y0z1jTPWNM9Y0z1jTPWNM9Y0z1jTPWNM9Y0z1jTPWNM9Y0z1jTPWNM9Y0z1jTPWNM9Y0z1jTPWNM9Y0z1jTPWNM9Y0z1jTPWNM9Y0z1jTPWNM9Y0z1jTPWNM9Y0z1jTPWNM9Y0z1jTPWNM9Y0z1jTPWNM9Y0z1jTPWNM9Y0z1jTPWNM9Y0z1jTPWNM9Y0z1jTPWNM9Y0z1jTPWNMRE/wAR9/8A9s7xSZ96/ljPiJ2zcCVYsSK9G+i1P9f6kLvi8i74vIu+LyLvi8i74vIu+LyLvi8i74vIu+LyLvi8i74vIu+LyLvi8i74vIu+LyLvi8i74vIu+LyLvi8i74vIu+LyLvi8i74vIu+LyLvi8i74vIu+LyLvi8i74vIu+LyLvi8i74vIu+LyLvi8i74vIu+LyLvi8i74vIu+LyLvi8i74vIu+LyLvi8i74vIu+LyLvi8i74vIu+LyLvi8i74vIu+LyLvi8i74vIu+LyLvi8i74vIu+LyLvi8i74vIu+LyLvi8i74vIu+LyLvi8i74vIu+LyLvi8i74vIu+LyLvi8i74vIu+LyLvi8hqrIRdv/AgpM+9fyxnxE9j1Jn3r+WM+InsepM+9fyxnxE9j1Jn3r+WM+InbMTjGJEdC7u5q+/uKGFnUoYWdShhZ1KGFnUoYWdShhZ1KGFnUoYWdShhZ1KGFnUoYWdShhZ1KGFnUoYWdShhZ1KGFnUoYWdShhZ1KGFnUoYWdShhZ1KGFnUoYWdShhZ1KGFnUoYWdShhZ1KGFnUoYWdShhZ1KGFnUoYWdShhZ1KGFnUoYWdShhZ1KGFnUoYWdShhZ1KGFnUoYWdShhZ1KGFnUoYWdShhZ1KGFnUoYWdShhZ1KGFnUoYWdShhZ1KGFnUoYWdShhZ1KGFnUoYWdShhZ1KGFnUoYWdShhZ1KGFnUoYWdShhZ1KGFnUoYWdShhZ1KGFnUoYWdShhZ1KGFnUoYWdShhZ1KGFnURP8AAwvvX/8Auoiikz71/LGfETtmJOG9GOi933r7+8rIGClZAwUrIGClZAwUrIGClZAwUrIGClZAwUrIGClZAwUrIGClZAwUrIGClZAwUrIGClZAwUrIGClZAwUrIGClZAwUrIGClZAwUrIGClZAwUrIGClZAwUrIGClZAwUrIGClZAwUrIGClZAwUrIGClZAwUrIGClZAwUrIGClZAwUrIGClZAwUrIGClZAwUrIGClZAwUrIGClZAwUrIGClZAwUrIGClZAwUrIGClZAwUrIGClZAwUrIGClZAwUrIGClZAwUrIGClZAwUrIGClZAwUrIGClZAwUrIGClZAwUrIGClZAwUrIGClZAwUrIGClZAwUrIGCjV/wAZA+5f9lEQUmfev5Yz4iex6kz71/LGfET2PUmfev5Yz4iex6kz71/LGfETtfHmn/ZwWbziuZgpXMwUrmYKVzMFK5mClczBSuZgpXMwUrmYKVzMFK5mClczBSuZgpXMwUrmYKVzMFK5mClczBSuZgpXMwUrmYKVzMFK5mClczBSuZgpXMwUrmYKVzMFK5mClczBSuZgpXMwUrmYKVzMFK5mClczBSuZgpXMwUrmYKVzMFK5mClczBSuZgpXMwUrmYKVzMFK5mClczBSuZgpXMwUrmYKVzMFK5mClczBSuZgpXMwUrmYKVzMFK5mClczBSuZgpXMwUrmYKVzMFK5mClczBSuZgpXMwUrmYKVzMFK5mClczBSuZgp3JPNwXsUmfev5Yz4ids62G1XOVG9yJxIU0bTUpo2mpTRtNSmjaalNG01KaNpqU0bTUpo2mpTRtNSmjaalNG01KaNpqU0bTUpo2mpTRtNSmjaalNG01KaNpqU0bTUpo2mpTRtNSmjaalNG01KaNpqU0bTUpo2mpTRtNSmjaalNG01KaNpqU0bTUpo2mpTRtNSmjaalNG01KaNpqU0bTUpo2mpTRtNSmjaalNG01KaNpqU0bTUpo2mpTRtNSmjaalNG01KaNpqU0bTUpo2mpTRtNSmjaalNG01KaNpqU0bTUpo2mpTRtNSmjaalNG01KaNpqU0bTUpo2mpTRtNSmjaalNG01KaNpqU0bTUpo2mpTRtNSmjaalNG01KaNpqU0bTUZ//ABo29/8ATUb7hSZ96/ljPiJ7HqTPvX8sZ8RPY9SZ96/ljPiJ4X0ofo4GxuU2NymxuU2NymxuU2NymxuU2NymxuU2NymxuU2NymxuU2NymxuU2NymxuU2NymxuU2NymxuU2NymxuU2NymxuU2NymxuU2NymxuU2NymxuU2NymxuU2NymxuU2NymxuU2NymxuU2NymxuU2NymxuU2NymxuU2NymxuU2NymxuU2NymxuU2NymxuU2NymxuU2NymxuU2Nyj3xPT73be4/GzH42Y/GzH42Y/GzH42Y/GzH42Y/GzH42Y/GzH42Y/GzH42Y/GzH42Y/GzH42Y/GzCv/wA77v8AuO6F393/AD4dnxE8LH9L7/6jdQ3UN1DdQ3UN1DdQ3UN1DdQ3UN1DdQ3UN1DdQ3UN1DdQ3UN1DdQ3UN1DdQ3UN1DdQ3UN1DdQ3UN1DdQ3UN1DdQ3UN1DdQ3UN1DdQ3UN1DdQ3UN1DdQ3UN1DdQ3UN1DdQ3UN1DdQ3UN1DdQ3UN1DdQ3UN1DdQ3UN1DdQ3UN1DdQ3UN1DdQ3UN1B/2fciqQ/7+HZ8RO2POfZ/a/Zd39Pf3d/39xdv1vIu363kXb9byLt+t5F2/W8i7freRdv1vIu363kXb9byLt+t5F2/W8i7freRdv1vIu363kXb9byLt+t5F2/W8iPxex6+8hf38Oz4idszKy3d9pE7u7v8AehtgZzbAzm2BnNsDObYGc2wM5tgZzbAzm2BnNsDObYGc2wM5tgZzbAzm2BnNsDObYGcj8Xa2FJTLoUP7JF7kRCuflQrn5UK5+VCuflQrn5UK5+VCuflQrn5UK5+VCuflQrn5UK5+VCuflQrn5UK5+VCuflQjxJ+MsaI2N6KKqf6dyfna+8hf38Oz4ieFmOLtSYm4kdr0b6P9Dk7v2Laczt/iW05nb/EtpzO3+JbTmdv8S2nM7f4ltOZ2/wAS2nM7f4ltOZ2/xLaczt/iW05nb/EtpzO3+JbTmdv8S2nM7f4ltOZ2/wAS2nM7f4ltOZ2/xHwJR0RzHv8ATX7Re/7/AM7X3kL+/h2fETwsxxex6+8hf38Oz4ieFmOLtY2DMRYbfsU+5r1QrJjVUrJjVUrJjVUrJjVUrJjVUrJjVUrJjVUrJjVUrJjVUrJjVUrJjVUrJjVUrJjVUrJjVUrJjVUrJjVUrJjVUrJjVUrJjVUrJjVUrJjVUrJjVUrJjVUrJjVUrJjVUrJjVUrJjVUrJjVUrJjVUrJjVUrJjVUrJjVUrJjVUrJjVUrJjVUrJjVUrJjVUrJjVUrJjVUrJjVUrJjVUrJjVUrJjVUrJjVUrJjVUrJjVUrJjVUrJjVUrJjVUrJjVUrJjVUrJjVUrJjVUrJjVUrJjVUrJjVUrJjVUrJjVUrJjVUrJjVUrJjVUrJjVUrJjVUrJjVUrJjVUrJjVUrJjVUrJjVUrJjVUrJjVUrJjVUrJjVUrJjVUmUjx4kVEgd/c96r/qnYvvIX9/Ds+InhZji7ftp2WbFid3d3qpQsxUoWYqULMVKFmKlCzFShZipQsxUoWYqULMVKFmKlCzFShZipQsxUoWYqULMVKFmKlCzFShZipQsxUoWYqULMVKFmKlCzFShZipQsxUoWYqULMVKFmKlCzFShZipQsxUoWYqULMVKFmKlCzFShZipQsxUoWYqULMVKFmKlCzFShZipQsxUoWYqULMVKFmKlCzFShZipQsxUoWYqULMVKFmKlCzFShZipQsxUoWYqULMVKFmKlCzFShZipQsxUoWYqULMVKFmKlCzFShZipQsxUoWYqULMVKFmKlCzFShZipQsxUdEkZdIL3J3KqL/AKdi+8hf38Oz4idsxNw2o90Lu+5ff3FHBzKUcHMpRwcylHBzKUcHMpRwcylHBzKUcHMpRwcylHBzKUcHMpRwcylHBzKUcHMpRwcylHBzKUcHMpH4vY9feQv7+HZ8RO2YlITmsfF7u5XbNveVcvzKuX5lXL8yrl+ZVy/Mq5fmVcvzKuX5lXL8yrl+ZVy/Mq5fmVcvzKuX5lXL8yrl+ZVy/Mj8XsevvIX9/Ds+InhZji7fs5ubgQH93f6L4iIXlK6yF5SusheUrrIXlK6yF5SusheUrrIXlK6yF5SusheUrrIXlK6yF5SusheUrrIXlK6yF5SusheUrrIXlK6yF5SusheUrrIXlK6yF5SusheUrrIXlK6yF5SusheUrrIXlK6yF5SusheUrrIXlK6yF5SusheUrrIXlK6yF5SusheUrrIXlK6yF5SusheUrrIXlK6yF5SusheUrrIXlK6yF5SusheUrrIXlK6yF5SusheUrrIXlK6yF5SusheUrrIXlK6yF5SusheUrrIXlK6yF5SusheUrrIXlK6yF5SusheUrrIXlK6yF5SusheUrrIXlK6yF5SusheUrrIXlK6yF5SusheUrrIXlK6yF5SusheUrrIXlK6yF5SusheUrrIXlK6yCsk5qDMPRO9UY9Hdi+8hf38Oz4ieFmOLtZ6LVX/JabjsDcdgbjsDcdgbjsDcdgbjsDcdgbjsDcdgbjsDcdgbjsDcdgbjsDcdgbjsDcdgbjsDcdgbjsDcdgbjsDcdgbjsDcdgbjsDcdgbjsDcdgbjsDcdgbjsDcdgbjsDcdgbjsDcdgbjsDcdgbjsDcdgbjsDcdgbjsDcdgbjsDcdgbjsDcdgbjsDcdgbjsDcdgbjsDcdgbjsDcdgbjsDcdgbjsDcdgbjsDcdgbjsDcdgbjsDcdgbjsDcdgbjsDcdgbjsCa9Jqp/kf/6TsX3kL+/h2fETwsxxduw2IbENiGxDYhsQ2IbENiGxDYhsQ2IbENiGxDYhsQ2IbENiGxDYhsQ2IbENiGxDYhsQ2IbENiGxDYhsQ2IbENiGxDYhsQ2IbENiGxDYhsQ2IbENiGxDYhsQ2IbENiGxDYhsQ2IbENiGxDYhsQ2IbENiGxDYhsQ2IfcnYvvIX9/Ds+InhZji9j195C/v4dnxE8LMcXg/TX7yy7/7ljzLHmWPMseZY8yx5ljzLHmWPMseZY8yx5ljzLHmWPMseZY8yx5ljzLHmWPMseZY8yx5ljzLHmWPMseZY8yx5ljzLHmWPMseZY8yx5ljzLHmWPMseZY8yx5ljzLHmWPMseZY8yx5ljzLHmWPMseZY8yx5ljzLHmWPMseYsH0fQ/5G/5/d3f9pU/oKn9BU/oKn9BU/oKn9BU/oKn9BU/oKn9BU/oKn9BU/oKn9BU/oKn9BU/oKn9B3umO/wD/ABFRPv7WfETwsxxeDiObt9JpAc9qKqtLNCzQs0LNCzQs0LNCzQs0LNCzQs0LNCzQs0LNCzQs0LNCzQs0LNCzQs0LNCzQs0LNCzQs0LNCzQs0LNCzQs0LNCzQs0LNCzQs0LNCzQs0LNCzQs0LNCzQs0LNCzQs0LNCzQs0LNCzQs0LNCzQs0LNCzQs0LNCzQs0LNCzQs0LNCzQs0LNCzQs0GQmw2ondtHonaz4ieFmOLtbCkpp8GH9ki9yf7l4ROReETkXhE5F4ROReETkXhE5F4ROReETkXhE5F4ROReETkXhE5F4ROReETkXhE5CQZubfFhLtapL8HsezhH9rPiJ297l7kLVmYtWZi1ZmLVmYtWZi1ZmLVmYtWZi1ZmLVmYtWZi1ZmLVmYtWZi1ZmLVmY7mxGKvETHF2pMTjoyPRvo/0O7v/AEb81qJ0N+a1E6G/NaidDfmtROhvzWonQ35rUTob81qJ0N+a1E6G/NaidDfmtROhvzWonQ35rUTob81qJ0N+a1E6G/NaidB01KujrEaqJ/W9O79iX4O2KxIEp3Ncqbjv5FhJ5HfyLCTyO/kWEnkd/IsJPI7+RYSeR38iwk8jv5FhJ5HfyLCTyO/kWEnkd/IsJPI7+RYSeR38iwk8jv5FhJ5HfyLCTyO/kWEnkd/IsJPI7+RBiv7vSexHL3fnbOEf2s+InbPe5v8A5IbVNqm1TaptU2qbVNqm1TaptU2qbVNqm1Tap/8AD/v/ABSY4vBxOJv7kvwdsSJ/8w7vScq2PmXj9HzLx+j5l4/R8y8fo+ZeP0fMvH6PmXj9HzLx+j5l4/R8y8fo+ZeP0fMvH6PmXj9HzLx+j5l4/R8y8fo+ZChd/pfZsRvf+ds4R/az4idqwpiG2LDdta5O9FLulNFpd0potLulNFpd0potLulNFpd0potLulNFpd0potLulNFpd0potLulNFpd0potLulNFpd0potLulNFpd0potGxIMjLw4jdjmwkRUJji8HE4m/uS/B7Hs4R/az4ieFmOLwcTib+5L8HbGayeeiI9UT+lCvflQr35UK9+VCvflQr35UK9+VCvflQr35UK9+VCvflQr35UK9+VCvflQr35UK9+VCvflQr35UK9+VCvflQr35UK9+VCvflQr35UK9+VCvflQr35UK9+VCvflQr35UK9+VCvflQr35UK9+VCvflQr35UK9+VCvflQr35UK9+VCvflQr35UK9+VCvflQr35UK9+VCvflQr35UK9+VCvflQr35UK9+VCvflQr35UK9+VCvflQr35UK9+VCvflQr35UK9+VCvflQr35UK9+VCvflQr35UK9+VCvflQr35UK9+VCvflQr35UK9+VCvflQlpibf9pFd6Xe7/APJexnCP7WfETwsxxdvox48KE7/Zz0QrJfVQrJfVQrJfVQrJfVQrJfVQrJfVQrJfVQrJfVQrJfVQrJfVQrJfVQrJfVQrJfVQrJfVQrJfVQiMgzEKI70m/c16L/qS/B2vesaY73L37ULaYzIW0xmQtpjMhbTGZC2mMyFtMZkLaYzIW0xmQtpjMhbTGZC2mMyFtMZkLaYzIW0xmQtpjMhbTGZC2mMyFtMZkLaYzIW0xmQtpjMhbTGZC2mMyFtMZkLaYzIW0xmQtpjMhbTGZC2mMyFtMZkLaYzIW0xmQtpjMhbTGZC2mMyFtMZkLaYzIW0xmQtpjMhbTGZC2mMyFtMZkLaYzIW0xmQtpjMhbTGZC2mMyFtMZkLaYzIW0xmQtpjMhbTGZC2mMyFtMZkLaYzIW0xmQtpjMhbTGZC2mMyFtMZkLaYzIW0xmQtpjMhbTGZC2mMyFtMZkLaYzIW0xmQtpjMhbTGZC2mMyFtMZkLaYzIQ5SXVzobO/u9Lbt7GcI/tZ8RPCzHF2s+A3/34BvuJfg9j2cI/tZ8RPCzHF2+lGgQ4jv8AdzEUpIGkhSQNJCkgaSFJA0kKSBpIUkDSQpIGkhSQNJCkgaSFJA0kKSBpIUkDSQpIGkhSQNJCkgaSER0KBChu9Jv3tYiEvwex7OEf2s+InbNTMq70YsNG+ivd3/8AUhUM0mlQzSaVDNJpUM0mlQzSaVDNJpUM0mlQzSaVDNJpUM0mlQzSaVDNJpUM0mlQzSaVDNJpUM0mlSzSaR/f4OJxN/cl+Dt3kxN5MTeTE3kxN5MTeTE3kxN5MTeTE3kxN5MTeTE3kxN5MTeTE3kxN5MTeTE3kxN5MTeTE3kxN5MTeTE3kxN5MTeTE3kxN5MTeTE3kxN5MTeTE3kxN5MTeTE3kxN5MTeTE3kxN5MTeTE3kxN5MTeTE3kxN5MTeTE3kxN5MTeTE3kxN5MTeTE3kxN5MTeTE3kxN5MTeTE3kxN5MTeTE3kxN5MTeTE3kxN5MTeTE3kxN5MTeTE3kxN5MT7uxnCP7WfETtiykZzmMi93erdu3vKuZ/SVcz+kq5n9JVzP6Srmf0lXM/pKuZ/SVcz+kq5n9JVzP6Srmf0lXM/pKuZ/SVcz+kq5n9JVzP6Srmf0kfi8HE4m/uS/B2zHxHfv7FSnvf8A+S9jOEf2s+InhZji8HE4m/uS/B2qrpGAqr/2FBAyFBAyFBAyFBAyFBAyFBAyFBAyFBAyFBAyFBAyFBAyFBAyFBAyFBAyFBAyFBAyFBAyFBAyFBAyFBAyFBAyFBAyFBAyFBAyFBAyFBAyFBAyFBAyFBAyFBAyFBAyFBAyFBAyFBAyFBAyFBAyFBAyFBAyFBAyFBAyFBAyFBAyFBAyFBAyFBAyFBAyFBAyFBAyFBAyFBAyFBAyFBAyFBAyFBAyFBAyFBAyFBAyFBAyFBAyFBAyFBAyFBAyFBAyFBAyFBAyFBAyFBAyFBAyFBAyFBAyFBAyFBAyFBAyDYUtDbCht2NanYzhH9rPiJ4WY4u37ObmoUF/d3+i93cXhL6heEvqF4S+oXhL6heEvqF4S+oXhL6heEvqF4S+oXhL6heEvqF4S+oXhL6heEvqF4S+oPhSs5BixFcn9LXkvwex7OEf2s+InhZji7Wfd+A3/wBmxTYpsU2KbFNimxTYpsU2KbFNimxTYpsUb9xL8HsezhH9rPiJ4WY4vBxOJv7kvwex7OEf2s+InhZji8HE4m/uS/B2xWNZK9zXqm4vUs5XIvUs5XIvUs5XIvUs5XIvUs5XIvUs5XIvUs5XIvUs5XIvUs5XIvUs5XIvUs5XIvUs5XIvUs5XIvUs5XIvUs5XIvUs5XIvUs5XIvUs5XIvUs5XIvUs5XIvUs5XIvUs5XIvUs5XIvUs5XIvUs5XIvUs5XIvUs5XIvUs5XIvUs5XIvUs5XIvUs5XIvUs5XIvUs5XIvUs5XIvUs5XIvUs5XIvUs5XIvUs5XIvUs5XIvUs5XIvUs5XIvUs5XIvUs5XIvUs5XIvUs5XIvUs5XIvUs5XIvUs5XIvUs5XIvUs5XIvUs5XIvUs5XIvUs5XIvUs5XIvUs5XIvUs5XIvUs5XIvUs5XIvUs5XIvUs5XIvUs5XIvUs5XIvUs5XIvUs5XIvUs5XIvUs5XIvUs5XIvUs5XIvUs5XIvUs5XIvUs5XIvUs5XIvUs5XIvUgTcyjUiv9Lv8ART7t7sZwj+1nxE7Y84sP7X7Lu/p7+7v+/uLudr+RdztfyLudr+RdztfyLudr+RdztfyLudr+RdztfyLudr+RdztfyLudr+RdztfyLudr+RdztfyLudr+RdztfyJeUSRWH9q70fS+17+7kTHF4OJxN/cl+DtiRP8A5gqek5VsvMvF2l5l4u0vMvF2l5l4u0vMvF2l5l4u0vMvF2l5l4u0vMvF2l5l4u0vMvF2l5l4u0vMvF2l5l4u0vMvF2l5l4u0vMvF2l5l4u0vMvF2l5l4u0vMvF2l5l4u0vMvF2l5l4u0vMvF2l5l4u0vMvF2l5l4u0vMvF2l5l4u0vMvF2l5l4u0vMvF2l5l4u0vMvF2l5l4u0vMvF2l5l4u0vMvF2l5l4u0vMvF2l5l4u0vMvF2l5l4u0vMvF2l5l4u0vMvF2l5l4u0vMvF2l5l4u0vMvF2l5l4u0vMvF2l5l4u0vMvF2l5l4u0vMvF2l5l4u0vMvF2l5l4u0vMvF2l5l4u0vMvF2l5l4u0vMvF2l5l4u0vMvF2l5l4u0vMvF2l5l4u0vMvF2l5l4u0vMvF2l5kKTSJ9r9n3/1d3dtXv7GcI/tZ8RO2alZbu+1iInd3r/3IbIGobIGobIGobIGobIGobIGobIGobIGobIGobIGobIGobIGobIGobIGobIGobIGoSszMfZfZw397u55McXg4nE39yX4PY9nCP7WfETwsxxeDicTf3Jfg9j2cI/tZ8RPCzHF4OJxN/cl+D2PZwj+1nxE8LMcXg4nE39yX4PY9nCP7WfETwsxxeDicTf3Jfg7Y6JNR7R34i/7lXH1FKuPqKVcfUUq4+opVx9RSrj6ilXH1FKuPqKVcfUUq4+opVx9RSrj6ilXH1FKuPqKVcfUUq4+opVx9RSrj6ilXH1FKuPqKVcfUUq4+opVx9RSrj6ilXH1FKuPqKVcfUUq4+opVx9RSrj6ilXH1FKuPqKVcfUUq4+opVx9RSrj6ilXH1FKuPqKVcfUUq4+opVx9RSrj6ilXH1FKuPqKVcfUUq4+opVx9RSrj6ilXH1FKuPqKVcfUUq4+opVx9RSrj6ilXH1FKuPqKVcfUUq4+opVx9RSrj6ilXH1FKuPqKVcfUUq4+opVx9RSrj6ilXH1FKuPqKVcfUUq4+opVx9RSrj6ilXH1FJV8V7nu73/e5e/8A6l7GcI/tZ8RPCzHF2tl5aFCe1YaO/qKeX5lPL8ynl+ZTy/Mp5fmU8vzKeX5lPL8ynl+ZTy/Mp5fmU8vzKeX5lPL8ynl+Z/hZiFBax3397SX4O1XPkWqqr3r/AFu6lA3O7qUDc7upQNzu6lA3O7qUDc7upQNzu6lA3O7qUDc7upQNzu6lA3O7qUDc7upQNzu6lA3O7qUDc7upQNzu6lA3O7qUDc7upQNzu6lA3O7qUDc7upQNzu6lA3O7qUDc7upQNzu6lA3O7qUDc7upQNzu6lA3O7qUDc7upQNzu6lA3O7qUDc7upQNzu6lA3O7qUDc7upQNzu6lA3O7qUDc7upQNzu6lA3O7qUDc7upQNzu6lA3O7qUDc7upQNzu6lA3O7qUDc7upQNzu6lA3O7qUDc7upQNzu6lA3O7qUDc7upQNzu6lA3O7qUDc7upQNzu6lA3O7qUDc7upQNzu6lA3O7qUDc7upQNzu6lA3O7qUDc7upQNzu6lA3O7qUDc7upQNzu6lA3O7qUDc7upQNzu6lA3O7qNl5Rn2cFuxvf2M4R/az4ieFmOLtbMsmmwURiN7lZ3l4M0vMvBml5l4M0vMvBml5l4M0vMvBml5l4M0vMvBml5l4M0vMvBml5l4M0vMvBml5l4M0vMvBml5l4M0vM/xbptsVG/d6KM7iX4PY9nCP7WfETwsxxeDicTf3Jfg9j2cI/tZ8RPCzHF4OJxN/cl+D2PZwj+1nxE8LMcXg4nE39yX4PY9nCP7WfETtnlaqovc3ZxIWr8xavzFq/MWr8xavzFq/MWr8xavzFq/MWr8xavzFq/MWr8xavzFq/MWr8xavzEf3+DicTf3Jfg7Zj4jv39ipT3v/wDJexnCP7WfETtdBmYaRYTt5rv9S7pfIXdL5C7pfIXdL5C7pfIXdL5C7pfIXdL5C7pfIXdL5C7pfIXdL5C7pfIXdL5C7pfIXdL5C7pfITHF2pAnViJE9H0v6Wd5vxtM342mb8bTN+Npm/G0zfjaZvxtM342mb8bTN+Npm/G0zfjaZvxtM342mb8bTHS0o6J9q5UVO9ncS/B2qrpCXVV/wDtIXfLaSF3y2khd8tpIXfLaSF3y2khd8tpIXfLaSF3y2khd8tpIXfLaSF3y2khd8tpIXfLaSF3y2khd8tpIXfLaSF3y2khd8tpIXfLaSF3y2khd8tpIXfLaSF3y2khd8tpIXfLaSF3y2khd8tpIXfLaSF3y2khd8tpIXfLaSF3y2khd8tpIXfLaSF3y2khd8tpIXfLaSF3y2khd8tpIXfLaSF3y2khd8tpIXfLaSF3y2khd8tpIXfLaSF3y2khd8tpIXfLaSF3y2khd8tpIXfLaSF3y2khd8tpIXfLaSF3y2khd8tpIXfLaSF3y2khd8tpIXfLaSF3y2khd8tpIXfLaSF3y2khd8tpIXfLaSF3y2khd8tpIXfLaSF3y2khd8tpIXfLaSCQ5eG2FDTY1qdyJ2M4R/az4ieFmOLtbEk5WJGZ9kid7UKCNgUEbAoI2BQRsCgjYFBGwKCNgUEbAoI2BQRsCgjYFBGwKCNgUEbAoI2AkablIsKGn/U5CX4PY9nCP7WfETwsxxeDicTf3Jfg9j2cI/tZ8RPCzHF4OJxN/cl+D2PZwj+1nxE8LMcXg4nE39yX4PY9nCP7WfETtjzis+1SF3f09/d3/f3F3P1fIu5+r5F3P1fIu5+r5F3P1fIu5+r5F3P1fIu5+r5F3P1fIu5+r5F3P1fIu5+r5F3P1fIu5+r5F3P1fIu5+r5F3P1fIj8Xg4nE39yX4PY9nCP7WfETtmZSW9H7WJ3d3pL928htltRehtltRehtltRehtltRehtltRehtltRehtltRehtltRehtltRehtltRehtltRehtltRehtltRehtltRehtltRehtltRehtltRehH4vBxOJv7kvwex7OEf2s+InhZji7e6LGhsd/s53cVUHUQqoOohVQdRCqg6iFVB1EKqDqIVUHUQqoOohVQdRCqg6iFVB1EKqDqIVUHUQqoOohVQdRCI2FGhvd6TfuRyKS/B7Hs4R/az4ieFmOLtZ8Bv/AL8A33Evwdr4f+AiL6Lu60KCJqFBE1CgiahQRNQoImoUETUKCJqFBE1CgiahQRNQoImoUETUKCJqFBE1CgiahQRNQhRUTu+0Yju787Zwj+1nxE8LMcXb6UeBCiO/3czvKOX0kKOX0kKOX0kKOX0kKOX0kKOX0kKOX0kKOX0kKOX0kKOX0kKOX0kKOX0kKOX0kKOX0kKOX0kHvgy8KG/0k/qaxE/1Jfg7Yr2/Ydznqqf5h+BqH4Gofgah+BqH4Gofgah+BqH4Gofgah+BqH4Gofgah+BqH4Gofgah+BqECFE3mQ0av52zhH9rPiJ4WY4vBxOJv7kvwex7OEf2s+InhZji8HE4m/uS/B7Hs4R/az4ieFmOLwcTib+5L8HsezhH9rPiJ2yrpOPEgOdF7lVju7/QvKa1VLymtVS8prVUvKa1VLymtVS8prVUvKa1VLymtVS8prVUvKa1VLymtVS8prVUvKa1VLymtVS8prVUvKa1VLymtVSP7/BxOJv7kvwex7OEf2s+InayHPI5WsXvTud3FnF1Szi6pZxdUs4uqWcXVLOLqlnF1Szi6pZxdUs4uqWcXVLOLqlnF1Szi6pZxdUs4uqWcXVI/F4OJxN/cl+DtVrp+Ciovcv9ReEDMXhAzF4QMxeEDMXhAzF4QMxeEDMXhAzF4QMxeEDMXhAzF4QMxeEDMXhAzF4QMxeEDMXhAzF4QMxeEDMXhAzF4QMxeEDMXhAzF4QMxeEDMXhAzF4QMxeEDMXhAzF4QMxeEDMXhAzF4QMxeEDMXhAzF4QMxeEDMXhAzF4QMxeEDMXhAzF4QMxeEDMXhAzF4QMxeEDMXhAzF4QMxeEDMXhAzF4QMxeEDMXhAzF4QMxeEDMXhAzF4QMxeEDMXhAzF4QMxeEDMXhAzF4QMxeEDMXhAzF4QMxeEDMXhAzF4QMxeEDMXhAzF4QMxeEDMNjSsRIsJ2xzexnCP7WfETwsxxeDicTf3Jfg7Y/9DrR3+n/JuOwNx2BuOwNx2BuOwNx2BuOwNx2BuOwNx2BuOwNx2BuOwNx2BuOwNx2BuOwNx2BuOwNx2BuOwNx2BuOwNx2BuOwNx2BuOwNx2BuOwNx2BuOwNx2BuOwNx2BuOwNx2BuOwNx2BuOwNx2BuOwNx2BuOwNx2BuOwNx2BuOwNx2BuOwNx2BuOwNx2BuOwNx2BuOwNx2BuOwNx2BuOwNx2BuOwNx2BuOwNx2BuOwNx2BuOwNx2BuOwNx2BuOwNx2BuOwJRFTu+9//AJL2M4R/az4ieFmOLwcTib+5L8HbsQ3UN1DdQ3UN1DdQ3UN1DdQ3UN1DdQ3UN1DdQ3UN1DdQ3UN1DdQ3UN1DdQ3UN1DdQ3UN1DdQ3UN1DdQ3UN1DdQ3UN1DdQ3UN1DdQ3UN1DdQ3UN1DdQ3UN1DdQ3UN1DdQ3UN1DdQ3UN1DdQ3UN1DdQ3UN1DdQ3UN1DdQ3UN1DdQ3U7WcI/tZ8RPCzHF4OJxN/cl+D2PZwj+1nxE8LMcXaktClmRUViO73OKGFnUoYWdShhZ1KGFnUoYWdShhZ1KGFnUoYWdShhZ1KGFnUoYWdShhZ1KGFnUoYWdShhZ1P8JElYcJHff6SOJfg9j2cI/tZ8RPCzHF2tmYEeFDakNG9zu8q4GClXAwUq4GClXAwUq4GClXAwUq4GClXAwUq4GClXAwUq4GClXAwUq4GClXAwUq4GCn+LjTEKI1v3dze8l+D2PZwj+1nxE8LMcXg4nE39yX4PY9nCP7WfETwsxxeDicTf3Jfg9j2cI/tZ8RPCzHF4OJxN/cl+Dtjok3HRPtHfiL/ALlZH1FKyPqKVkfUUrI+opWR9RSsj6ilZH1FKyPqKVkfUUrI+opWR9RSsj6ilZH1FKyPqKVkfUUrI+opKq5e9VhN78PztnCP7WfETwsxxeDicTf3Jfg7XPfJ97lXvX/Nf1KL6z+pRfWf1KL6z+pRfWf1KL6z+pRfWf1KL6z+pRfWf1KL6z+pRfWf1KL6z+pRfWf1KL6z+pRfWf1KL6z+pRfWf1GQ4adzGp3In52zhH9rPiJ2yfoOVv8AmrsX/gtX5i1fmLV+YtX5i1fmLV+YtX5i1fmLV+YtX5i1fmLV+YtX5i1fmLV+YtX5i1fmI/v7e6LGhsd/s53cVMHUQqYOohUwdRCpg6iFTB1EKmDqIVMHUQqYOohUwdRCpg6iFTB1EKmDqIVMHUQqYOohUwdRCI2HGhvd6TfuR5L8HsezhH9rPiJ2tZOwGx2tXvRHF3wMC74GBd8DAu+BgXfAwLvgYF3wMC74GBd8DAu+BgXfAwLvgYF3wMC74GBd8DAu+BgXfAwJji7WfAb/AO/AN9xL8HsezhH9rPiJ4WY4u30o0GHEd/u5veUsHTQpYOmhSwdNClg6aFLB00KWDpoUsHTQpYOmhSwdNClg6aFLB00KWDpoUsHTQpYOmhSwdNCI6FAhsd6Tfva3uJfg9j2cI/tZ8RPCzHF4OJxN/cl+D2PZwj+1nxE8LMcXg4nE39yX4PY9nCP7WfETwsxxeDicTf3Jfg9j2cI/tZ8RPCzHF4OJxN/cl+D2PZwj+1nxE8LMcXg4nE39yX4PY9nCP7WfETwsxxdseVfKRXuhO9H0kchRRsyFFGzIUUbMhRRsyFFGzIUUbMhRRsyFFGzIUUbMhRRsyFFGzIUUbMhRRsyFFGzIUUbMgspClokNzl7+9ziX4O17FlI6q13d/oUkxyKSY5FJMcikmORSTHIpJjkUkxyKSY5FJMcikmORSTHIpJjkUkxyKSY5FJMcikmORSTHIpJjkUkxyKSY5FJMcikmORSTHIpJjkUkxyKSY5FJMcikmORSTHIpJjkUkxyKSY5FJMcikmORSTHIpJjkUkxyKSY5FJMcikmORSTHIpJjkUkxyKSY5FJMcikmORSTHIpJjkUkxyKSY5FJMcikmORSTHIpJjkUkxyKSY5FJMcikmORSTHIpJjkUkxyKSY5FJMcikmORSTHIpJjkUkxyKSY5FJMcikmORSTHIpJjkUkxyIU5CY6GyJ3/c7/AIXu7GcI/tZ8RO2Ym4LWufC7u5HbNqIU8tgpTy2ClPLYKU8tgpTy2ClPLYKU8tgpTy2ClPLYKU8tgpTy2ClPLYKU8tgpTy2ClPLYKU8tgpTy2Ckfi7ZyYl4LXQokRVav2iFOzUQp2aiFOzUQp2aiFOzUQp2aiFOzUQp2aiFOzUQp2aiFOzUQp2aiFOzUQp2aiFOzUQ/xM5CayE37lX00Ul+DtjPbLJ3Oeqp/WhSpqIUqaiFKmohSpqIUqaiFKmohSpqIUqaiFKmohSpqIUqaiFKmohSpqIUqaiFKmohSpqIUqaiFKmohSpqIUqaiFKmohSpqIUqaiFKmohSpqIUqaiFKmohSpqIUqaiFKmohSpqIUqaiFKmohSpqIUqaiFKmohSpqIUqaiFKmohSpqIUqaiFKmohSpqIUqaiFKmohSpqIUqaiFKmohSpqIUqaiFKmohSpqIUqaiFKmohSpqIUqaiFKmohSpqIUqaiFKmohSpqIUqaiFKmohSpqIUqaiFKmohSpqIUqaiFKmohSpqIUqaiFKmohSpqIS8tNt9CKz0u9O//uXsZwj+1nxE7ZiTY9Iaxe7+pff3ldCyKV0LIpXQsildCyKV0LIpXQsildCyKV0LIpXQsildCyKV0LIpXQsildCyKV0LIpXQsildCyKV0LIpH4vBxOJv7kvwex7OEf2s+InhZji8HE4m/uS/B7Hs4R/az4ieFmOLwcTib+5L8HsezhH9rPiJ4WY4vBxOJv7kvwex7OEf2s+Ih97kQ3m4m83E3m4m83E3m4m83E3m4m83E3m4m83E3m4m83E3m4m83E3m4m83E3m4m83E3m4kxxeDicTf3Jfg9j2cI/tRzV9Fe89J80qrxFSuYqVzFSuYqVzFSuYqVzFSuYqVzFSuYqVzFSuYqVzFSuYqVzFSuYqVzFSuYqVzFSuYj+/wcTib+5L8HbHRJqPaO/EX/cqo+opVR9RSqj6ilVH1FKqPqKVUfUUqo+opVR9RSqj6ilVH1FKqPqKVUfUUqo+opVR9RSqj6ilVH1FKqPqKVUfUUqo+opVR9RSqj6ilVH1FKqPqKVUfUUqo+opVR9RSqj6ilVH1FKqPqKVUfUUqo+opVR9RSqj6ilVH1FKqPqKVUfUUqo+opVR9RSqj6ilVH1FKqPqKVUfUUqo+opVR9RSqj6ilVH1FKqPqKVUfUUqo+opVR9RSqj6ilVH1FKqPqKVUfUUqo+opVR9RSqj6ilVH1FKqPqKVUfUUqo+opVR9RSqj6ilVH1FKqPqKVUfUUqo+opVR9RSqj6ilVH1FKqPqKVUfUUqo+opKuivV7u9/3qvf/wBS9jOEf4iN7/BxOJv7kvwdrnOk0VXL3r/UpRJmUokzKUSZlKJMylEmZSiTMpRJmUokzKUSZlKJMylEmZSiTMpRJmUokzKUSZlKJMylEmZSiTMpRJmUokzKUSZlKJMylEmZSiTMpRJmUokzKUSZlKJMylEmZSiTMpRJmUokzKUSZlKJMylEmZSiTMpRJmUokzKUSZlKJMylEmZSiTMpRJmUokzKUSZlKJMylEmZSiTMpRJmUokzKUSZlKJMylEmZSiTMpRJmUokzKUSZlKJMylEmZSiTMpRJmUokzKUSZlKJMylEmZSiTMpRJmUokzKUSZlKJMylEmZSiTMpRJmUbLyjPs4LdidjOEf4iN7/BxOJv7kvwex7OEf4iN7/BxOJv7kvwex7OEf4iN7+2ZlWycN6Qn+j3q/aUMLOpQws6lDCzqUMLOpQws6lDCzqUMLOpQws6lDCzqUMLOpQws6lDCzqUMLOpQws6lDCzqf4SJKshNd9/pI4l+D2PZwj/ERvf2zU1DjwWsixFciL3lTL8ypl+ZUy/MqZfmVMvzKmX5lTL8ypl+ZUy/MqZfmVMvzKmX5lTL8ypl+ZUy/M/xUeNCe1v3dzSX4PY9nCP8AERvf4OJxN/cl+D2PZwj/ABEb3+DicTf3Jfg7IkeOvdDht9Jxbv01Ld+mpbv01Ld+mpbv01Ld+mpbv01Ld+mpbv01Ld+mpbv01Ld+mpbv01Ld+mpbv01Ld+mpbv01Ld+mpbv01Ld+mpbv01Ld+mpbv01Ld+mpbv01Ld+mpbv01Ld+mpbv01Ld+mpbv01Ld+mpbv01Ld+mpbv01Ld+mpbv01Ld+mpbv01Ld+mpbv01Ld+mpbv01Ld+mpbv01Ld+mpbv01Ld+mpbv01Ld+mpbv01Ld+mpbv01Ld+mpbv01Ld+mpbv01Ld+mpbv01Ld+mpbv01Ld+mpbv01Ld+mpbv01Ld+mpbv01Ld+mpbv01Ld+mpbv01Ld+mpbv01Ld+moyIz72vb6Se7sZwj/ERvf4OJxN/cl+DsnmQWOiPdCVEa1O9VLtnPl3F2zny7i7Zz5dxds58u4u2c+XcXbOfLuLtnPl3F2zny7i7Zz5dxds58u4u2c+XcXbOfLuLtnPl3F2zny7i7Zz5dxds58u4u2c+XcXbOfLuLtnPl3F2zny7i7Zz5dxds58u4u2c+XcXbOfLuLtnPl3F2zny7i7Zz5dxds58u4u2c+XcXbOfLuLtnPl3F2zny7i7Zz5dxds58u4u2c+XcXbOfLuLtnPl3F2zny7i7Zz5dxds58u4u2c+XcXbOfLuLtnPl3F2zny7i7Zz5dxds58u4u2c+XcXbOfLuLtnPl3F2zny7i7Zz5dxds58u4u2c+XcXbOfLuLtnPl3F2zny7i7Zz5dxds58u4u2c+XcXbOfLuLtnPl3F2zny7i7Zz5dxds58u4u2c+XcXbOfLuLtnPl3F2zny7i7Zz5dxds58u4u2c+XcXbOfLuLtnPl3F2zny7iVa9Fa5ITUVF93YzhH+Ije/wcTib+5L8HsezhH+Ije/wcTib+5L8HsezhH+Ije/wcTib+5L8HsezhH+Ije/wcTib+5L8HsezhH+Ije/t+ynZpkGJ3d/cpeELmXhC5l4QuZeELmXhC5l4QuZeELmXhC5l4QuZeELmXhC5l4QuZeELmXhC5l4QuY+DKTbIsVVTuahL8HsezhH+Ije/tYrGOcn2KbELJ+Usn5SyflLJ+Usn5SyflLJ+Usn5SyflLJ+Usn5SyflLJ+Usn5SyflGq+G5qf8oS/B7Hs4R/iI3v8HE4m/uS/B7Hs4R/iI3v8HE4m/uS/B7Hs4R/iI3v8HE4m/uS/B7Hs4R/iI3v8HE4m/uS/B2RpmIiubCb6SohTTHIppjkU0xyKaY5FNMcimmORTTHIppjkU0xyKaY5FNMcimmORTTHIppjkU0xyKaY5FNMcimmORTTHIppjkU0xyKaY5FNMcimmORTTHIppjkU0xyKaY5FNMcimmORTTHIppjkU0xyKaY5FNMcimmORTTHIppjkU0xyKaY5FNMcimmORTTHIppjkU0xyKaY5FNMcimmORTTHIppjkU0xyKaY5FNMcimmORTTHIppjkU0xyKaY5FNMcimmORTTHIppjkU0xyKaY5FNMcimmORTTHIppjkU0xyKaY5FNMcimmORTTHIppjkQ4rfuSI1HdjOEf4iMnoem5V+4sGlg0sGlg0sGlg0sGlg0sGlg0sGlg0sGlg0sGlg0sGlg0WXfCRqKvf3kvwdk5AgN9KJEhKjU7yi+o3qUX1G9Si+o3qUX1G9Si+o3qUX1G9Si+o3qUX1G9Si+o3qUX1G9Si+o3qUX1G9Si+o3qUX1G9Si+o3qUX1G9Si+o3qUX1G9Si+o3qUX1G9Si+o3qUX1G9Si+o3qUX1G9Si+o3qUX1G9Si+o3qUX1G9Si+o3qUX1G9Si+o3qUX1G9Si+o3qUX1G9Si+o3qUX1G9Si+o3qUX1G9Si+o3qUX1G9Si+o3qUX1G9Si+o3qUX1G9Si+o3qUX1G9Si+o3qUX1G9Si+o3qUX1G9Si+o3qUX1G9Si+o3qUX1G9Si+o3qUX1G9Si+o3qUX1G9Si+o3qUX1G9Si+o3qUX1G9Si+o3qUX1G9Si+o3qUX1G9Si+o3qUX1G9Si+o3qUX1G9Si+o3qUX1G9Si+o3qUX1G9SXhxE7nMhNRcOxnCP8AEf0qbUwNqYG1MDamBtTA2pgbUwNqYG1MDamBtTA2pgbUwNqYG1MDamBtTA2pgNa9fuJfg9j2cI/8rb7iX4PY9nCP/K2+4l+D2PZwj/ytvuJfg9j2cI/8rb7iX4PY9nCP/K2+4l+D2PZwj/ytvuJfg9j2cI/8rb7iX4O21ZmLVmYtWZi1ZmLVmYtWZi1ZmLVmYtWZi1ZmLVmYtWZi1ZmLVmYtWZi1ZmLVmYtWZi1ZmLVmYtWZi1ZmLVmYtWZi1ZmLVmYtWZi1ZmLVmYtWZi1ZmLVmYtWZi1ZmLVmYtWZi1ZmLVmYtWZi1ZmLVmYtWZi1ZmLVmYtWZi1ZmLVmYtWZi1ZmLVmYtWZi1ZmLVmYtWZi1ZmLVmYtWZi1ZmLVmYtWZi1ZmLVmYtWZi1ZmLVmYtWZi1ZmLVmYtWZi1ZmLVmYtWZi1ZmLVmY72qip/wAdjOEf+Vt9xL8HbMfEd+/sVKe9/wD5L2M4R/5W33EvwdveslLKvwmlFLaLSiltFpRS2i0opbRaUUtotKKW0WlFLaLSiltFpRS2i0opbRaUUtotKKW0WlFLaLSiltFpRS2i0opbRaUUtotKKW0WlFLaLSiltFpRS2i0opbRaUUtotKKW0WlFLaLSiltFpRS2i0opbRaUUtotKKW0WlFLaLSiltFpRS2i0opbRaUUtotKKW0WlFLaLSiltFpRS2i0opbRaUUtotKKW0WlFLaLSiltFpRS2i0opbRaUUtotKKW0WlFLaLSiltFpRS2i0opbRaUUtotKKW0WlFLaLSiltFpRS2i0opbRaUUtotKKW0WlFLaLSiltFpRS2i0opbRaUUtotKKW0WlFLaLSiltFpRS2i0opbRaUUtotKKW0WlFLaLRGQWNhsT/pancnYzhH/lbfcS/B7Hs4R/5W33Evwex7OEf+Vt9xL8HsezhH/laKpAZ/U96N+/uLJ5ZPLJ5ZPLJ5ZPLJ5ZPLJ5ZPLJ5ZPLJ5ZPLJ5ZPLJ5ZPLJ5ZPLJ5ZPLJ5ZPLJ5ZPLJ5ZPLJ5ZPLJ5ZPLJ5ZPLJ5ZPLJ5ZPLJ5ZPLJ5ZPLJ5ZPLJ5ZPLJ5ZPLJ5ZPLJ5ZPLJ5ZPLJ5ZPLJ5ZPLJ5ZPLJ5ZPLJ5ZPLJ5ZPLJ5ZPLJ5ZPLJ5ZPLJ5ZPLJ5ZPLJ5ZPEiQmq1ET/Uf+V94ieh3/ANzcTE3ExNxMTcTE3ExNxMTcTE3ExNxMTcTE3ExNxMTcTE3ExNxMTcTE3ExNxMTcTE3ExNxMTcTE3ExNxMTcTE3ExNxMTcTE3ExNxMTcTE3ExNxMTcTE3ExNxMTcTE3ExNxMTcTE3ExNxMTcTE3ExNxMTcTE3ExNxMTcTE3ExNxMTcTE3ExNxMTcTE3ExNxMTcTE3ExNxMTcTE3ExNxMTcTE3ExNxMTcTE3ExNxMTcTE3ExNxMTcTE3ExNxMTcTE3ExNxMTcTEV+zv8A/wBVb//EACsQAAEEAQIEBQUBAQAAAAAAAAABwfDx0RGhIUBRYRAxYJHhQVBxgbEgoP/aAAgBAQABPyH/AJ0dS0FPPXU0sstRai1FqLUWotRai1FqLUWotRai1FqLUWotRai1FqLUWotRai1FqLUWotRai1FqLUWotRai1FqLUWotRai1FqLUWotRai1FqLUWotRai1FqLUWotRai1FqLUWotRai1FqLUWotRai1FqLUWo3oFJ9s46aadNfwpoMj6OMzMzMzMzMzMzMzMzMzMzMzMzMzMzMzMzMzMzMzMzMzMzMzMzMzM/MNHeateLT133YfcCd0CrL5BNV0/qlfgV+BX4FfgV+BX4FfgV+BX4FfgV+BX4FfgV+BX4FfgcavIuL2+97D7gTqmc6aGqqdmLMWYsxZizFmLMWYsxZizFmLMWYswk25qqqfRfvew9eE7sPuBO8KbovELxVE8vypB8yD5kHzIPmQfMg+ZB8yD5kHzIPmQfMg+ZB8yD5kHzIPmQfMg+ZB8yD5kHzIPmQfMg+ZB8yD5kHzIPmQfMg+ZB8yD5kHzIPmQfMg+ZB8yD5kHzIPmQfMg+ZB8yD5kHzIPmQfMg+ZB8yD5kHzIPmQfMg+ZB8yD5kHzIPmQfMg+ZB8yD5kHzIPmQfMg+ZB8yD5kHzIPmQfMg+ZB8ziFFIiSoggj6mw+4E79SywtCi7IXmReZF5kXmReZF5kXmReZF5kXmReZF5kXmReZF5kXmReZF5kXmReZF5kXmReZF5kXmReZF5kXmReZF5kXmReZF5kXmReZF5kXmReZF5kXmReZF5kXmReZF5kXmReZF5kXmReZF5kXmReZF5kXmReZF5kXmReZF5kXmReZF5kXmReZF5kXmReZF5kXmReZF5kXmQmpIiVXj1fkTomv0Q2Hrwndh68J3YevCd2H3AnUCQLU6IuqXeijDDDDDDDDDDDDDDDDDDDDDDDDDDDDDDDDDDDDDDDDDDDDDDDDDDDDDDDDDDDDDDDDDDDDDDDDNB7oIH0M1TU2H3AnUcXJTy00Sz0U6666666666666666666666666666666666666666666666666666666666666666666666666olVEFih2MQ2Hrwndh68J3YevCd2H3AnUDug1PJNV0+ndSBsQNiBsQNiBsQNiBsQNiBsQNiBsQNiBsQNiBsQNiBsQNiBsQNiBsQNiBsQNiBsQNiBsQNiBsQNiBsQNiBsQNiBsQNiBsQNiBsQNiBsQNiBsQNiBsQNiBsQNiBsQNiBsQNiBsQNiBsQNiBsQNiBsQNiBsQNiBsQNiBsQNiBsQNiBsQNiBsQNiBsJ5RVV4ViaGqcUU2H3AndB4kdVXtkQYiDEQYiDEQYiDEQYiDEQYiDEQYiDEQYiDEQYiDEQYiDEQYiDEQYiDEQYiDEQYiDEQYiDEQYiDEQYiDEQYiDEQYiDEQYiDEQYiDEQYiDEQYiDEQYiDEQYiDEQYiDEQYiDEQYiDEQYiDEQYiDEQYiDEQYiDEQYiDEQYiDEQYiDEQYiDEQYiDEQYRdMe5+DYDYevCd2Hrwndh6CJ1RatU7lcu2S7ZLtku2S7ZLtku2S7ZLtku2S7ZLtku2S7ZLtku2S7ZLtku2S7ZLtku2S7ZLtku2S7ZLtku2S7ZLtku2S7ZLtku2S7ZLtku2S7ZLtku2S7ZLtku2S7ZLtku2S7ZLtku2S7ZLtku2S7ZLtku2S7ZLtkVROPH7snFm68TROP6JUYJUYJUYJUYJUYJUYJUYJUYJUYJUYJUYJUYJUYJUYJUYJUYJUYJUYJUYFv8CPqjAhEU8Xn+2dU+nuHVCtK0rStK0rStK0rStK0rStK0rStK0rStK0rStK0rStK0rStK0rStK0rStK0rStK0rStK0rStK0rStK0rStK0rStK0rStK0rStK0rStK0rStK0rStK0rStK0rStK0rStK0rRZalURFVEQ41X14tua79HQrrifNx68ld3d3d3d3d3d6z001R6P2Yg/XNd4R3Tr6JwWXZC94L3gveC94L3gveC94L3gveC94L3gveC94L3gveC94L3gRoV+iP54qvnr446r1TsTlicsTlicsTlicsTlicsTlicsTlicsTlicsTlicsLnAoBNNXpw/P3vZiD9fbO7H4o5u6UuhPyrryMSJEiRIkSJEiRIkSJEiahvAgrgRPoidE+97MQfr7Z3Y/R+zEH6+2d2PxUzJXROuq/RFJG5I3JG5I3JG5I3JG5I3JG5I3JG5I3JG5I3JG5I3JG5I3JG5I3JG5I3JG5I3JG5I3JG5I3JG5I3JG5I3JG5I3JG5I3JG5I3JG5I3JG5I3JG5I3JG5I3JG5I3JG5I3JG5I3JG5I3JG5I3JG5I3JG5I3JG5I3JG5I3JG5I3JG5I3JG5I3JG5I3JG5pTqNAr52i+GzEH6+2d2PxTiJp1xOH6XuSNyRuSNyRuSNyRuSNyRuSNyRuSNyRuSNyRuSNyRuSNyRuSNyRuSNyRuSNyRuSNyRuSNyRuSNyRuSNyRuSNyRuSNyRuSNyRuSNyRuSNyRuSNyRuSNyRuSNyRuSNyRuSNyRuSNyRuSNyRuSNyRuSNyRuSNyRuSNyRuSNyRuSNyRuSNyRuSNyRuSNzWrxwuurX6r28NmIP1zXUIvLRfRF1S7knHHHHHHHHHHHHHHHHNZ9Uej9mIP1zXUzqJ1WjRP0fgo8SjxKPEo8SjxKPEo8SjxKPEo8SjxKPEo8SjxKPEo8SjxNJr5oj0fsxB+vtndj8fKRIqdOuiqTVyauTVyauTVyauTVyauTVyauTVyauTVyauTVyauTVyauTVyauTVyauTVyauTVyauTVyauTVyauTVyauTVyauTVyauTVyauTVyauTVyauTVyauTVyauTVyauTVyauTVyauTVyauTVyauTVyauTVyauTVyauTVyauTVyauTVyauTVyauTVyauTVzWwyGInVdPDZiD9fbO7H4qQhecid1L2XsvZey9l7L2XsvZey9l7L2XsvZey9l7L2XsvZey9l7L2XsvZey9l7L2XsvZey9l7L2XsvZey9l7L2XsvZey9l7L2XsvZey9l7L2XsvZey9l7L2XsvZey9l7L2XsvZey9l7L2KKgLw6pp4GzEH6+2d2PxXziFKYpimKYpimKYpimKYpimKYpimKYpimKYpimKYpimKYpimKYpimKYpimKYpimKYpimKYpimKYpimKYpimKYpimKYpimKYpimKYpimKYpimKYpimKYpimKYpimKYTygn68NmIP19s7sfo/ZiD9fbO7HyaqT0IqJ5iqUVNBfr97TMzMzMzMzMzMzMzMzMzMzMzMzMzMzMzMzMzMzMz54Vfq12O+f1P2IfkQ/Ih+RD8iH5EPyIfkQ/Ih+RD8iH5EPyIfkQ/Ih+RD8iH5EPyOKm+iBJdaEXz05jux8mpRojS9xNiNVXv6PVVVVVVVVVVVVVVVVVVVVVVVVVVVVVVVVVVVVVVVVVVVVVVVVVVVV84+F0cRNAaIi8x3Y/FX8l6aaalXjx/BQ4FDgUOBQ4FDgUOBQ4FDgUOBQ4FDgUOBQ4FDgUOBxE2oU01Ty8javSEb9v9dU6ZLzVV0KuVcq5VyrlXKuVcq5VyrlXKuVcq5VxAKF5IiFNj8UGFU6KNE16q68hz58+fPnz58+fPnz580epBFHEunQbV4rNiNVdTRF5F27du3bt27du3bt27duyIyE88mqprw++Rv2/wBdVounA++L4vi+L4vi+L4vi+L4vi+L4vi+FuspeD69lNj5QzavHph79Gq68j//AP8A/wD/AP8A/wD/AP7HwNNdE0++Rv2/13yJAfoF14opEmIkxEmIkxEmIkxEmIkxEmIkxEmIkxEmIkxEmIkwtCnVYjsqIbHyhm1ekI37cx3Y+UM2rxRaHn0UVexMWJixMWJixMWJixMWJixMWJixMWJixMWJixMWJixMWJixMWJixMWJixMWJixMWJixMWJixMWJixMWJixMWJixMWJixMWJixMWJixMWJixMWJixMWJixMWJixMWJixMWJixMWJixMWJixMWJixMWJixMWJixMWJixMWJixMWJixMWJixMWJixMWFUa/XIia6IfTsnjG/bmO7H4ojSjXXun7UjbkbcjbkbcjbkbcjbkbcjbkbcjbkbcjbkbcjbiuGqa007EU2rx1+zrT6yr+CCMQRiCMQRiCMQRiCMQRiCMQRiCMQRiCMQRiCMQRiCMQRiCMQRiCMQRiCMQRiCMQRiCMQRiCMQRiCMQRiCMQRiCMQRiCMQRiCMQRiCMQRiCMQRiCMQRiCMQRiCMQRiCMQRiCMQRiCMQRiCMQRiCMQRiCMQRiCMQRiCMQRiCMQRiCMQRiCMQRiCMcb6IpPMpV/vjG/bmO7H4wHXkG6G1ekI37cx3Y/Hh9bTVG5JWJKxJWJKxJWJKxJWJKxJWJKxJWJKxJWJKxJWEA5QRaefZDavSEb9v9dRPLhRGjVDyXsqkKYhTEKYhTEKYhTEKYhTEKYhTEKYhTEKYhTEKYhTEiYVqqvmqf5yhm1ejXWta1rWta1rWta1rWta1rWta1rWta1rWta1rWta1rWta1rWta1rWta1rWta1rWQRqrVF6eMb9v8AXUNjI0WjRH1fgmYEzAmYEzAmYEzAmYEzAmYEzAmYEzAmYEzAmYEzAmYGg+iOUM2rxW8xfzdx3F9zuL7ncX3O4vudxfc7i+53F9zuL7ncX3O4vudxfc7i+53F9zuL7ncX3O4vudxfc7i+53F9zuL7ncX3O4vudxfc7i+53F9zuL7ncX3O4vudxfc7i+53F9zuL7ncX3O4vudxfc7i+53F9zuL7ncX3O4vudxfc7i+53F9zuL7ncX3O4vudxfc7i+53F9zuL7ncX3O4vudxfc7i+53F9zuL7ncX3O4vudxfc7i+53F9zuL7ncX3O4vudxfc7i+53F9zuL7ncX3O4vudxfc7i+53F9xeur4nG/bmO7Hyhm1eKvUlVV0eZUipFSKkVIqRUipFSKkVIqRUipFSKkVIqRUipFSKkVIqRUipFSKkVIqRUipFSKkVIqRUipFSKkVIqRUipFSKkVIqRUipFSKkVIqRUipFSKkVIqRUipFSKkVIqRUipFSKkVIqRUjVqFwBE1XXxjftzHdj8U+v/AKtCvFeK8V4rxXivFeK8V4rxXivFeK8LDmURKvBTavSEb9uY7sfjogpex3FcVxXFcVxXFcVxXFcVxXFcVxXCZZVImi/Q2r0hG/bmO7Hyhm1ekI37cx3Y+UM2rx0creuvoi+io8ePHjx48ePHjx48ePHjx48ePHjx48ePHjx48ePHjx48ePHjx48ePHjx48ePHjx48ePHjx48ePHjx48ePHjx49aNuksnApE81Xp4xv2/11BdEIVp88nzaLp5lcNcNcNcNcNcNcNcNcNcNcNcNcNcNcNcKtD8sexoNj5QzavHV4tJ08NV1FZFZFZFZFZFZFZFZFZFZFZFZFZFZFZFZFZFZFZFZFZFZFZFZFZFZFZFZFZFZFZFZFZFZFZFZFZFZFZFZFZFZFZFZFZFZFZFZFZFZFZFZFZFZFZFZFZFZFZFZFZFZFZFZFZFZFZFZFZFZFZFZFZCasJVx+NqeTVevjG/b/AF3VyovDJwUXj+iJwROCJwROCJwROCJwROCJwROCJwROCJwROCJwROBFRPnrXTT8Gx8oZtXpCN+3Md2PlDNq9IRv25jux8oZtXpCN+3Md2PlDNq9IRv25jux8oZtXilJIiCadd3JO5J3JO5J3JO5J3JO5J3JO5J3JO5J3JO5J3JO5J3JO5J3JO5J3JO5J3JO5J3JO5J3JO5J3JO5J3JO5J3JO5J3JO5J3JO5J3JO5J3JO5J3JO5J3JO5J3JO5J3JO5J3JO5J3JO5J3JO5J3JO5J3JO5J3JO5J3JO5J3JO5J3JO5J3JO5J3JO5J3JO4roeprH5l8Y37cx3Y/FfIRVK68VXovYoMigyKDIoMigyKDIoMigyKDIoMigyKDIoMigyKDI1fV4BUXhx+qqbV4rfPKLxFX0UsWLFixYsWLFixYsWLFixYsWLFixYsWLFixYsWLFixYsWLFixYsWLFixYsWLFixYsWLFixYsWLFixYsWLFixYsJO9bpKXTVdV8+6+Mb9uY7sfjrYMt8qr37lmFmFmFmFmFmFmFmFmFmFmFmFmFmFmC6XYmoq48PPU2r0hG/bmO7Hyhm1ekI37cx3Y+UM2r0hG/bmO7Hyhm1eOqdTVOpqnU1Tqap1NU6mqdTVOpqnU1Tqap1NU6mqdTVOpqnU1Tqap1NU6mqdTVOpqnU1Tqap1NU6mqdTVOpqnU1Tqap1NU6mqdTVOpqnU1Tqap1NU6mqdTVOpqnU1Tqap1NU6mqdTVOpqnU1Tqap1NU6mqdTVOpqnU1Tqap1NU6mqdTVOpqnU1Tqap1NU6mqdTVOpqnU1Tqap1NU6mqdTVOpqnU1Tqap1NU6mqdTVOpr4xv2/wBdTaPTVR3cu5dy7l3LuXcu5dy7l3LuXcu5dy7l3Nt/nKGbV4wXV6Npxv2/13SlTotU0LryWMYxjGMYxjGMYxhOmkmmnjXDhCOA0WixljLGWMsZYyxljLGWMsZYyxljLGLVupEjRF48TavFapSqqrxFX9E1YmrE1YmrE1YmrE1YmrE1YmrE1YmrE1YmrE1YmrE1YmrE1YmrE1YmrE1YmrE1YmrE1YmrE1YmrE1YmrE1YmrE1YmrE1YmrE1YmrE1YmrE1YmrE1YmrE1YmrE1YmrE1YmrE1YmrE1YmrE1YmrE1YmrE1YmrE1YmrE1YmrE1YmrE1YmrE1YmrE1Y1V0+ZBdfLxjftzHdj8UFj46JqirnkHve973ve973vfr8WRdCmqm1ekI37cx3Y+UM2r0hG/bmO7Hyhm1ekI37cx3Y+UM2r0hG/b/AF1YmgUqdTUjzfsoIoIoIoIoIoIoIoIoIoIoIoIoIoIoIoIoI1nppqjlDNq9IRv2/wBdU0QilehwKLrw7cl48ePHjx48ePHjx48ePHhGhX6I/nKGbV6QjftzHdj8eAstdD/RFXIq5FXIq5FXIq5FXIq5FXIq5FXIq5FXIq5FXODRwvF49NTavSEb9uY7sfjAdeQbobV4raUrLVEprounQquCq4KrgquCq4KrgquCq4KrgquCq4KrgquCq4KrgquBHSSgK+mqa/fI37cx3Y/FMp0mmmVp+yUsSliUsSliUsSliUsSliUsSliUsSliUsSliUsJm8jqT9kQ2rxTl4ttHBV/B2p/g7U/wdqf4O1P8Han+DtT/B2p/g7U/wAHan+DtT/B2p/g7U/wdqf4O1P8Han+DtT/AAaBnDReGqJp98jftzHdj5QzavSEb9uY7sfKGbV6QjftzHdj5QzavSEb9v8AXVdyFUtU/AibkTcibkTcibkTcibkTcibkTcibkTcibkTcibkTcibi9VlXXh/nKGbV6Qjft/rujLXrcenYvxfi/F+L8X4vxfi/F+L8X4vxfi/F+L8IRCnknKDNq8VxdkF8ip6KYxjGMYxjGMYxjGMYxjGMYxjGMYxjGMYxjGMYxjGMYxjGMYxjGMYxjGMYxjGMZqII12qLounjG/bmO7Hyhm1eK9f9t6izlnLOWcs5ZyzlnLOWcs5ZyzlnLOWcs5ZyzlnLOWcs5ZyzlnLOWcs5ZyzlnLOWcs5ZyzlnLOWcs5ZyzlnLOWcs5ZyzlnLOWcs5ZyzlnLOWcs5ZyzlnLOWcs5ZyzlnLOWcs5ZyzioJScBU8eN+3Md2PlDNq8aYrCsKwrCsKwrCsKwrCsKwrCsKwrCsKwrCsKwrCsKwrCsKwrCsKwrCsKwrCsKwrCsKwrCsKwrCsKwrCsKwrCsKwrCsKwrCsKwrCsKwrCsKwrCsKwrCsKwrCsKwrBETgTh4xv25jux8oZtXpCN+3Md2Px1xGWIvFV6fjkDjjjjjjjjjjjjjjlOpJFK1VNOJtXpCN+3Md2Px0sCF1cFXp+SesT1iesT1iesT1iesT1iesT1iesT1iesT1iesahF8FqXXh9UNq9IRv25jux8oZtXpCN+3Md2PlDNq9IRv25jux8oZtXimiCCInUdyROSJyROSJyROSJyROSJyROSJyROSJyROSJyROSJxcIu1Kuqquj75G/bmO7Hyhm1eKgFSU89V5HXXXXXXXXXXXXXXXXo1L12uiJ98jft/rq+LS63CF3LuXcu5dy7l3LuXcu5dy7l3LuXcu5dzbf548H5a6FWn7JA5IHJA5IHJA5IHJA5IHJA5IHJA5IHJA5IHJA4oTmgiVfP8m1ekI37f67oIoLrovJNa1rWta1rWta1rU6aX08cB15BuhtXpCN+3Md2Px4eI00KtP2RRiKMRRiKMRRiKMRRiKMRRiKMRRiKMRRiKMRRjTaYRKpOPVENq9IRv25jux8oZtXpCN+3Md2PlDNq9IRv25jux8oZtXpCN+3Md2PlDNq9IRv25jux8oZtXpCN+3Md2PxU9jWgIunIfffffffffffffffIedISKiaG1eKn+S1149F06ltmW2ZbZltmW2ZbZltmW2ZbZltmW2ZbZltmW2ZbZltmW2ZbZltmW2ZbZltmW2ZbZltmW2ZbZltmW2ZbZltmW2ZbZltmW2ZbZltmW2ZbZltmW2ZbZltmW2ZbZltmW2ZbZltmW2ZbZltmW2ZbZltmW2ZbZltmW2ZbZltmW2ZbZltmW2ZbZltmW2ZbZltmW2ZbZltmcFgHzk1GeMb9v9dQfMtDqrV4TFyYuTFyYuTFyYuTFyYuTFyYuTFyYuTFyYuTFyYuTFxerX6o8VSM0RVU/GpE3Im5E3Im5E3Im5E3Im5E3Im5E3Im5E3Im5E3E5wJDjF4JwRTavFeGWT6ar+SAuQFyAuQFyAuQFyAuQFyAuQFyAuQFyAuQFyAuQFyAuQFyAuQFyAuQFyAuQFyAuQFyAuQFyAuQFyAuQFyAuQFyAuQFyAuQFyAuQFyAuQFyAuQFyAuQFyAuQFyAuQFyAuQFyAuQFyAuQFyAuQFyAuQFyAuQFyAuQFyAuQFyAuQFyAuQFyAuQFyAuawnLTQvmonl2Xxjft/rqREkIhqiaJYQpyFOQpyFOQpyFOQpyFOQpyFOQpyFOQpyFOQpyFOQpzSfRHKGbV6QjftzHdj5QzavSEb9uY7sfKGbV6QjftzHdj5QzavSEb9vFemuO4wv2ghCEIQhCEIQhCEIQimbV6Qjft46PdSqLqK5QPrrLSWktJaS0lpLSWktJaS0lpLSWktJaS0lpLScX4P85QzavFMQRNDTru5C3IW5C3IW5C3IW5C3IW5C3IW5C3IW5C3IW5C3IW5C3IW5C3IW5C3IW5C3IW5C3IW5C3IW5C3IW5C3IW5C3IW5C3IW5C3IW5C3IW5C3IW5C3IW5C3IW5C3IW5C3IW5C3IW5C3IW5C3IW5C3IW5C3IW5C3IW5C3IW5C3IW5C3IW5C3IW5C3IW5C3FVn1Fyl/N4xv25jY/5yhm1eKvein11X8kXci7kXci7kXci7kXci7kXci7kXci7kXci7kXci7kXci7kXci7kXci7kXci7kXci7kXci7kXci7kXci7kXci7kXci7kXci7kXci7kXci7kXci7kXci7kXci7kXci7kXci7kXci7kXci7kXci7kXci7kXci7kXci7kXci7kXci7kXci7kXci7kXc4346aqumq6r5918Y37cxsf8AOUM2r0hG/bmNj/nKGbV6QjftzGx/zxXjfSsRdHYlzEuYlzEuYlzEuYlzEuYlzEuYlzEuYlzEuYlzC3WwilaqmnHobV6QjftzGx/zx48OSSIv6IWJCxIWJCxIWJCxIWJCxIWJCxIWJCxIWJCxIWItlv6tbXjw6G1ekI37cxsf85QzavSEb9uY2P8AnKGbV4KLFxRE10T8ELYhbELYhbELYhbELYhbELYhbELYhbELYhbELYhbELYhbELYhbELYhbELYhbELYhbELYhbELYhbELYhbELYhbELYhbELYhbELYhbELYhbELYhbELYhbELYhbELYhbELYhbELYhbELYhbELYhbELYhbELYhbELYhbELYhbELYhbELYhbELYhbELYhbC6+iK9yap4xv25jY/5yhm1eC5QtKjTyRCYMTBiYMTBiYMTBiYMTBiYMTBiYMTBiYMTBiYMTBiYMTBiYMTBiYMTBiYMTBiYMTBiYMTBiYMTBiYMTBiYMTBiYMTBiYMTBiYMTBiYMTBiYMTBiYMTBiYMTBiYMTBiYMTBiYMTBiYMTBiYMTBiYMTBiYMTBiYMTBiYMTBiYMTBiYMTBiYMTBiYMTBhKgOGioqJ1TTxjftzGx/zlDNq9IRv25jY/5yhm1ekI37cxsf8AOUM2r0hG/bmNj/nKGbV6QjftzGx/zxQK4I4/XTr5diZgTMCZgTMCZgTMCZgTMCZgTMCZgTMCZgTMCZgKht9Troi8fobV6QjftzGx/wA8fNYzVX6qXcu5dy7l3LuXcu5dy7l3LuXcu5dzSoReKqfQ2r0hG/bmNj/nKGbV6QjftzGx/wA5QzavSEb9uY2P+coZtXpCN+3MbH/OUM2rwWI385VEJWZKzJWZKzJWZKzJWZKzJWZKzJWZKzJWZKzJWZKzJWZKzJWZKzJWZKzJWZKzJWZKzJWZKzJWZKzJWZKzJWZKzJWZKzJWZKzJWZKzJWZKzJWZKzJWZKzJWZKzJWZKzJWZKzJWZKzJWZKzJWZKzJWZKzJWZKzJWZKzJWZKzJWZKzJWZKzJWZKzJWZKzExlRVF+iKmr+Mb9uYUrp5eLT6FoWBYFgWBYFgWBYFgWBYFgWBYFgWBYCKhSkL5aKbV4cBFmk1XTqp3gO8B3gO8B3gO8B3gO8B3gO8B3gO8B3gO8B3gO8B3gO8B3gO8B3gO8B3gO8B3gO8B3gO8B3gO8B3gO8B3gO8B3gO8B3gO8B3gO8B3gO8B3gO8B3gO8B3gO8B3gO8B3gO8B3gO8B3gO8B3gO8B3gO8B3gO8B3gO8B3gO8B3gO8B3gO8B3gO8B3gO8BpKEfRUQi+Mb9uY1vSTXz1Tk+c5znOc5znOc5znE4CrRVXROxtXpCN+32vdDavSEb9vte6G1ekI37fa90Nq9IRv2+17obV6Qjft9r3Q2r0hG/b7XuhtXpCN+32vdDavFUeCo/lBQyhlDKGUMoZQyhlDKGUMoZQyhlDKGUMoZQyhlDKGUMoZQyhlDKGUMoZQyhlDKGUMoZQyhlDKGUMoZQyhlDKGUMoZQyhlDKGUMoZQyhlDKGUMoZQyhlDKGUMoZQyhlDKGUMoZQzUjX1VqnjG/b7XuhtXjJdXo3vG/b7XuhtXirqqHmqrKuxLGJYxLGJYxLGJYxLGJYxLGJYxLGJYxLGJYxLGJYxLGJYxLGJYxLGJYxLGJYxLGJYxLGJYxLGJYxLGJYxLGJYxLGJYxLGJYxLGJYxLGJYxLGJYxLGJYxLGJYxLGJYxLGJYxLGJYxLGJYxLGJYxLGJYxLGJYxLGJYxLGJYxLGJYxLGJYxLGJYxLGPKPojQ/SeMb9vte6G1ekI37fa90Nq9IRv2+17obV6Qjft9rR8jIinBGFEI4J+/R+ZmZmZmZmZmZmZmZmZmZmZmZmZmZmZmZmZmZmZmZmZmZmZmZmZmZmgIJ1G/b7WpoDTy0J5+kHOc5znOc5znOc5znOc5znOc5znOc5znOc5znOc5znOc5znOc5znOc5znOc5znOc5znFlJOJ5f8q3/9oADAMBAAIAAwAAABAAAAAAAAAAAAAAAAAAAAAAAAAAAAAAAAAAAAAAAAAAAAAAAAAAAAAAAAAAAAAAAAAAAAAAAAAAAAAAAAAAAAAAAAAAAAAAAAAAAAAAAAAAAAAAAAAAAAAAAAAAAAAAAAAAAAAAAAAAAAAAAAAAAAAAAAAAAAAAAAAAAAAAAAAAAAAAAAAAAAAAAAAAAAAAAAAAAAAAAAAAAAAAAAAAAAAAAAAAAAAAAAAAAAAAAAAAAAAAAAAAAAAAAAAAAAAAAAAAAAAAAAAAAAAAAAAAAAAAAAAAAAAAAAAAAAAAAAAAAAAAAAAAAAAAAAAAAAAAAAAAAAAAAAAAAAAAAAAAAAAAAAAAAAAAAAAAAAAAAAAAAAAAAAAAAAARDDDDDDDDDDDDDDDDDDDDDDDDDDDDDDDDDDDDDDDQAAAAAAAAAAAAAAAAAAAABSgQwwwwwwwgAAAAAAAAAAAAAAAAAAAAAAAAAAAAAAAAAAAAAAAAAAAAAAAAAABSjDDDDDDDCAAAAAAAAAAAAAAAAAAAAAAAAAAAAAAAAAAAAAAAAAAAAAAAAAAABSjTzzzzzzzzzzzzzzzzzzzzzzzzzzzzzzzzzzzygAAAAAAAAAAAAAAAAAAAAABSgAAAAAAAAAAAAAAAAAAAAAAAAAAAAAAAAAAAAAAAAAAAAAAAAAAAAAAAAAAABSgAAAAAAAAAAAAAAAAAAAAAAAAAAAAAAAAAAAAAAAAAAAAAAAAAAAAAAAAAAABSiAAAAAAAAAAAAAAAAAAAAAAAAAAAAAAAAAAAACAAAAAAAAAAAAAAAAAAAAAABSgAAAAAAAAAAAAAAAAAAAAAAAAAAAAAAAAAAAAAAAAAAAAAAAAAAAAAAAAAAABShzzzzzzzzzzzzzzzzzzzzzzzzzzzzzzzzzzzzzgAAAAAAAAAAAAAAAAAAAAABSgAAAAAAAAAAAAAAAAAAAAAAAAAAAAAAAAAAAAAAAAAAAAAAAAAAAAAAAAAAABSgAAAAAAAADzzzzzzzzzzzzzzzzzzzzzzzzzzzzwzzzzzzzzzyggAAAAAAAAABSggAAAAAAACgAAAAAAAAAgAAAAAAAAAAAAAAAAAAAAAAAAAAAAAAAAAAAAAAABSgAAAAAAAAAADDDDDDDDCAAAAAAAAAAAAAAAAAAAAAAAAAAAAAAAAAAAAAAAABSgAAAAAAAAABAAAAAAAAAAAAAAAAAAAAAAAAAAAAAAAAAAAAAQAAAAAAAAAAABSigAAAAAAACgAAAAAAAAAAAAAAAAAAAAAAAAAAAAAAAAAAAAAAAAAAAAAAAAABSgAAAAAAAAABQwwwwwwwwwwwwwwwwwwwwwwwwwwwwwwwwwwwxgAAAAAAAAAAABSgAAAAAAAAABAAAAAAAAAAAAAAAAAAAAAAAAAAAAAAAAAAAABAAAAAAAAAAAABSgAAAAAAAAAAAAAAAAABSAAAAAAAAAAAAAAAAAAAAAAAAAAAABDDDDDDDDDCABSggAAAAAAAABDDDDDDDDQAAwwwwwwwwAAAAAAAAAAAAAAAAAAAAAAAAAAAAAChShTzzzzzzywAAAAAAAABQBDDDDDDDDAAAAAAAAAAAAAAAAAAAAAAAAAAAAAAChSgAAAAAAAAAAAwwwwwwxwADzzzzzzzzzzzzzzzzzzzzzzzzzzzzzzzzzzzzgChSgAAAAAAAAABQwwwwwwxgAAAAAAAAAAAAAAAAAAAAAAAAAAAAAAAAAAAAAAAChSjDDDDDDDDAAAAAAAAABQBAAAAAAAAAAAAAAAAAAAAAAAAAAAAAAAAAAAAAQChSgAAAAAAAAAAQwwwwwwxgBAAAAAAAAAAAAAAAAAAAAAAAAAAAAAAAAAAAAAAChSgAAAAAAAAABDDDDDDDCQAAAAAAAAAAAAAAAAAAAAAAAAAAAAAAAAAAAAAAAChSgAAAAAAAAQAAAAAAAABQADzzzzzzzzzzzzzzzzzzzzzzzzzzzzzzzzzzzzgChShDDDDDDDDAAAAAAAAABQAAAAAAAAAAAAAAAAAAAAAAAAAAAAAAAAAAAAAAAChSgAAAAAAAAAAAAAAAAABQAAAAAAAAAAAAAAAAAAAAAAAAAAAAAAAAAAAAAAAChSgAAAAAAAAAAAAAAAAABQAQAAAAAAAAAAAAAAAAAAAAAAAAAAAAAAAAAAABQChSgAAAAAAAAABAAAAAAABQAAAAAAAAAAAAAAAAAAAAAAAAAAAAAAAAAAAAAAAChSgAAAAAAAAAAAAAAAAABQAAAAAAAAAAAAAAAAAAAAAAAAAAAAAAAAAAAAAAQChSiAAAAAAAAAAQAAAAAABQBDzzzzzzzzzzzzzzzzzzzzzzzzzzzzzzzzzzzzwChSgAAAAAAAAAADDDDDDDCQAAAAAAAAAAAAAAAAAAAAAAAAAAAAAAAAAAAAAAAChSgAAAAAAAAAAAAAAAAABQAAAAAAAAAAAAAAAAAAAAAAAAAAAAAAAAAAAAAAAChSgQwwwwwwwygAAAAAAABQAAAAAAAAAAAAAAAAAAAAAAAAAAAAAAAAAAAAAAAChSgAAAAAAAAAAQAAAAAAAQAAwwwwwwwwgAAAAAAAAAAAAAAAAAAAAAAAAAAAAChSgAAAAAAAAAAAAAAAAABQBAAAAAAAAAAAAAAAAAAAAAAAAAAAAAAAAAAAAAAChSgAAAAAAAAAAAAAAAAABQAAAAAAAAAAAAAAAAAAAAAAAAAAAAAAAAAAAAAAAChShzzzzzzzzwAAAAAAAABQAAAAAAAAAAAAAAAAAAAAAAAAAAAAAAAAAAAAAAQChSgAAAAAAAAAAAAAAAAABQBAAAAAAAAAAAAAAAAAAAAAAAAAAAAAAAAAAAAAQChSgAAAAAAAAAAAAAAAAABQAAAAAAAAAAAAAAAAAAAAAAAAAAAAAAAAAAAAAAAChSgAAAAAAAAABAAAAAAAAQAAAAAAAAAAAAAAAAAAAAAAAAAAAAAAAAAAAAAAAChSgAAAAAAAAAAAAAAAAABQAQwwwwwwwwAAAAAAAAAAAAAAAAAAAAAAAAAAAAAChSggAAAAAAAAAQAAAAAABQBAAAAAAAAAAAAAAAAAAAAAAAAAAAAAAAAAAAAAAChSgAAAAAAAAABQwwwwwwxgAAAAAAAAAAAAAAAAAAAAAAAAAAAAAAAAAAAAAAAChSgAAAAAAAAAAAAAAAAABQAAAAAAAAAAAAAAAAAAAAAAAAAAAAAAAAAAAAAAAChSgAAAAAAAAAAAAAAAAABQAAAAAAAAAAAAAAAAAAAAAAAAAAAAAAAAAAAAAAAChSgAAAAAAAAAAAwwwwwwxgAQAAAAAAAAAAAAAAAAAAAAAAAAAAAAAAAAAAAAQChSgAAAAAAAACgDDDDDDDCQBAAAAAAAAAAAAAAAAAAAAAAAAAAAAAAAAAAAABAChSgAAAAAAAAAAAAAAAAABQAAAAAAAAAAAAAAAAAAAAAAAAAAAAAAAAAAAAAAAChCgAAAAAAAAAAAAAAAAABQAAAAAAAAAAAAAAAAAAAAAAAAAAAAAAAAAAAAAAAChDDDDDDDDDDAAAAAAAAABQAQwwwwwwwwwwwwwwwwwwwwwwwwwwwwwwwwwwwxwCgAAAAAAAAAAAAAAAAAAABQAAAAAAAAAAAAAAAAAAAAAAAAAAAAAAAAAAAAAAACgAAAAAAAAAAAAAAAAAAABAAAAAAAAAAAAAAAAAAAAAAAAAAAAAAAAAAAAAAAACgAAAAAAAAAAAAAAAAAAABQAQwwwwwwwwwwwwwwwwwwwwwwwwwwwwwwwwwwwwwCgAAAAAAAAAAAAAAAAAAABQDDDDDDDDDDDDDDDDDDDDDDDDDDDDDDDDDDDDDDACgAAAAAAAAAAAAAAAAAAABQAAAAAAAAAAAAAAAAAAAAAAAAAAAAAAAAAAAAAAACgAAAAAAAAAAAAQAAAAAABAAAAAAAAAAAAAAAAAAAAAAAAAAAAAAAAAAAAAAAACgAAAAAAAAAAAAAAAAAAAAQAAAAAAAAAAAAAAAAAAAAAAAAAAAAAAAAAAAAAAACgAAAAAAAAAAAAAAAAAAABQAAAAAAAAAAAAAAAAAAAAAAAAAAAAAAAAAAAAAAACgAAAAAAAAAAAgAAAAAAABADjDDDDDDDDDDDDDDDDDDDDDDDDDDDDDDDDDDDCQCgAAAAAAAAAABDDDDDDDDCQAAAAAAAAAAAAAAAAAAAAAAAAAAAAAAAAAAAAAAACgAAAAAAAAAAAAAAAAAAABQAAAAAAAAAAAAAAAAAAAAAAAAAAAAAAAAAAAAAAACgAAAAAAAAAAAAAAAAAAABQAAAAAAAAAAAAAAAAAAAAAAAAAAAAAAAAAAAAAAACgAAAAAAAAAAAAAAAAAAABQAQwwwwwwwwwwwwwwwwwwwwwwwwwwwwwwwwwwwwgCgAAAAAAAAAAAAAAAAAAABQAAAAAAAAAAAAAAAAAAAAAAAAAAAAAAAAAAAAABACgAAAAAAAAAAAAAAAAAAABQAAAAAAAAAAAAAAAAAAAAAAAAAAAAAAAAAAAAAAACgAAAAAAAAAAAAAAAAAAABQwwwwwwwwwwwwwwwwwwwwwwwwwwwwwwwwwwwwwwwigAAAAAAAAAAAAAAAAAAABBDDDDDDDDDDDDDDDDDDDDDDDDDDDDDDDDDDDDDDDCAAAAAAAAAAAAAAAAAAAAAAAAAAAAAAAAAAAAAAAAAAAAAAAAAAAAAAAAAAAAAAAAAAAAAAAAAAAAAAAAAAAAAAAAAAAAAAAAAAAAAAAAAAAAAAAAAAAAAAAAAAAAAAAAAAAAAAAAAAAAAAAAAAAAAAAAAAAAAAAAAAAAAAAAAAAAAAAAAAAAAAAAAAAAAAAAAAAAAAAAAAAAAAAAAAAAAAAAAAAAAAAAAAAAAAAAAAAAAAAAAAAAAAAAAAAAAAAAAAAAAAAAAAAAAAAAAAAAAAAAAAAAAAAAAAAAAAAAAAAAAAAAAAAAAAD/xAAUEQEAAAAAAAAAAAAAAAAAAADA/9oACAEDAQE/EBsH/8QAFBEBAAAAAAAAAAAAAAAAAAAAwP/aAAgBAgEBPxAbB//EACsQAAEDAgMIAwEBAQEAAAAAAAAB8PERwTFh0RAhQFBRYKGxQZHhIIFxoP/aAAgBAQABPxD/AM6KKvFlQf8AtBcQm3oPOw87DzsPOw87DzsPOw87DzsPOw87DzsPOw87DzsPOw87DzsPOw87DzsPOw87DzsPOw87DzsPOw87DzsPOw87DzsPOw87DzsPOw87DzsPOw87DzsPOw87DzsPOw87DzsPOw87DzsPOw87DzsPOw87DzsPOw87DzsPOw87DzsPOw87DzsPOw87DzsPOw87DzsPOw87DzsPOw87DzsJtUXlmbjyvgyo7+O7OmZmZmZmZmZmZmZmZmZmZmZmZmZmZmZmZmZmZmZmZmZmZmZmZmZmVpBotmI3DljTmJgnZ3keW7acxME2JMEqLcia0yE4GxYsWLFixYsWLFixYsWKAmJV9FK87eR5btpzEwTYm2MUcpIPmw+bD5sPmw+bD5sPmw+bD5sPmw+bD5sPmw+bD5sPmwsdwTJOotOd+R5btpzEwTs7yPLdtOYmCbFnU/Cr7SpPhGEFhBYQWEFhBYQWEFhBYQWEFhBYQWEFhBYQWEFhBYQWEFhBYQWEFhBYQWEFhBYQWEFhBYQWEFhBYQWEFhBYQWEFhBYQWEFhBYQWEFhBYQWEFhBYQWEFhBYQWEFhBYQWEFhBYQWEFhBYQWEFhBYQWEFhBYQWEFhBYQWEFhBYQWEHEBVIxU4SKKoeR5btpzEwTYnvSocB1cxf87KVq1atWrVq1atWrVq1atWrVq1atWrVq1atWrVq1atWrVq1atWrVq1atWrVq1atWrVq1atWrVq1atWrVq1atWrVq+jTBQV0vRUUVP8ADyPLdtOYmCdneR5btpzEwTs7yPLdtOYmCdneR5btpzEwTYpX+jj6VP8AY17DXsNew17DXsNew17DXsNew17DXsNew17DXsNew17DXsNew17DXsNew17DXsNew17DXsNew17DXsNew17DXsNew17DXsNew17DXsNew17DXsNew17DXsNew17DXsNew17DXsNew17DXsNew17DXsNew17DXsNew17DXsNew17DXsNew17DXsNew17DXsNew17C10ldw6r/AMKoJUnQeR5btpzEwTYja+9Vx6pvwLesN6w3rDesN6w3rDesN6w3rDesN6w3rDesN6w3rDesN6w3rDesN6w3rDesN6w3rDesN6w3rDesN6w3rDesN6w3rDesN6w3rDesN6w3rDesN6w3rDesN6w3rDesN6w3rDesN6w3rDesN6w3rDesN6w3rDesN6w3rDesN6w3rDesN6w3rDesN6w3rDesN6w3rDesLRRqJ8ShZUWqpoeR5btpzEwTs7yPLdtOYmCdneR5btpzEwTs7yPLdtOYmCbEgiqTqtFT1YCdlPXr169evXr169evXr169evXr169evXr169evXr169evXr169evXr169evXr169evXr169evXr169evXr169evUOVkRjKUkV6CqHkeW7acxME2VSlq79bkdlHjx48ePHjx48ePHjx48ePHjx48ePHjx48ePHjx48ePHjx48ePHjx48ePHjx48ePHjx48ePHjx48ePHjx48ePHliVNE3uWCaIrjYPI8t205iYJ2d5Hlu2nMTBOzvI8t205iYJwnS4DnUYMGDBgwYMGDBgwYMGDBgwYMGDBgwYMGDBgwYMGDBgwYMGDBgwYMGDBgwYMGDBgwYMGBVpQIoBFGpPqjhTrrrrrrrrrrrrrrrrrro3Q12vq3q/GXDtOYmCcJuU0yb1QgJBSCkFIKQUgpBSCkFIKQUgpBSCkFIKQUgpBSCkFIKQUgpBSCkFIKQUgpBSCkFIKQUgpBSCkFIKQUgpBSCkFIKQUgpBSCkFIKQUgpBSCkFIKQUgpBSCkFIKQUgpBSCkFIKQUgpBSCkFIKQUr5XKqGBd+9deHtOYmCbNAv6rR88Pgp6ip6ip6ip6ip6ip6ip6ip6ip6ip6ip6ip6ip6ip6ip6ip6ip6i+SxeO5/e05iYJsUWT18/S/8AXgps2bNmzZs2bNmzZs2bNmq4iQ7SjdShK667zo4GDBgwYMGDBgwYMGDBgwVa2/P4wJ8q7T97TmJgnD4REyq9Sqm5fXe+eB7du3bt27du3bt27du3ZcAlE1VOi7vT4u0/e05iYJ33j3tOYmCcPhQlH+aX2UEKFChQoUKFChQoUKFChQoUKFChQoUKFChQoUKFChQoUKFChQoUKFChQoUKFChQoUKFChQoUKFChQoUKFChQoUKpjKJMDKLv4r3tOYmCcPhD3tU1NaJuOrsr79+/fv379+/fv379+/fv379+/fv379+/fv379+/fv379+/fv379+/fv379+/fv379+/fv379+/fv379+/fv37UVfhUlG8+UcV72nMTBNig/b2LpU4L33333333333333333W35Xjuf3tOYmCbMQIN5quLBfBFy5cuXLly5cuXLly5cuX+LReO5/e05iYJw+EEqKFBV4bwpu7KfPnz58+fPnz58+fPnz58+fPnz58+fPnz58+fPnz58+fPnz58+fPnz58+fPnz58+fPnz58+fPnz58+fPnz58+fb/eG50SgvclVTive05iYJw+KZV1WqdlZRRRRRRRRRRRRRRRRRRRRRRRRRRRRRRRRRRRRRRRRRRRRRRRRRRRRRRRRRRRRRRRRRRRRRRRRS5DKKX4o+9pzEwTh8LlVjNCOkdI6R0jpHSOkdI6R0jpHSOkdI6R0jpHSOkdI6R0jpHSOkdI6R0jpHSOkdI6R0jpHSOkdI6R0jpHSOkdI6R0jpHSOkdI6R0jpHSOkdI6R0jpHSOkdI6R0jpHSOkdI6R0jpHSOi/VTyo4r3tOYmCd9497TmJgnJ8bq+ruYrQ+KdoRj8jH5GPyMfkY/Ix+Rj8jH5GPyMfkY/Ix+Rj8jH5GPyMfkY/Ix+Rj8jH5GPyMfkY/Ix+Rj8jH5GPyMfkY/Ix+Rj8jH5GPyMfkY/Ix+Rj8jH5GPyMfkY/Ix+Rj8jH5GPyMfkY/Ix+Rj8jH5GPyMfkY/Ix+Rj8jH5GPyMfk+QXBX+pWnBlKUpSlKUpSlKUpSm8z+jr5NxB5N1Xa05iYJyfG/RMf5Fo6O+RCEIQhCEIQhCEIQhCEIQhCEIQhCEIQhCEIQhCEIQhCEIQhCEIQhCEIQhCEIQhCEIQhCEIQhCEIQhCEIQhCEIQhCEIQhCEIQhCEIQhCEIQhCEIQhCEIQhCEIQhCEIQhCEIQhmhLERpJlET/m1pzEwTh8LaCCVVPcL0cBfv379+/fv379+/fv36oY60t4rcT57RSnj/Ta05iYJsRA3gxP9HLcctxy3HLcctxy3HLcctxy3HLcctxy3HLcctxy3HLc3YE1aX/K/xhPKyVrKTdvHAJEiRIkSJEiRIkSJEiRRk5o1ZuT2fwmtGv1K0SvVu4GXLly5cuXLly5cuXLly0TS2KiUat6u7fzxPH+m1pzEwTYovVViIUpJSSklJKSUkpJSSklJKSUkpJSSklIgSAu4XhBhw6f4TVLrX7/R9uBRERERERERESqv/Ax6qfGHPE8f6bWnMTBNlGRyUpxGCXeiL/nA1atWrVq1atWrVq1atWrn/wDv0VBOEw4dPaKU8f6bWnMTBOT4cOn+EojP3uEJE7K48ePHjx48ePHjx48ePHjx48ePHjx48ePHjx48ePHjx48ePHjx48ePHjx48ePHjx48ePHjx48ePHjx48ePHjx40NP68U/uQiYCbU8f6bWnMTBOHwtyNHNVTA4AWLFixYsWLFixYsWLFoutCvoRXEfwlOtR9TSqXz7Kly5cuXLly5cuXLly5cuXLly5cuXLly5cuXLly5cuXLly5cuXLly5cuXLly5cuXLly5cuXLly5cuXLly5cuXLlrU7WvFb5URPle1PH+m1pzEwTk+PT707RSnj/Ta05iYJw+EukuDX0qjgGDBgwYMGDBgwYMGDBgm/gGap+anaKU8f6bWnMTBNiCQg4pR+BeCXfv379+/fv379+/fv37p1sZGvBnDp/hKprRa//JByDkHIOQcg5ByDkHIOQcg5ByDkHIOQcg5ByDkHIOQcg5ByDkHIOQcg5ByDkHIOQcg5ByDkHIOQcg5ByDkHIOQcg5ByDkHIOQcg5ByDkHIOQcg5ByDkHIOQcg5ByDkHIOQcg5BxDpvmKqm1PH+m1pzEwTZgLQVNUoVMUkIMIMIMIMIMIMIMIMIMIMIMIMIMIMIMIMINC8EXjg3Dp7OS3FSlKUpSlKUpSlKUpSlKUpSlKUpSlKUpSlKUpSlKUpSlKUpSlKUpSlKUpSlKUpRRSqq7eTx/ptacxME5Phw6f4SpW29RVYr2UccccccccccccccccccccccccccccccccccccccccccccccccccccccccccccccccccccccccdVKI39xVE/6qrtTx/ptacxME4fCOPKFDXgtF+N3AGmmmmmmmmmmmmmmrNNONKqrRO0Up4/02tOYmCcPhYUn4KilJKSUkpJSSklJKSUkpJSSklJKSUmKqGuTtFKeP9NrTmJgnJ8OHT2ilPH+m1pzEwTk+HDp/hK80qe/GiV/x2VkyZMmTJkyZMmTJkyZMmTJkyZMmTJkyZMmTJkyZMmTJkyZMmTJkyZMmTJkyZMmTJkyZMmTJkyZMmTJkyZMmTJkT0TJ73WRRgn52p4/02tOYmCbFyL6seVRw+OBcOHDhw4cOHDhw4cOHDhHvZC0u4u/FYdeEw4dP8JUzva5vVH37KChQoUKFChQoUKFChQoUKFChQoUKFChQoUKFChQoUKFChQoUKFChQoUKFChQoUKFChQoUKFChQoUKFChQoUKFCqJwUqf+WG7jtTx/ptacxME2Io9aW5f8L4HzzzzzzzzzzzzzzzxL7f5nMExcJhw6e0Up4/02tOYmCcnw4dPaKU8f6bWnMTBOT4cOntFKeP9NrTmJgnJ8OHT2ilPH+m1pzEwTk+HDp/hKTZ4QIidlQIECBAgQIECBAgQIECBAgQIECBAgQIECBAgQIECBAgQIECBAgQIECBAgQIECBAgQIECBAgQIECBAgQIECBAgQJUVC2vRNK7zBNqeP9NrTmJgnD4X4Xm1oabjgE+fPnz58+fPnz58+fPUiRik9XdfwE7ySYyqqvZTfv379+/fv379+/fv379+/fv379+/fv379+/fv379+/fv379+/fv379+/fv379+/fv379+/fv379+/fv379+/eqPVaY1++Wq4i47U8f6bWnMTBOHxUzjIKqitUTwDdu3bt27du3bt27du3K+7qlV71S+0Up4/02tOYmCcnw4dPaKU8f6bWnMTBOT4cOntFKeP8ATa05iYJyfDh0/wAJyn2ZT7Mp9mU+zKfZlPsyn2ZT7Mp9mU+zKfZlPsyn2ZT7Mp9mU+zKfZlPsyn2ZT7Mp9mU+zKfZlPsyn2ZT7Mp9mU+zKfZlPsyn2ZT7Mp9mU+zKfZlPsyn2ZT7Mp9mU+zKfZlPsyn2ZT7Mp9mU+zKfZlPsyn2ZT7Mp9mU+zKfZlPsyn2ZT7Mp9mU+zKfZlPsyn2ZT7Mp9mU+zKfZlPsyn2ZT7Mp9mU+zKfZlPsyn2ZT7Eqw2p4/wBNrTmJgmxWEJRFTOH7cftx+3H7cftx+3H7cftx+3H7cftx+3H7cftx+3H7cft+E+cOn+EqMqlSpUqVKlSpUqVKlSpUqVKlSpUqVKlSpUqVKlSpUqVKlSpUqVKlSpUqVKlSpUqVKlSpUqVKlSpUqVKlSpUqVK/x2Tx/ptacxME2JNPRunCKp/1EX/CGEMIYQwhhDCGEMIYQwhhDCGEMIYQwhgkjoEE2pDdJWtKib65hhXGFcYVxhXGFcYVxhXGFcYVxhXGFcYVxhXGFcYVxO6ib9rE6fwlYBp6uIVeynTp06dOnTp06dOnTp06dOnTp06dOnTp06dOnTp06dOnTp06dOnTp06dOnTp06dOnTp06dOnTp06dOnTp06dOnTdrSfvgojdiqrtTx/ptacxME4fCs+/TtbTwINqQbUg2pBtSDakG1INqQbUg2pBtSDakG1INqQbUg2oiKejjuETtFKeP9NrTmJgnJ8OHT2ilPH+m1pzEwTk+HDp7RSnj/Ta05iYJyfDh09opTx/ptacxME2ZKfec4tPnh8cFnz58+fPnz58+fPnz58+f5LF44Nw6e0Up4/02tOYmCbFGA+kt8iK+F/HBNWrVq1atWrVq1atWrVq1VxEh4M4dPaKU8f6bWnMTBOHwkl63j6daK4BIkSJEiRIkSJEiRIkSKvSpuNvw7RJTx/ptacxME5Pj0+9P4TvnQtJVfXgbdu3bt27du3bt27du3bXuqGKqlOiv+88Tx/ptacxME4fFKizk+qjgIECBAgQIECBAgQIECAm9FImioriP4TiRdCqVTzJMZMZMZMZMZMZMZMZMZMZMZMZMZMZMZMflYi1HVRf854nj/Ta05iYJyfDh09opTx/ptacxME5Phw6e0Up4/wBNrTmJgnJ8OHT2ilPH+m1pzEwTZvicPJqKvw4KBAgQIECBAgQIECBAgQIClQC8HnDp7RSnj/Ta05iYJsV29XQi6N68EJJJJJJJJJJJJJJJJJwRinBuHT/Cd7E4KooqDRoNGg0aDRoNGg0aDRoNGg0aDRoNGg0aDRoNGg0aDRoNGg0aDRoNGg0aDRoNGg0aDRoNGg0aDRoNGg0aDRoNGg0aDRoNGg0aDRoNGg0aDRoNGg0aDRoNGg0aDRoNGg0aDRoNGg0aDRoNGg0aDRoNGg0aDRoNGg0aDRoNGg0aDRoNGg0aDRoNGg0aDRoNGg0aDRoUO/N4MVT/AIqKm1PH+m1pzEwTk+HDp/hKFlkXedlEAAAAAAAAAAAAAAAAAAAAAAAAAAAAAAAAAAAAAAAAAAAAAAAAAAAAAAAAAAAAAAAAAAAAAAAABXNd0S7ZPH+m1pzEwTk+HDp/hMdISQkhJCSEkJISQkhJCSEkJISQkhJCSEkJISQkhJCSEkJISQkhJCSEkJISQkhJCSEkJISQkhJCSEkJISQkhJCSEkJISQkhJCSEkJISQkhJCSEkJISQkhJCSEkJISQkhJCSEkJISJlFEdE2p4/02tOYmCcnw4dPaKU8f6bWnMTBOHxvntw5BSiA9bD1sPWw9bD1sPWw9bD1sPWw9bD1sPWw9bD1sPWxXuPQz8FTtFKeP9NrTmJgnD4VQulKtRXc4BQoUKFChQoUKFChQoUFajgpHW3XwdopTx/ptacxME5Phw6e0Up4/wBNrTmJgnJ8OHT2ilPH+m1pzEwTk+HDp/hKA4xtETC4Fq1atWrVq1atWrVq1atVdZJYKyqvPE8f6bWnMTBOT4cOn+ErAXqlVVVdwzpM6TOkzpM6TOkzpM6TOkzpM6TOkzpM6TOkzpN8RLlCoiVXeu7nieP9NrTmJgmxBrwpVa/5H7cftx+3H7cftx+3H7cftx+3H7cftx+3H7cftx+3H7cft/4+QKwf6DKK4BcuXLly5cuXLly5cuXL3ylb7vwnaJKeP9NrTmJgmxWFegVOlUJBqSDUkGpINSQakg1JBqSDUkGpINSQakg1JBqSDUkGpINSQaiSNFEQTg/T707RSnj/AE2tOYmCcPhMIp/i8qjgAQIECBAgQIECBAgQIEnqtQPJ7RCU8f6bWnMTBOT4cOntFKeP9NrTmJgnJ8OHT2ilPH+m1pzEwTk+HDp7RSnj/Ta05iYJyfDh09opTx/ptacxME5Phw6e0Up4/wBNrTmJgnD4VaTrP5Ii8BXXXXXXXXXXXXXXXWAtk7XBP4SmUFtJS1X07KPnz58+fPnz58+fPnz58+fPnz58+fPnz58+fPnz58+fPnz58+fPnz58+fPnz58+fPnz58+fPnz58+fPnz58+fPq4wQvRazVpuxXtTx/ptacxME2Kb4+VEVoqLgvggoUKFChQoUKFChQoUKFCr4qVeNqz8f6cFqqTgKlSpUqVKlSpUqVKlSpvccHk6oMf4TQgNyqpVOyihQoUKFChQoUKFChQoUKFChQoUKFChQoUKFChQoUKFChQoUKFChQoUKFChQoUKFChQoUKFChQoUKFChQoUKFChMnRQXGW5gbU8f6bWnMTBNigx/uNpE/zwVSpUqVKlSpUqVKlSpUqVPk2i8cG4dPaKU8f6bWnMTBOT4cOntFKeP9NrTmJgnJ8OHT2ilPH+m1pzEwTk+HDp7RSnj/AE2oVZqlFRS6IoQ0hpDSGkNIaQ0hpDSGkNIaQ0hpDSGkNIaQ08Vwbh09opTx/ptSKqW0UpXha+YAAAAAAAAAAAAAAAAAAA3xwecOn+Ep4nkIEROyocOHDhw4cOHDhw4cOHDhw4cOHDhw4cOHDhw4cOHDhw4cOHDhw4cOHDhw4cOHDhw4cOHDhw4cOHDhw4cOHDhw4c3J6WyTSq721PH+nKznDp/hOPhqJUKvZUyZMmTJkyZMmTJkyZMmTJkyZMmTJkyZMmTJkyZMmTJkyZMmTJkyZMmTJkyZMmTJkyZMmTJkyZMmTJkyZMmTJkylZWrRWv3yq4m1PH+nKznDp7RSnj/TlZzh09opTx/pxZyJod0fJUJwBQoUKFChQoUKFChQoUquNoZ+C9okp4/04s7KQqKxacAwwwwwwwwwwwwwwwTyk3jruse0SU8f6crOcOntFKeP9OVnOHTtSszUOtHHcx7L6dOnTp06dOnTp06dOnTp06dOnTp06dOnTp06dOnTp06dOnTp06dOnTp06dOnTp06dOnTp06dOnTp06dOnTp06dFAStCUqi3H/F2p4/05Wc4dO1K3Q9ydxDvVey7du3bt27du3bt27du3bt27du3bt27du3bt27du3bt27du3bt27du3bt27du3bt27du3bt27du3bt27du3bt27dtUe31PKisFRdqeP9OVnOHT2ilPH+nKznDp7RSnj/AE5Wc4dPaKU8f6crOcOntFKeP9OLOQg9N/LrTczOA0000000000000003ofaqpVv6O0Up4/04s6mVbTNcsfth+2H7Yfth+2H7Yfth+2H7Yfth+2H7Yfth+2H7YTGWumf9KnaKU8f6crOcOntFKeP9OVnOHT2ilPH+nKznDp7RSnj/TlZzh07U0LgLUzBK9luuuuuuuuuuuuuuuuuuuuuuuuuuuuuuuuuuuuuuuuuuuuuuuuuuuuuuuuuuuuuuuuuuuuuuuuuu458N0NCLtJ4/wBOIWQIJSh/0LW3cFa1rWta1rWta1rWu/a5i3ranH0Ix9xMBOy82bNmzZs2bNmzZs2bNmzZs2bNmzZs2bNmzZs2bNmzZs2bNmzZs2bNmzZs2bNmzZs2bNmzZs2bNmzZs2bNmzZs2beWO9Fp43ZptTx/pxCYnMpIiREiJESIkRIiREiJESIkRIiREiJESIkRE2kJR7RJTx/pyt96dopTx/pyt96dopTx/pyt96dopTx/pyt96dopTx/pyt96dopTx/pyt96dopTx/pyt96fwlQVQJuVNWOm46bjpuOm46bjpuOm46bjpuOm46bjpuOm46bjpuOm46bjpuOm46bjpuOm46bjpuOm46bjpuOm46bjpuOm46bjpuOm46bjpuOm46bjpuOm46bjpuOm46bjpuOm46bjpuOm46bjpuOm46bjpuOm46bjpuOm46bjpuOm46bjpuOm46bjpuOm46bjpuOm46bjpuOm4gcIyVT/U2p4/05W+9O0U0rSeP9OVvvT+Eqmhqvh1Xsr169evXr169evXr169evXr169evXr169evXr169evXr169evXr169evXr169evXr169evXr169evXr169evXr1qNJ34q1Wm6TetdqeP9OVvvTtFKeP9OVvvTtFKeP9OVvvTtFKeP8ATlf5S2UydnikTu7u7u7u7u7u7u7u7u7u7u7u7u7u7u7u7u7u7u7u7u7u7u7u7u7u+6grl4/05X87aUMEGql6El0JLoSXQkuhJdCS6El0JLoSXQkuhJdCS6El0JLoSXQkuhJdCS6El0JLoSXQkuhJdCS6El0JLoSXQkuhJdCS6El0JLoSXQkuhJdCS6El0JLoSXQkuhJdCS6El0JLoSXQkuhJdCS6El0JLoSXQkuhJdCS6El0JLoSXQkuhJdCS6El0JLoSXQkuhJdCS6El0JLoSXQkuhJdCS6El0JLoSXQkuhJdCS6El0EEa61C1p/wCVb//Z;" parent="WIyWlLk6GJQsqaUBKTNV-1" vertex="1">
          <mxGeometry x="94.55" y="243" width="30.9" height="40" as="geometry" />
        </mxCell>
      </root>
    </mxGraphModel>
  </diagram>
</mxfile>
